<svg width="289" height="127" viewBox="0 0 289 127" fill="none" xmlns="http://www.w3.org/2000/svg">
<g filter="url(#filter0_d_283_3)">
<path d="M100.775 24.5165L100.772 24.515L63.5728 2.41524L100.775 24.5165ZM100.775 24.5165C105.194 27.0697 107.85 31.885 107.85 37V81.3C107.85 86.5133 105.095 91.3306 100.773 93.8848L100.772 93.8851M100.775 24.5165L100.772 93.8851M12.2277 24.5149L12.2272 24.5152C7.90473 27.0694 5.15002 31.8868 5.15002 37.1V81.3C5.15002 86.5129 7.80449 91.2307 12.2277 93.8851V24.5149ZM12.2277 24.5149L49.4272 2.41524L12.2277 24.5149ZM100.772 93.8851L63.5728 115.985L100.772 93.8851ZM49.4272 115.985L12.2286 93.8857L49.4272 115.985ZM72.45 96.5H72.4501L72.4499 96.4922L72.3537 93.4144C75.1526 91.0677 76.95 87.4407 76.9501 83.9L76.9499 83.8927C76.899 82.1622 76.4909 80.8624 75.6143 79.9857C74.7377 79.1091 73.4378 78.701 71.7074 78.6501L71.7074 78.65H71.7C70.4452 78.65 69.6833 78.5461 69.2348 78.2945C69.0219 78.175 68.882 78.0229 68.7913 77.8254C68.6978 77.6219 68.65 77.3554 68.65 77V76.9896L68.6492 76.9793C68.5586 75.8922 69.1931 74.3809 71.0165 73.4212L71.0165 73.4213L71.0214 73.4185C71.8919 72.9349 72.5814 72.7718 73.1042 72.737C73.5755 72.7055 73.9203 72.7769 74.1707 72.8287C74.1782 72.8303 74.1855 72.8318 74.1928 72.8333C74.2338 72.8598 74.2794 72.8786 74.3289 72.8879C74.4037 72.9019 74.4684 72.8906 74.5107 72.88C74.5382 72.8732 74.5771 72.8602 74.593 72.8549C74.5963 72.8538 74.5986 72.853 74.5996 72.8527C74.6035 72.8515 74.6065 72.8506 74.6085 72.8501C74.6088 72.8501 74.6091 72.8501 74.6094 72.8501C74.6469 72.8506 74.7307 72.8517 74.8118 72.8111C74.8537 72.7902 74.8857 72.7636 74.9079 72.7437C74.9296 72.7242 74.9537 72.6999 74.9768 72.6768L75.0055 72.6481L75.0236 72.6118L75.1736 72.3118L75.3236 72.0118L75.3359 71.9873L75.3426 71.9606L76.0404 69.1692C76.1598 68.7978 76.0576 68.3493 75.7118 68.1764L75.6897 68.1653L75.6658 68.1588C74.5932 67.8663 73.4489 68.0242 72.25 68.442V65.6V65.5692L72.2426 65.5394C72.189 65.3251 72.0963 65.1034 71.925 64.975C71.8319 64.9052 71.7189 64.8659 71.5938 64.8722C71.4735 64.8782 71.3616 64.9252 71.2614 64.992L69.4613 66.192C69.0833 66.444 68.85 66.9272 68.85 67.4V70.4786C66.1477 72.6293 64.45 76.0592 64.4499 79.4L64.4501 79.4063C64.5015 81.462 65.1751 82.6778 66.2401 83.3605C67.2813 84.0279 68.6471 84.15 70 84.15C71.0323 84.15 71.7138 84.3241 72.1351 84.6482C72.5409 84.9603 72.75 85.448 72.75 86.2C72.75 87.9006 71.7078 89.6166 69.9882 90.4764L69.9882 90.4763L69.9815 90.4799C68.7432 91.1467 67.3415 91.3289 66.3298 90.9807C66.2572 90.9218 66.1634 90.875 66.05 90.875C65.9544 90.875 65.8728 90.9082 65.8061 90.954C65.7702 90.9587 65.7289 90.9686 65.6882 90.9889C65.6463 91.0099 65.6143 91.0364 65.5922 91.0564C65.5705 91.0759 65.5463 91.1001 65.5232 91.1232C65.4731 91.1734 65.4346 91.2354 65.4061 91.2871C65.3759 91.3418 65.3475 91.4026 65.3216 91.461C65.3016 91.506 65.2834 91.5485 65.2661 91.5889C65.2348 91.6619 65.2066 91.7278 65.1764 91.7882L65.1637 91.8137L65.157 91.8413L64.4593 94.7318C64.3404 95.103 64.4428 95.5509 64.7882 95.7236L64.8011 95.73L64.8146 95.735C65.9078 96.1325 67.4251 96.0605 68.95 95.4731V98.2V98.2308L68.9575 98.2606C69.0111 98.475 69.1038 98.6966 69.275 98.825C69.3681 98.8949 69.4811 98.9341 69.6063 98.9278C69.7237 98.922 69.8332 98.8771 69.9316 98.8127L71.8253 97.7164L71.8321 97.7124L71.8387 97.708C72.2167 97.456 72.45 96.9728 72.45 96.5ZM82.0118 94.5236L82.0209 94.5191L82.0296 94.5138L91.4081 88.8269C91.6294 88.7431 91.7476 88.5781 91.802 88.3969C91.8502 88.2361 91.8501 88.0543 91.85 87.9163V87.9V85.8C91.85 85.5985 91.7812 85.4037 91.6137 85.292C91.4452 85.1797 91.2459 85.1976 91.0882 85.2764L91.0803 85.2803L91.0728 85.2848L81.7798 90.7806C81.5309 90.9079 81.25 91.1774 81.25 91.6V94C81.25 94.2016 81.3188 94.3963 81.4864 94.508C81.6549 94.6204 81.8541 94.6025 82.0118 94.5236ZM63.0312 55.5128L98.2277 33.815C98.2283 33.8146 98.229 33.8142 98.2296 33.8138C99.7921 32.8865 101.227 32.6112 102.399 32.8572C103.563 33.1017 104.503 33.8687 105.073 35.1048L105.546 34.9578C104.936 31.3944 102.898 28.1262 99.7264 26.2843C99.7261 26.2842 99.7258 26.284 99.7256 26.2838L62.5277 4.18508L62.5278 4.18499L62.5214 4.18147C60.6899 3.16396 58.6485 2.55001 56.5 2.55001C54.3597 2.55001 52.3141 3.05991 50.471 4.18587C50.4706 4.18614 50.4701 4.18642 50.4697 4.18669L13.2741 26.2841C13.2738 26.2842 13.2735 26.2844 13.2732 26.2846C9.59372 28.4314 7.25002 32.6152 7.25002 37V81.2C7.25002 85.5885 9.59651 89.6686 13.2697 91.9134L13.2723 91.9149L50.4723 114.015L50.4723 114.015L50.4786 114.019C52.3101 115.036 54.3515 115.65 56.5 115.65C57.2216 115.65 57.9384 115.547 58.5411 115.447L58.5753 114.962C56.8191 114.407 55.55 112.539 55.55 109.4V66C55.55 63.4071 56.3305 61.4371 57.6452 59.7937C58.9662 58.1424 60.8343 56.811 63.0272 55.5152L63.0272 55.5153L63.0312 55.5128ZM56.5 0.450012C58.9535 0.450012 61.4096 1.13708 63.5723 2.41494H49.4277C51.5905 1.13708 54.0465 0.450012 56.5 0.450012ZM56.5 117.95C54.0465 117.95 51.5905 117.263 49.4277 115.985H63.5723C61.4096 117.263 58.9535 117.95 56.5 117.95Z" fill="#F5C07B" stroke="black" stroke-width="0.5"/>
<path d="M156.007 60.9583L156.008 60.9601C156.99 62.1385 157.674 63.3114 158.163 64.7791L158.163 64.7791L158.165 64.7841C158.656 66.1603 158.95 67.6319 158.95 69.2H158.95L158.95 69.21C159.049 71.6682 158.557 73.8225 157.481 75.7795L157.481 75.7794L157.476 75.7882C156.498 77.7444 155.029 79.3157 153.352 80.5985C151.676 81.7811 149.702 82.7683 147.529 83.4602C145.345 84.0554 143.07 84.45 140.8 84.45H124.7C123.729 84.45 123.05 83.7531 123.05 82.9V35.3C123.05 34.4552 123.82 33.75 124.7 33.75H139.6C141.778 33.75 143.958 34.047 146.042 34.5432L146.045 34.5438C148.214 35.0368 150.187 35.9244 151.864 37.0099L151.864 37.01L151.87 37.0133C153.626 38.0865 155 39.6521 156.085 41.4278C157.156 43.279 157.649 45.4297 157.65 47.8911C157.55 49.2805 157.352 50.6445 156.869 51.8039C156.381 52.9757 155.696 54.0541 154.909 55.0388C154.123 55.9221 153.239 56.7075 152.257 57.3952L151.913 57.6359L152.288 57.8236C152.373 57.8659 152.436 57.908 152.511 57.958L152.514 57.9599C152.586 58.0079 152.669 58.0632 152.778 58.1185C154.048 58.9017 155.125 59.8806 156.007 60.9583ZM142.972 53.6395L142.972 53.6396L142.979 53.6372C143.892 53.333 144.817 52.9234 145.545 52.4034C146.266 51.8887 146.895 51.2635 147.317 50.5241C147.741 49.782 147.95 48.9383 147.95 48C147.95 46.9643 147.742 46.12 147.317 45.376C146.905 44.6555 146.381 44.0185 145.635 43.5893C144.914 43.0758 144.085 42.662 143.049 42.4549C142.049 42.2548 140.927 42.05 139.8 42.05H133H132.9H132.65V42.3V53.9V54.15H132.9H139.9H139.913L139.925 54.1488L139.935 54.1477C140.929 54.0484 141.949 53.9464 142.972 53.6395ZM144.172 75.7395L144.183 75.7363L144.193 75.7321C145.192 75.3325 146.128 74.9197 146.863 74.2898C147.581 73.674 148.205 72.9487 148.624 72.1118C149.04 71.2791 149.251 70.3399 149.151 69.2989C149.25 68.1673 149.044 67.1309 148.626 66.2933C148.209 65.356 147.684 64.7284 146.963 64.1102L146.96 64.108C146.335 63.5874 145.41 63.0743 144.486 62.7652C143.458 62.3549 142.428 62.15 141.2 62.15H133H132.75V62.4V76V76.25H133H140.9C142.029 76.25 143.154 76.0449 144.172 75.7395Z" fill="#F5C07B" stroke="black" stroke-width="0.5"/>
<path d="M186.96 34.8687L186.959 34.8688L186.963 34.8792L202.863 82.4792L202.865 82.4861L202.868 82.4929C203.03 82.8979 202.957 83.404 202.605 83.8438L202.605 83.8438L202.6 83.85C202.351 84.1814 201.829 84.45 201.3 84.45H195C194.29 84.45 193.609 84.0054 193.443 83.3394L193.44 83.331L193.438 83.3229L189.838 72.2229L189.782 72.05H189.6H175.7H175.518L175.462 72.2229L171.862 83.3229L171.86 83.331L171.857 83.3394C171.691 84.0054 171.01 84.45 170.3 84.45H163.9C163.366 84.45 162.942 84.2775 162.595 83.8438C162.243 83.404 162.17 82.8979 162.332 82.4929L162.332 82.493L162.337 82.4806L178.533 34.89C178.798 34.2811 179.409 33.85 180.1 33.85H185.4C186.118 33.85 186.798 34.3018 186.96 34.8687ZM178.262 63.4237L178.157 63.75H178.5H186.7H187.043L186.938 63.4237L182.838 50.6237L182.6 49.8805L182.362 50.6237L178.262 63.4237Z" fill="#F5C07B" stroke="black" stroke-width="0.5"/>
<path d="M230.81 56.1334L230.81 56.1334L230.816 56.1355C232.203 56.6308 233.493 57.2259 234.688 57.8236C235.87 58.4146 237.057 59.2054 238.153 60.0022C239.232 60.7867 240.216 61.7705 241.107 62.8583C241.995 63.9439 242.657 65.0951 242.751 66.3192L242.753 66.3526L242.765 66.3841C243.253 67.7504 243.45 69.2205 243.45 70.8C243.45 73.1572 242.861 75.3101 241.689 77.1665L241.687 77.1697C240.608 78.9349 239.135 80.4091 237.363 81.591C235.686 82.676 233.71 83.5655 231.534 84.1588C229.354 84.7535 227.276 85.05 225.1 85.05C222.728 85.05 220.352 84.6546 218.073 83.9608C215.792 83.2667 213.622 82.2784 211.853 80.9027L211.854 80.9026L211.848 80.8987C209.977 79.5197 208.499 77.8451 207.314 75.8714C206.141 73.9155 205.549 71.6599 205.45 69.0953C205.451 68.6159 205.55 68.2249 205.85 68C206.216 67.7256 206.665 67.55 207.1 67.55H213.6C214.484 67.55 215.167 68.165 215.252 68.9276L215.251 68.9277L215.253 68.9411C215.457 70.1622 215.864 71.3882 216.379 72.3166C216.896 73.35 217.621 74.1776 218.448 74.7987C219.367 75.5131 220.295 76.03 221.431 76.3404C223.473 76.9522 226.015 77.0528 228.455 76.444C229.493 76.2354 230.32 75.8196 231.133 75.312C231.973 74.7865 232.496 74.1557 233.003 73.4453L233.011 73.435L233.017 73.424C233.442 72.68 233.65 71.8357 233.65 70.8C233.65 69.673 233.446 68.7138 232.903 67.9547L232.904 67.9547L232.9 67.95C232.278 67.1207 231.554 66.5023 230.639 65.892C229.715 65.2763 228.593 64.7676 227.379 64.3628L227.379 64.3628L227.374 64.3611C226.077 63.962 224.879 63.5629 223.679 63.1628L223.671 63.1603L223.664 63.1582C221.781 62.6628 219.994 61.9683 218.097 61.1696L218.097 61.1696L218.093 61.1679C216.112 60.3754 214.331 59.3859 212.75 58.2C211.175 57.0184 209.795 55.5412 208.712 53.8669C207.638 52.1088 207.05 50.0552 207.05 47.7C207.05 45.3446 207.638 43.2878 208.716 41.4253L208.716 41.4253L208.719 41.4214C209.695 39.6633 211.165 38.1888 212.848 36.9015C214.529 35.7158 216.401 34.7316 218.566 34.1412L218.566 34.1412L218.569 34.1402C223.022 32.8539 227.67 32.9536 231.821 34.3372L231.821 34.3372L231.824 34.3382C233.994 35.0286 235.966 36.1132 237.641 37.493C239.316 38.8721 240.696 40.5472 241.781 42.5205C242.857 44.4761 243.351 46.7337 243.45 49.1051C243.449 49.5843 243.35 49.9752 243.05 50.2L243.036 50.2107L243.023 50.2232C242.776 50.4709 242.342 50.65 241.9 50.65H235.4C234.518 50.65 233.835 50.0368 233.749 49.2757C233.645 48.0399 233.234 47.0114 232.837 46.0193L232.832 46.0072L232.832 46.0071L232.828 45.9985C232.414 45.0651 231.791 44.2348 231.063 43.6102C230.342 42.9924 229.518 42.4781 228.493 42.0679L228.486 42.0652L228.479 42.0628C226.631 41.4467 224.18 41.3463 221.934 41.9588L221.934 41.9584L221.921 41.9628C221.008 42.2671 220.083 42.6766 219.355 43.1966L219.347 43.202L219.34 43.208C218.73 43.7163 218.104 44.3386 217.683 45.076C217.258 45.82 217.05 46.6643 217.05 47.7V47.7139L217.052 47.7276C217.154 48.6461 217.361 49.4952 217.897 50.2453L217.903 50.2543L217.91 50.2627C218.517 50.9709 219.239 51.6956 220.175 52.2165C221.19 52.8253 222.304 53.3311 223.415 53.735L223.415 53.735L223.421 53.7372L223.425 53.7385C224.621 54.1371 225.825 54.5384 226.93 54.8401C228.23 55.2401 229.521 55.6374 230.81 56.1334Z" fill="#F5C07B" stroke="black" stroke-width="0.5"/>
<path d="M275.2 54.25H275.45V54V35.3C275.45 34.4552 276.22 33.75 277.1 33.75H283.1C283.954 33.75 284.656 34.4324 284.75 35.3129V82.9C284.75 83.7448 283.98 84.45 283.1 84.45H277.1C276.129 84.45 275.45 83.7531 275.45 82.9V62.7V62.45H275.2H258.4H258.15V62.7V82.9C258.15 83.7448 257.38 84.45 256.5 84.45H250.5C249.529 84.45 248.85 83.7531 248.85 82.9V35.3C248.85 34.4552 249.62 33.75 250.5 33.75H256.5C257.471 33.75 258.15 34.4469 258.15 35.3V54V54.25H258.4H275.2Z" fill="#F5C07B" stroke="black" stroke-width="0.5"/>
</g>
<defs>
<filter id="filter0_d_283_3" x="0.900024" y="0.200012" width="288.1" height="126" filterUnits="userSpaceOnUse" color-interpolation-filters="sRGB">
<feFlood flood-opacity="0" result="BackgroundImageFix"/>
<feColorMatrix in="SourceAlpha" type="matrix" values="0 0 0 0 0 0 0 0 0 0 0 0 0 0 0 0 0 0 127 0" result="hardAlpha"/>
<feOffset dy="4"/>
<feGaussianBlur stdDeviation="2"/>
<feComposite in2="hardAlpha" operator="out"/>
<feColorMatrix type="matrix" values="0 0 0 0 0 0 0 0 0 0 0 0 0 0 0 0 0 0 0.25 0"/>
<feBlend mode="normal" in2="BackgroundImageFix" result="effect1_dropShadow_283_3"/>
<feBlend mode="normal" in="SourceGraphic" in2="effect1_dropShadow_283_3" result="shape"/>
</filter>
</defs>
</svg>
