<svg width="73" height="39" viewBox="0 0 73 39" fill="none" xmlns="http://www.w3.org/2000/svg">
<g filter="url(#filter0_d_1_16)">
<path d="M14.8486 7.57758C12.7592 9.3455 10.4503 12.5236 10.6305 15.4068C10.9418 20.3869 18.208 21.7033 21.9191 21.9615C31.8294 22.6509 43.3958 21.0711 51.1725 14.4054" stroke="#FFF" stroke-width="3" stroke-linecap="round"/>
</g>
<g filter="url(#filter1_d_1_16)">
<path d="M44.0718 3.4809C49.4343 3.94721 55.2474 2.78216 60.5799 2.28224C60.9935 2.24346 71.1148 1.18606 70.943 1.73602C70.7788 2.26119 69.9535 3.42793 69.7898 3.67815C68.1196 6.23117 66.4681 8.78992 64.889 11.4011C61.6488 16.7589 58.6606 22.2164 55.8156 27.7879" stroke="#FFF" stroke-width="3" stroke-linecap="round"/>
</g>
<defs>
<filter id="filter0_d_1_16" x="0.120605" y="6.07755" width="52.5518" height="26.5321" filterUnits="userSpaceOnUse" color-interpolation-filters="sRGB">
<feFlood flood-opacity="0" result="BackgroundImageFix"/>
<feColorMatrix in="SourceAlpha" type="matrix" values="0 0 0 0 0 0 0 0 0 0 0 0 0 0 0 0 0 0 127 0" result="hardAlpha"/>
<feOffset dx="-5" dy="5"/>
<feGaussianBlur stdDeviation="2"/>
<feComposite in2="hardAlpha" operator="out"/>
<feColorMatrix type="matrix" values="0 0 0 0 0 0 0 0 0 0 0 0 0 0 0 0 0 0 0.25 0"/>
<feBlend mode="normal" in2="BackgroundImageFix" result="effect1_dropShadow_1_16"/>
<feBlend mode="normal" in="SourceGraphic" in2="effect1_dropShadow_1_16" result="shape"/>
</filter>
<filter id="filter1_d_1_16" x="33.5718" y="0.0778046" width="38.8735" height="38.2104" filterUnits="userSpaceOnUse" color-interpolation-filters="sRGB">
<feFlood flood-opacity="0" result="BackgroundImageFix"/>
<feColorMatrix in="SourceAlpha" type="matrix" values="0 0 0 0 0 0 0 0 0 0 0 0 0 0 0 0 0 0 127 0" result="hardAlpha"/>
<feOffset dx="-5" dy="5"/>
<feGaussianBlur stdDeviation="2"/>
<feComposite in2="hardAlpha" operator="out"/>
<feColorMatrix type="matrix" values="0 0 0 0 0 0 0 0 0 0 0 0 0 0 0 0 0 0 0.25 0"/>
<feBlend mode="normal" in2="BackgroundImageFix" result="effect1_dropShadow_1_16"/>
<feBlend mode="normal" in="SourceGraphic" in2="effect1_dropShadow_1_16" result="shape"/>
</filter>
</defs>
</svg>
