<svg width="66" height="73" viewBox="0 0 66 73" fill="none" xmlns="http://www.w3.org/2000/svg">
<g filter="url(#filter0_d_268_3)">
<mask id="path-1-inside-1_268_3" fill="white">
<path d="M61.8306 19.11C61.8301 18.0171 61.5964 17.0513 61.1237 16.2224C60.6593 15.4074 59.964 14.7242 59.0312 14.1841C51.332 9.74468 43.6253 5.31884 35.9286 0.87489C33.8536 -0.323045 31.8417 -0.279373 29.7821 0.93576C26.7175 2.74307 11.3745 11.5334 6.8025 14.1816C4.91961 15.2716 4.00339 16.9398 4.00294 19.108C4 28.0359 4.00294 36.9636 4 45.8918C4 46.9608 4.22425 47.9078 4.67613 48.7242C5.14069 49.5639 5.84578 50.2658 6.80001 50.8182C11.3723 53.4664 26.7173 62.2561 29.7812 64.0638C31.8417 65.2796 33.8536 65.3231 35.9292 64.1247C43.6262 59.6805 51.3334 55.2549 59.0337 50.8155C59.988 50.2634 60.6931 49.561 61.1576 48.7219C61.6088 47.9055 61.8335 46.9585 61.8335 45.8893C61.8335 45.8893 61.8335 28.0382 61.8306 19.11Z"/>
</mask>
<path d="M61.8306 19.11C61.8301 18.0171 61.5964 17.0513 61.1237 16.2224C60.6593 15.4074 59.964 14.7242 59.0312 14.1841C51.332 9.74468 43.6253 5.31884 35.9286 0.87489C33.8536 -0.323045 31.8417 -0.279373 29.7821 0.93576C26.7175 2.74307 11.3745 11.5334 6.8025 14.1816C4.91961 15.2716 4.00339 16.9398 4.00294 19.108C4 28.0359 4.00294 36.9636 4 45.8918C4 46.9608 4.22425 47.9078 4.67613 48.7242C5.14069 49.5639 5.84578 50.2658 6.80001 50.8182C11.3723 53.4664 26.7173 62.2561 29.7812 64.0638C31.8417 65.2796 33.8536 65.3231 35.9292 64.1247C43.6262 59.6805 51.3334 55.2549 59.0337 50.8155C59.988 50.2634 60.6931 49.561 61.1576 48.7219C61.6088 47.9055 61.8335 46.9585 61.8335 45.8893C61.8335 45.8893 61.8335 28.0382 61.8306 19.11Z" fill="#FFB858"/>
<path d="M61.8306 19.11L62.3306 19.1099L62.3306 19.1098L61.8306 19.11ZM61.1237 16.2224L60.6892 16.4699L60.6893 16.4701L61.1237 16.2224ZM59.0312 14.1841L59.2818 13.7514L59.281 13.7509L59.0312 14.1841ZM35.9286 0.87489L36.1786 0.441883L36.1786 0.441871L35.9286 0.87489ZM29.7821 0.93576L30.0361 1.36644L30.0361 1.3664L29.7821 0.93576ZM6.8025 14.1816L7.053 14.6143L7.0531 14.6143L6.8025 14.1816ZM4.00294 19.108L4.50294 19.1082L4.50294 19.1081L4.00294 19.108ZM4 45.8918L3.5 45.8917V45.8918H4ZM4.67613 48.7242L5.11364 48.4821L5.11359 48.4821L4.67613 48.7242ZM6.80001 50.8182L7.0506 50.3855L7.05049 50.3855L6.80001 50.8182ZM29.7812 64.0638L30.0353 63.6332L30.0353 63.6332L29.7812 64.0638ZM35.9292 64.1247L36.1792 64.5577L36.1793 64.5577L35.9292 64.1247ZM59.0337 50.8155L59.2835 51.2486L59.2841 51.2483L59.0337 50.8155ZM61.1576 48.7219L61.595 48.9641L61.5952 48.9638L61.1576 48.7219ZM61.8335 45.8893L62.3335 45.8893L61.8335 45.8893ZM62.3306 19.1098C62.3301 17.9443 62.0803 16.8905 61.558 15.9747L60.6893 16.4701C61.1125 17.2121 61.3302 18.0898 61.3306 19.1102L62.3306 19.1098ZM61.5581 15.9749C61.0448 15.0739 60.2816 14.3304 59.2818 13.7514L58.7807 14.6168C59.6464 15.1181 60.2739 15.7409 60.6892 16.4699L61.5581 15.9749ZM59.281 13.7509C51.5802 9.31064 43.8757 4.88603 36.1786 0.441883L35.6786 1.3079C43.3749 5.75164 51.0838 10.1787 58.7815 14.6173L59.281 13.7509ZM36.1786 0.441871C35.0762 -0.194536 33.9668 -0.513933 32.8431 -0.499534C31.7203 -0.485147 30.618 -0.137952 29.528 0.505121L30.0361 1.3664C31.0058 0.794339 31.9392 0.512131 32.856 0.500383C33.7719 0.488647 34.7059 0.74638 35.6786 1.30791L36.1786 0.441871ZM29.5281 0.505078C26.4651 2.31149 11.1305 11.0969 6.55189 13.7489L7.0531 14.6143C11.6185 11.9699 26.97 3.17466 30.0361 1.36644L29.5281 0.505078ZM6.552 13.7489C4.50812 14.9321 3.50343 16.769 3.50294 19.1079L4.50294 19.1081C4.50336 17.1105 5.3311 15.6111 7.053 14.6143L6.552 13.7489ZM3.50294 19.1078C3.50147 23.5719 3.50147 28.0359 3.50147 32.4998C3.50147 36.9638 3.50147 41.4277 3.5 45.8917L4.5 45.892C4.50147 41.4278 4.50147 36.9637 4.50147 32.4998C4.50147 28.0359 4.50147 23.572 4.50294 19.1082L3.50294 19.1078ZM3.5 45.8918C3.5 47.032 3.7397 48.0648 4.23867 48.9663L5.11359 48.4821C4.70879 47.7507 4.5 46.8895 4.5 45.8918H3.5ZM4.23862 48.9662C4.75214 49.8945 5.5264 50.6587 6.54952 51.2509L7.05049 50.3855C6.16516 49.873 5.52923 49.2334 5.11364 48.4821L4.23862 48.9662ZM6.54941 51.2509C11.1284 53.9029 26.4648 62.6876 29.5271 64.4944L30.0353 63.6332C26.9698 61.8245 11.6161 53.0298 7.0506 50.3855L6.54941 51.2509ZM29.5271 64.4944C30.6175 65.1379 31.7201 65.4852 32.8431 65.4995C33.967 65.5139 35.0766 65.1943 36.1792 64.5577L35.6792 63.6917C34.7062 64.2534 33.772 64.5113 32.8559 64.4996C31.939 64.4879 31.0054 64.2056 30.0353 63.6332L29.5271 64.4944ZM36.1793 64.5577C43.8765 60.1134 51.5817 55.6889 59.2835 51.2486L58.784 50.3823C51.0851 54.8209 43.376 59.2476 35.6792 63.6917L36.1793 64.5577ZM59.2841 51.2483C60.3074 50.6562 61.0816 49.8915 61.595 48.9641L60.7202 48.4797C60.3045 49.2305 59.6685 49.8705 58.7833 50.3827L59.2841 51.2483ZM61.5952 48.9638C62.0933 48.0625 62.3335 47.0299 62.3335 45.8893H61.3335C61.3335 46.8871 61.1243 47.7484 60.72 48.4801L61.5952 48.9638ZM61.8335 45.8893C62.3335 45.8893 62.3335 45.8893 62.3335 45.8891C62.3335 45.889 62.3335 45.8888 62.3335 45.8885C62.3335 45.888 62.3335 45.8872 62.3335 45.8861C62.3335 45.8839 62.3335 45.8807 62.3335 45.8764C62.3335 45.8677 62.3335 45.8549 62.3335 45.8378C62.3335 45.8038 62.3335 45.7531 62.3335 45.6867C62.3335 45.5537 62.3335 45.3576 62.3335 45.1048C62.3335 44.5993 62.3335 43.8671 62.3335 42.9606C62.3334 41.1475 62.3333 38.6371 62.3332 35.8477C62.3328 30.2689 62.332 23.574 62.3306 19.1099L61.3306 19.1102C61.332 23.5742 61.3328 30.269 61.3332 35.8478C61.3333 38.6372 61.3334 41.1476 61.3335 42.9606C61.3335 43.8671 61.3335 44.5993 61.3335 45.1049C61.3335 45.3576 61.3335 45.5537 61.3335 45.6867C61.3335 45.7531 61.3335 45.8038 61.3335 45.8378C61.3335 45.8549 61.3335 45.8677 61.3335 45.8764C61.3335 45.8807 61.3335 45.8839 61.3335 45.8861C61.3335 45.8872 61.3335 45.888 61.3335 45.8885C61.3335 45.8888 61.3335 45.889 61.3335 45.8891C61.3335 45.8893 61.3335 45.8893 61.8335 45.8893Z" fill="black" mask="url(#path-1-inside-1_268_3)"/>
<path d="M33.0049 32.7016L60.8147 48.8122C60.3763 49.5153 59.7456 50.1148 58.9085 50.5991C55.6718 52.4652 52.4335 54.3289 49.1952 56.1928C44.7304 58.7625 40.2654 61.3324 35.8043 63.9082C34.7988 64.4887 33.8208 64.762 32.8527 64.7496C31.8843 64.7372 30.9084 64.4387 29.9082 63.8485C28.0568 62.7561 21.7219 59.1148 15.989 55.8196C12.2323 53.6602 8.73405 51.6495 6.92532 50.6019L6.92527 50.6018C6.08831 50.1174 5.45776 49.5183 5.01941 48.815L33.0049 32.7016Z" fill="#FFB858" stroke="black" stroke-width="0.5"/>
<path d="M33.5051 32.4136L61.0251 16.5677C61.3943 17.3034 61.5802 18.1512 61.5806 19.1101C61.5821 23.5742 61.5828 30.2689 61.5832 35.8478L61.5835 42.9606L61.5835 45.1048L61.5835 45.6867V45.8378V45.8764V45.8861V45.8885V45.8891C61.5835 45.8892 61.5835 45.8892 61.5898 45.8892L61.5835 45.8892C61.5831 46.8235 61.4062 47.6521 61.0563 48.3743L33.5051 32.4136Z" fill="#FFB858" stroke="black" stroke-width="0.5"/>
<path d="M48.4102 29.364V26.5652H49.4346V29.364V29.614H49.6846H52.7334H52.9834V29.364V26.5652H54.0079V29.364V29.614H54.2579H57.0567V30.6385H54.2579H54.0079V30.8885V33.9373V34.1873H54.2579H57.0567V35.2117H54.2579H54.0079V35.4617V38.2606H52.9834V35.4617V35.2117H52.7334H49.6846H49.4346V35.4617V38.2606H48.4102V35.4617V35.2117H48.1602H45.3613V34.1873H48.1602H48.4102V33.9373V30.8885V30.6385H48.1602H45.3613V29.614H48.1602H48.4102V29.364ZM52.9834 30.8885V30.6385H52.7334H49.6846H49.4346V30.8885V33.9373V34.1873H49.6846H52.7334H52.9834V33.9373V30.8885Z" fill="#FFB858" stroke="black" stroke-width="0.5"/>
<path d="M33.0674 43.4543C37.0424 43.4543 40.5206 41.3348 42.4398 38.1672L51.3502 43.3292C47.6856 49.5023 40.9837 53.6613 33.3049 53.7454C33.3047 53.7454 33.3044 53.7454 33.3042 53.7454L33.0674 53.7467C33.0672 53.7467 33.067 53.7467 33.0668 53.7467C25.1827 53.7464 18.301 49.452 14.6344 43.0731C12.8447 39.9595 11.8206 36.3498 11.8206 32.4998C11.8206 20.7657 21.3329 11.2531 33.0674 11.2531C40.8118 11.2531 47.5881 15.3971 51.3018 21.5892L42.3762 26.7285C40.4642 23.6519 37.0718 21.5896 33.1923 21.5462L33.1909 21.5462L33.0688 21.5455H33.0674C27.0176 21.5455 22.1129 26.45 22.1129 32.4998C22.1129 34.4781 22.6405 36.3329 23.5578 37.9347L23.5578 37.9347C25.4455 41.2304 28.9951 43.4543 33.0674 43.4543Z" fill="#FFB858" stroke="black" stroke-width="0.5"/>
</g>
<defs>
<filter id="filter0_d_268_3" x="0" y="0" width="65.8335" height="73" filterUnits="userSpaceOnUse" color-interpolation-filters="sRGB">
<feFlood flood-opacity="0" result="BackgroundImageFix"/>
<feColorMatrix in="SourceAlpha" type="matrix" values="0 0 0 0 0 0 0 0 0 0 0 0 0 0 0 0 0 0 127 0" result="hardAlpha"/>
<feOffset dy="4"/>
<feGaussianBlur stdDeviation="2"/>
<feComposite in2="hardAlpha" operator="out"/>
<feColorMatrix type="matrix" values="0 0 0 0 0 0 0 0 0 0 0 0 0 0 0 0 0 0 0.25 0"/>
<feBlend mode="normal" in2="BackgroundImageFix" result="effect1_dropShadow_268_3"/>
<feBlend mode="normal" in="SourceGraphic" in2="effect1_dropShadow_268_3" result="shape"/>
</filter>
</defs>
</svg>
