<svg width="49" height="51" viewBox="0 0 49 51" fill="none" xmlns="http://www.w3.org/2000/svg">
<path d="M30.5141 9.04631C21.2453 5.67273 11.809 10.0729 8.43547 19.3418C5.0619 28.6106 9.8394 38.856 19.1082 42.2296C28.377 45.6031 37.8133 41.2029 41.1869 31.9341C41.8616 30.0803 43.9147 29.1229 45.7685 29.7977C47.6223 30.4724 48.5796 32.5255 47.9049 34.3793C43.1819 47.3556 29.6495 53.6659 16.6732 48.9429C3.69682 44.2199 -2.99074 29.8783 1.73226 16.902C6.45526 3.92565 19.9877 -2.38462 32.964 2.33838C34.8178 3.0131 35.7752 5.06622 35.1005 6.91999C34.4257 8.77375 32.3726 9.73114 30.5189 9.05642L30.5141 9.04631Z" fill="#FFB858"/>
</svg>
