<svg width="57" height="59" viewBox="0 0 57 59" fill="none" xmlns="http://www.w3.org/2000/svg">
<g filter="url(#filter0_d_22_54)">
<path d="M34.5141 9.04631C25.2453 5.67273 15.809 10.0729 12.4355 19.3418C9.0619 28.6106 13.8394 38.856 23.1082 42.2296C32.377 45.6031 41.8133 41.2029 45.1869 31.9341C45.8616 30.0803 47.9147 29.1229 49.7685 29.7977C51.6223 30.4724 52.5796 32.5255 51.9049 34.3793C47.1819 47.3556 33.6495 53.6659 20.6732 48.9429C7.69682 44.2199 1.00926 29.8783 5.73226 16.902C10.4553 3.92565 23.9877 -2.38462 36.964 2.33838C38.8178 3.0131 39.7752 5.06622 39.1005 6.91999C38.4257 8.77375 36.3726 9.73114 34.5189 9.05642L34.5141 9.04631Z" fill="#FFB858"/>
<path d="M34.7008 8.85494L34.697 8.8468L34.5996 8.81138C25.2011 5.39059 15.6213 9.85769 12.2005 19.2563C8.77975 28.6548 13.6242 39.0437 23.0227 42.4645C32.4213 45.8853 42.001 41.4182 45.4218 32.0196C46.0493 30.2956 47.959 29.4051 49.683 30.0326C51.407 30.6601 52.2975 32.5697 51.67 34.2938C46.9942 47.1404 33.6053 53.3837 20.7587 48.7079C7.91207 44.0322 1.2914 29.8341 5.96718 16.9875C10.643 4.1409 24.0319 -2.10247 36.8785 2.57331C38.6025 3.2008 39.493 5.11046 38.8655 6.83448C38.2497 8.52643 36.399 9.41558 34.7008 8.85494Z" stroke="black" stroke-width="0.5"/>
</g>
<defs>
<filter id="filter0_d_22_54" x="0.217163" y="0.776245" width="55.904" height="57.7288" filterUnits="userSpaceOnUse" color-interpolation-filters="sRGB">
<feFlood flood-opacity="0" result="BackgroundImageFix"/>
<feColorMatrix in="SourceAlpha" type="matrix" values="0 0 0 0 0 0 0 0 0 0 0 0 0 0 0 0 0 0 127 0" result="hardAlpha"/>
<feOffset dy="4"/>
<feGaussianBlur stdDeviation="2"/>
<feComposite in2="hardAlpha" operator="out"/>
<feColorMatrix type="matrix" values="0 0 0 0 0 0 0 0 0 0 0 0 0 0 0 0 0 0 0.25 0"/>
<feBlend mode="normal" in2="BackgroundImageFix" result="effect1_dropShadow_22_54"/>
<feBlend mode="normal" in="SourceGraphic" in2="effect1_dropShadow_22_54" result="shape"/>
</filter>
</defs>
</svg>
