<svg width="102" height="73" viewBox="0 0 102 73" fill="none" xmlns="http://www.w3.org/2000/svg">
<g filter="url(#filter0_d_281_5)">
<path d="M55.7182 29.6351H46.1299V21.0187H55.7182V29.6351ZM55.7182 0H46.1299V8.80495H55.7182V0ZM67.0616 21.0042H57.4733V29.6206H67.0616V21.0042ZM44.3892 10.5456H34.8009V19.2636H44.3892V10.5456ZM55.7182 10.5456H46.1299V19.2636H55.7182V10.5456ZM95.8699 25.0513C93.7811 23.6443 88.9652 23.1366 85.2662 23.8328C84.7876 20.3515 82.8438 17.3198 79.3044 14.5927L77.2736 13.2437L75.9246 15.2745C73.2555 19.3071 72.5302 25.9507 75.3879 30.3314C74.1259 31.0132 71.6454 31.9415 68.3671 31.8835H5.31088C4.04889 39.2524 6.15221 48.8262 11.6934 55.3972C17.075 61.7652 25.1402 65 35.6858 65C58.5178 65 75.4169 54.4834 83.3225 35.3794C86.4267 35.4374 93.1283 35.3939 96.5662 28.8228C96.7838 28.4602 97.5236 26.9081 97.7992 26.3423L95.8699 25.0513ZM21.7313 21.0042H12.1576V29.6206H21.7458V21.0042H21.7313ZM33.0603 21.0042H23.472V29.6206H33.0603V21.0042ZM44.3892 21.0042H34.8009V29.6206H44.3892V21.0042ZM33.0603 10.5456H23.472V19.2636H33.0603V10.5456Z" fill="#FFB858"/>
<path d="M95.7302 25.2587L95.7309 25.2591L97.4792 26.429C97.4451 26.4996 97.4077 26.5769 97.368 26.6591C97.03 27.3587 96.5213 28.4116 96.3518 28.6942L96.348 28.7004L96.3447 28.7069C92.9828 35.1328 86.4351 35.1875 83.3272 35.1294L83.1567 35.1262L83.0915 35.2838C75.2295 54.2825 58.4301 64.75 35.6858 64.75C25.193 64.75 17.2066 61.5335 11.8845 55.2361C6.44613 48.7869 4.34662 39.4067 5.5227 32.1335H68.3649C71.6906 32.1919 74.2123 31.2506 75.5067 30.5514L75.7456 30.4223L75.5973 30.1948C74.2047 28.0601 73.6778 25.3607 73.8333 22.6869C73.9888 20.0133 74.8256 17.3879 76.1331 15.4125L77.3435 13.5903L79.1587 14.7961C82.6558 17.4926 84.5513 20.4685 85.0186 23.8669L85.0544 24.1271L85.3125 24.0785C87.1346 23.7355 89.2382 23.6884 91.1441 23.9018C93.0578 24.116 94.7359 24.5889 95.7302 25.2587ZM55.4682 29.3851H46.3799V21.2687H55.4682V29.3851ZM46.3799 0.25H55.4682V8.55495H46.3799V0.25ZM57.7233 29.3706V21.2542H66.8116V29.3706H57.7233ZM35.0509 19.0136V10.7956H44.1392V19.0136H35.0509ZM46.3799 10.7956H55.4682V19.0136H46.3799V10.7956ZM12.4076 29.3706V21.2542H21.4958V29.3706H12.4076ZM23.722 29.3706V21.2542H32.8103V29.3706H23.722ZM35.0509 29.3706V21.2542H44.1392V29.3706H35.0509ZM23.722 19.0136V10.7956H32.8103V19.0136H23.722Z" stroke="black" stroke-width="0.5"/>
</g>
<defs>
<filter id="filter0_d_281_5" x="0.956421" y="0" width="100.843" height="73" filterUnits="userSpaceOnUse" color-interpolation-filters="sRGB">
<feFlood flood-opacity="0" result="BackgroundImageFix"/>
<feColorMatrix in="SourceAlpha" type="matrix" values="0 0 0 0 0 0 0 0 0 0 0 0 0 0 0 0 0 0 127 0" result="hardAlpha"/>
<feOffset dy="4"/>
<feGaussianBlur stdDeviation="2"/>
<feComposite in2="hardAlpha" operator="out"/>
<feColorMatrix type="matrix" values="0 0 0 0 0 0 0 0 0 0 0 0 0 0 0 0 0 0 0.25 0"/>
<feBlend mode="normal" in2="BackgroundImageFix" result="effect1_dropShadow_281_5"/>
<feBlend mode="normal" in="SourceGraphic" in2="effect1_dropShadow_281_5" result="shape"/>
</filter>
</defs>
</svg>
