<svg width="63" height="62" viewBox="0 0 63 62" fill="none" xmlns="http://www.w3.org/2000/svg">
<path d="M17.5579 49.0895C17.5579 49.0894 17.5587 49.0886 17.5608 49.0873C17.559 49.0889 17.558 49.0896 17.5579 49.0895ZM15.7069 40.9735C18.2508 42.7619 21.5371 43.3037 24.7594 43.681C24.0964 44.5502 23.5569 45.7295 23.3013 47.2255C22.4067 47.6061 21.0067 48.0313 19.5318 47.8994C17.9515 47.7581 16.2399 46.9758 14.9329 44.6722L14.9314 44.6695C13.9959 43.0443 12.6758 42.1628 11.5962 41.6902C11.0569 41.4541 10.5753 41.3187 10.226 41.2421C10.0511 41.2037 9.90856 41.1798 9.80765 41.1654C9.75717 41.1582 9.71702 41.1533 9.68833 41.1501C9.67399 41.1486 9.6625 41.1474 9.65401 41.1466L9.64355 41.1457L9.64004 41.1453L9.63872 41.1452L9.63817 41.1452C9.63792 41.1452 9.63769 41.1452 9.59766 41.6436L9.63769 41.1452L9.62076 41.1438L9.60378 41.1436C9.19321 41.1386 8.85443 41.1663 8.58241 41.2297C8.3172 41.2915 8.06295 41.3993 7.8836 41.5968C7.68392 41.8167 7.63407 42.0834 7.67287 42.3248C7.70805 42.5436 7.81341 42.7378 7.91719 42.8893C8.12654 43.195 8.43656 43.4788 8.66915 43.6722C8.78982 43.7726 8.89882 43.8561 8.97793 43.9147C9.0176 43.9441 9.05005 43.9675 9.07305 43.9839L9.10027 44.003L9.1081 44.0085L9.11048 44.0101L9.11127 44.0107L9.11157 44.0109C9.11169 44.0109 9.1118 44.011 9.39453 43.5986L9.1118 44.011L9.14737 44.0354L9.18659 44.0533C10.0774 44.4607 10.8936 45.501 11.5106 46.5351C11.8107 47.0381 12.0488 47.5138 12.2119 47.8641C12.2933 48.0389 12.3556 48.1816 12.3973 48.2798C12.405 48.298 12.412 48.3146 12.4183 48.3297C12.4289 48.3552 12.4375 48.3761 12.444 48.3919L12.4537 48.416C13.4877 51.5417 16.4444 52.5273 18.9525 52.7673C20.2233 52.8888 21.4276 52.8261 22.3108 52.7343C22.6502 52.699 22.9438 52.6592 23.1773 52.6235C23.1795 53.8588 23.1876 55.333 23.1958 56.6335C23.1986 57.0844 23.2015 57.514 23.204 57.9056C23.2101 58.8337 23.2148 59.5479 23.2148 59.8232C23.2148 60.1321 23.1067 60.4412 22.8881 60.6418C22.688 60.8254 22.3192 60.9875 21.6417 60.8733C9.20904 56.6913 0.5 44.8449 0.5 30.9922C0.5 13.6621 13.7437 0.515625 31.0781 0.515625C48.4296 0.515625 62.4688 13.6788 62.4688 30.9922C62.4688 44.8518 54.0068 56.6933 41.5432 60.8479C40.8729 60.9619 40.5031 60.8007 40.3004 60.6157C40.0793 60.4137 39.9697 60.1039 39.9697 59.7978C39.9697 59.4552 39.9739 58.6493 39.9794 57.5683C39.9823 57.0123 39.9855 56.3836 39.9888 55.7076C39.9983 53.719 40.0078 51.325 40.0078 49.1846C40.0078 46.6943 39.3408 44.8753 38.4006 43.6767C41.6262 43.2966 44.9718 42.7617 47.5793 40.9873C50.5124 38.9914 52.4238 35.5017 52.4238 29.2656C52.4238 27.4611 52.0999 26.0765 51.4969 24.8452C50.9393 23.7064 50.1536 22.722 49.222 21.6783C49.645 20.4482 50.4267 17.1465 48.7834 12.9844L48.696 12.7629L48.4689 12.6912C47.6572 12.4348 46.6562 12.5819 45.6874 12.8709C44.6996 13.1656 43.6564 13.6357 42.7137 14.1236C41.7683 14.6128 40.9093 15.1276 40.2877 15.5193C39.9764 15.7153 39.7238 15.8811 39.5484 15.9983C39.5195 16.0176 39.4927 16.0356 39.4681 16.0522C36.9482 15.3692 34.2545 15.0166 31.5859 15.0166C28.9172 15.0166 26.2234 15.3693 23.7034 16.0523C23.6787 16.0357 23.6519 16.0177 23.6229 15.9984C23.4476 15.8816 23.1949 15.7163 22.8837 15.5207C22.2621 15.1301 21.4032 14.6166 20.4579 14.1282C19.5152 13.6411 18.4723 13.1716 17.4848 12.8764C16.5163 12.5868 15.5161 12.4383 14.705 12.6905L14.4767 12.7615L14.3886 12.9839C12.7451 17.1348 13.5269 20.4463 13.9499 21.6781C13.0179 22.7263 12.296 23.7125 11.8042 24.8584C11.2755 26.0904 11.0273 27.4721 11.0273 29.2656C11.0273 35.4751 12.8543 38.968 15.7069 40.9735ZM11.3666 42.9428C11.3806 42.9188 11.3971 42.9003 11.4139 42.8861L11.3815 42.9508L11.375 42.9639L11.3638 42.9862L11.3504 42.9789C11.3531 42.9712 11.3562 42.9636 11.3596 42.9562C11.3607 42.9539 11.3618 42.9517 11.3629 42.9495C11.3641 42.9472 11.3653 42.9449 11.3666 42.9428ZM11.3375 43.0316L11.3402 43.0335L11.3364 43.0411C11.3367 43.0379 11.3371 43.0348 11.3375 43.0316Z" fill="#F5EBDC" stroke="black"/>
</svg>
