<svg width="63" height="60" viewBox="0 0 63 60" fill="none" xmlns="http://www.w3.org/2000/svg">
<path d="M60.7267 23.7042L60.7276 23.7064L60.8116 23.9225C60.8118 23.923 60.812 23.9235 60.8121 23.9239C61.9899 27.0105 62.1296 30.3987 61.1188 33.5723L61.1144 33.5859L61.1109 33.5998C60.3007 36.7581 58.3849 39.5477 55.7443 41.5399L55.7165 41.5609L55.6919 41.5855L55.6806 41.5968L42.7234 51.2995L42.7219 51.3007L36.3202 56.1323L36.3198 56.1326L32.46 59.0516C31.9975 59.2886 31.5619 59.5 31.1447 59.5C30.7276 59.5 30.2919 59.2886 29.8295 59.0516L25.9696 56.1326L25.9692 56.1323L19.5676 51.3007L19.5664 51.2997L6.66569 41.6242L6.65458 41.6159L6.64303 41.6082L6.61119 41.587L6.59725 41.573L6.56946 41.5521C3.93055 39.5611 2.00927 36.7565 1.08964 33.586C0.183441 30.4077 0.323614 27.0184 1.49742 23.935L1.5893 23.7282L1.59464 23.7162L1.59935 23.7039L10.0686 1.58173C10.2018 1.25058 10.4371 0.962853 10.7384 0.78023L10.7477 0.774639L10.7566 0.768656C10.9719 0.625157 11.2328 0.538443 11.5053 0.509112C11.7797 0.480873 12.0531 0.519087 12.2958 0.612406L12.2957 0.612442L12.3016 0.614608C12.5459 0.705106 12.7743 0.862787 12.9728 1.07006C13.1507 1.26803 13.2819 1.50294 13.3576 1.76789L13.3602 1.77698L13.3631 1.78597L19.0954 19.3114L19.2081 19.656H19.5706H42.7553H43.1181L43.2306 19.3111L48.9508 1.78567L48.9536 1.77683L48.9562 1.76789C49.0324 1.50124 49.1648 1.26502 49.3444 1.06625C49.5335 0.858273 49.758 0.708733 50.0122 0.614608C50.2737 0.51775 50.5376 0.481086 50.8094 0.509204C51.0904 0.538273 51.3396 0.623665 51.5571 0.768656L51.5661 0.77464L51.5753 0.78023C51.8767 0.962882 52.112 1.25067 52.2453 1.58188C52.2457 1.58292 52.2461 1.58395 52.2465 1.58498L60.7267 23.7042Z" fill="#F5EBDC" stroke="black"/>
</svg>
