<svg width="60" height="60" viewBox="0 0 60 60" fill="none" xmlns="http://www.w3.org/2000/svg">
<g filter="url(#filter0_d_22_46)">
<path d="M29.2117 0.209717L4.2903 29.951L11.4995 44.3694L25.9869 51.6476L55.7282 26.7262L29.2117 0.209717ZM41.662 30.3239L28.97 17.6319L25.8419 21.3262L37.9676 33.452L26.781 42.7604L18.1562 37.8645L18.1355 37.8852L18.0595 37.8093L13.1291 29.1086L17.9491 23.46L21.2429 26.7538L18.8537 29.6265L21.5467 34.3221L26.2562 37.029L30.9656 33.1482L19.4406 21.6232L28.6109 10.6851L45.2597 27.3339L41.662 30.3239Z" fill="#F5C07B"/>
<path d="M41.4852 30.5007L41.6464 30.6619L41.8218 30.5162L45.4195 27.5262L45.6303 27.3509L45.4365 27.1571L28.7877 10.5083L28.5947 10.3153L28.4193 10.5245L19.249 21.4626L19.1019 21.638L19.2638 21.8L30.5942 33.1303L26.2307 36.726L21.73 34.1391L19.1569 29.6528L21.4351 26.9137L21.581 26.7383L21.4197 26.5771L18.1258 23.2832L17.9345 23.0919L17.7589 23.2977L12.939 28.9463L12.8253 29.0795L12.9116 29.2318L17.842 37.9325L17.8588 37.9621L17.8828 37.9861L17.9587 38.062L18.1355 38.2388L18.1984 38.1759L26.6576 42.9778L26.808 43.0632L26.9409 42.9526L38.1275 33.6442L38.3381 33.469L38.1444 33.2752L26.1814 21.3122L28.9853 18.0007L41.4852 30.5007ZM4.58724 29.9859L29.2279 0.579544L55.3583 26.7099L25.9523 51.3504L11.6859 44.1833L4.58724 29.9859Z" stroke="black" stroke-width="0.5"/>
</g>
<defs>
<filter id="filter0_d_22_46" x="0.290283" y="0.209717" width="59.4379" height="59.4379" filterUnits="userSpaceOnUse" color-interpolation-filters="sRGB">
<feFlood flood-opacity="0" result="BackgroundImageFix"/>
<feColorMatrix in="SourceAlpha" type="matrix" values="0 0 0 0 0 0 0 0 0 0 0 0 0 0 0 0 0 0 127 0" result="hardAlpha"/>
<feOffset dy="4"/>
<feGaussianBlur stdDeviation="2"/>
<feComposite in2="hardAlpha" operator="out"/>
<feColorMatrix type="matrix" values="0 0 0 0 0 0 0 0 0 0 0 0 0 0 0 0 0 0 0.25 0"/>
<feBlend mode="normal" in2="BackgroundImageFix" result="effect1_dropShadow_22_46"/>
<feBlend mode="normal" in="SourceGraphic" in2="effect1_dropShadow_22_46" result="shape"/>
</filter>
</defs>
</svg>
