<svg width="67" height="67" viewBox="0 0 67 67" fill="none" xmlns="http://www.w3.org/2000/svg">
<path d="M33.5072 16.8313C24.2847 16.8313 16.8458 24.2702 16.8458 33.4928C16.8458 42.7153 24.2847 50.1542 33.5072 50.1542C42.7298 50.1542 50.1687 42.7153 50.1687 33.4928C50.1687 24.2702 42.7298 16.8313 33.5072 16.8313ZM33.5072 44.3249C27.5474 44.3249 22.6751 39.4671 22.6751 33.4928C22.6751 27.5184 27.5329 22.6606 33.5072 22.6606C39.4816 22.6606 44.3394 27.5184 44.3394 33.4928C44.3394 39.4671 39.4671 44.3249 33.5072 44.3249ZM54.7365 16.1497C54.7365 18.3104 52.9964 20.036 50.8503 20.036C48.6896 20.036 46.964 18.2959 46.964 16.1497C46.964 14.0036 48.7041 12.2635 50.8503 12.2635C52.9964 12.2635 54.7365 14.0036 54.7365 16.1497ZM65.7716 20.094C65.5251 14.8882 64.336 10.2769 60.5223 6.47769C56.7231 2.67847 52.1118 1.4894 46.906 1.22839C41.5407 0.923871 25.4593 0.923871 20.094 1.22839C14.9027 1.4749 10.2914 2.66397 6.47769 6.46319C2.66397 10.2624 1.4894 14.8737 1.22839 20.0795C0.923871 25.4448 0.923871 41.5262 1.22839 46.8915C1.4749 52.0973 2.66397 56.7086 6.47769 60.5078C10.2914 64.307 14.8882 65.4961 20.094 65.7571C25.4593 66.0616 41.5407 66.0616 46.906 65.7571C52.1118 65.5106 56.7231 64.3215 60.5223 60.5078C64.3215 56.7086 65.5106 52.0973 65.7716 46.8915C66.0761 41.5262 66.0761 25.4593 65.7716 20.094ZM58.8402 52.6484C57.7091 55.4905 55.5195 57.6801 52.6629 58.8257C48.3851 60.5223 38.2345 60.1308 33.5072 60.1308C28.78 60.1308 18.6149 60.5078 14.3516 58.8257C11.5095 57.6946 9.31985 55.505 8.17429 52.6484C6.47769 48.3706 6.86921 38.22 6.86921 33.4928C6.86921 28.7655 6.49219 18.6004 8.17429 14.3371C9.30535 11.495 11.495 9.30535 14.3516 8.15979C18.6294 6.46319 28.78 6.85471 33.5072 6.85471C38.2345 6.85471 48.3996 6.47769 52.6629 8.15979C55.505 9.29085 57.6946 11.4805 58.8402 14.3371C60.5368 18.6149 60.1453 28.7655 60.1453 33.4928C60.1453 38.22 60.5368 48.3851 58.8402 52.6484Z" fill="#F5EBDC" stroke="black"/>
</svg>
