<svg width="62" height="63" viewBox="0 0 62 63" fill="none" xmlns="http://www.w3.org/2000/svg">
<g clip-path="url(#clip0_22_43)">
<path d="M40.7829 29.4967C40.997 28.3573 41.5356 27.0177 41.5356 27.0177C41.5356 27.0177 39.3466 30.1734 36.909 33.053C33.9259 36.5747 30.4871 40.124 28.4983 41.6432C23.7958 45.2409 28.6986 37.2859 28.6986 37.2859C28.6986 37.2859 26.04 39.613 24.4449 44.1637C22.5736 49.5429 35.9768 37.7417 40.7829 29.4967ZM32.6692 33.1773C28.4086 31.5407 21.3927 33.3775 22.6012 23.1093C24.1134 10.2999 16.7662 10.2999 16.7662 10.2999C24.0858 14.6502 19.1485 23.1231 20.35 29.1722C21.1787 33.3016 26.2955 33.5018 32.6692 33.1773ZM28.4155 13.0965C28.4224 13.0896 19.3419 28.2192 31.7784 29.0962C35.4451 29.3517 35.0584 33.2739 35.0584 33.2739C35.0584 33.2739 37.1507 26.707 32.3653 25.899C27.8976 25.1464 25.1769 25.2706 28.4155 13.0965ZM46.6732 32.1967C46.7012 32.3002 46.7152 32.4071 46.7146 32.5144C53.2471 21.3277 44.1044 18.7037 41.363 24.4282C41.2182 24.7408 41.1724 25.0901 41.2318 25.4295C41.3895 25.0928 41.5743 24.7695 41.7842 24.4627C43.476 21.8732 49.8635 22.1149 46.6732 32.1967ZM54.2345 33.2394C54.2345 33.2394 56.0576 33.0599 54.6005 35.8013C51.8108 41.0079 39.5469 54.0038 34.5129 55.9856C32.7037 56.7038 34.3057 53.5687 34.8927 52.6641C35.5004 51.725 35.9768 51.3038 35.9768 51.3038C33.5876 51.7181 28.8505 62.3109 34.8582 57.9743C51.2514 46.1662 59.5447 31.23 54.2345 33.2394ZM35.9354 45.8209C32.0201 52.7746 43.8972 47.1675 47.854 37.2859C46.917 37.6986 45.9468 38.0312 44.9538 38.2803C42.454 41.9539 41.0661 43.4248 37.9448 45.9107C35.3692 47.9616 35.9354 45.8209 35.9354 45.8209ZM55.0632 40.1171C50.6507 46.5736 43.8282 53.1613 39.2016 56.4759C39.1947 56.469 40.6863 56.3309 45.1402 52.4155C51.9143 46.4562 61.057 36.043 58.2742 32.8044C58.2742 32.8044 58.9716 34.3857 55.0632 40.1171ZM42.3712 33.4466C39.0704 38.3217 36.6812 40.6696 33.3804 43.3488C30.8254 45.4204 31.219 42.7895 31.219 42.7895C27.2139 50.7721 38.7873 43.701 44.7121 32.8734C43.9795 33.2235 43.1826 33.4187 42.3712 33.4466Z" fill="#FFB858"/>
</g>
<defs>
<clipPath id="clip0_22_43">
<rect width="37.5" height="50" fill="white" transform="translate(0 27.066) rotate(-45)"/>
</clipPath>
</defs>
</svg>
