<svg width="51" height="58" viewBox="0 0 51 58" fill="none" xmlns="http://www.w3.org/2000/svg">
<g filter="url(#filter0_d_22_44)">
<path d="M28.7829 19.4967C28.997 18.3573 29.5356 17.0177 29.5356 17.0177C29.5356 17.0177 27.3466 20.1734 24.909 23.053C21.9259 26.5747 18.4871 30.124 16.4983 31.6432C11.7958 35.2409 16.6986 27.2859 16.6986 27.2859C16.6986 27.2859 14.04 29.613 12.4449 34.1637C10.5736 39.5429 23.9768 27.7417 28.7829 19.4967ZM20.6692 23.1773C16.4086 21.5407 9.39275 23.3775 10.6012 13.1093C12.1134 0.299871 4.76617 0.299871 4.76617 0.299871C12.0858 4.65024 7.14851 13.1231 8.35004 19.1722C9.17868 23.3016 14.2955 23.5018 20.6692 23.1773ZM16.4155 3.09654C16.4224 3.08963 7.34186 18.2192 19.7784 19.0962C23.4451 19.3517 23.0584 23.2739 23.0584 23.2739C23.0584 23.2739 25.1507 16.707 20.3653 15.899C15.8976 15.1464 13.1769 15.2706 16.4155 3.09654ZM34.6732 22.1967C34.7012 22.3002 34.7152 22.4071 34.7146 22.5144C41.2471 11.3277 32.1044 8.70367 29.363 14.4282C29.2182 14.7408 29.1724 15.0901 29.2318 15.4295C29.3895 15.0928 29.5743 14.7695 29.7842 14.4627C31.476 11.8732 37.8635 12.1149 34.6732 22.1967ZM42.2345 23.2394C42.2345 23.2394 44.0575 23.0599 42.6005 25.8013C39.8108 31.0079 27.5469 44.0038 22.5129 45.9856C20.7037 46.7038 22.3057 43.5687 22.8927 42.6641C23.5004 41.725 23.9768 41.3038 23.9768 41.3038C21.5876 41.7181 16.8505 52.3109 22.8582 47.9743C39.2514 36.1662 47.5447 21.23 42.2345 23.2394ZM23.9354 35.8209C20.0201 42.7746 31.8972 37.1675 35.854 27.2859C34.917 27.6986 33.9468 28.0312 32.9538 28.2803C30.454 31.9539 29.0661 33.4248 25.9448 35.9107C23.3692 37.9616 23.9354 35.8209 23.9354 35.8209ZM43.0632 30.1171C38.6507 36.5736 31.8282 43.1613 27.2016 46.4759C27.1947 46.469 28.6863 46.3309 33.1402 42.4155C39.9143 36.4562 49.057 26.043 46.2742 22.8044C46.2742 22.8044 46.9716 24.3857 43.0632 30.1171ZM30.3712 23.4466C27.0704 28.3217 24.6812 30.6696 21.3804 33.3488C18.8254 35.4204 19.219 32.7895 19.219 32.7895C15.2139 40.7721 26.7873 33.701 32.7121 22.8734C31.9795 23.2235 31.1826 23.4187 30.3712 23.4466Z" fill="#FFB858"/>
<path d="M42.8584 23.222C43.1734 23.176 43.3758 23.2348 43.4951 23.3493C43.5867 23.437 43.6513 23.5755 43.674 23.7805C43.6967 23.9859 43.6757 24.2473 43.606 24.5637C43.3259 25.8354 42.2896 27.8627 40.5621 30.3395C37.1134 35.284 30.9538 41.9581 22.7705 47.8526L22.7704 47.8527C22.0246 48.3911 21.4583 48.6879 21.0426 48.8054C20.6268 48.9229 20.3986 48.853 20.2722 48.7175C20.1342 48.5696 20.0662 48.2936 20.0918 47.8881C20.1168 47.4901 20.23 47.0016 20.4107 46.4688C20.7719 45.4041 21.3936 44.1892 22.0723 43.2165C22.4115 42.7302 22.7622 42.3085 23.0983 41.9973C23.1754 41.9259 23.2509 41.8611 23.3246 41.803C23.1615 42.0079 22.9713 42.2666 22.7667 42.5826M42.8584 23.222L22.7669 42.5825C22.7668 42.5825 22.7668 42.5826 22.7667 42.5826M42.8584 23.222C42.9341 23.2639 43.0082 23.3188 43.0744 23.3908C43.246 23.5777 43.3443 23.8574 43.3074 24.2582C43.2708 24.6548 43.1018 25.1777 42.733 25.8717L42.7327 25.8721C41.3271 28.4955 37.5505 33.059 33.5057 37.2075C31.4812 39.2838 29.3852 41.2606 27.4788 42.8433C25.5764 44.4227 23.8503 45.6203 22.5678 46.1252C22.332 46.2187 22.1302 46.2589 21.964 46.2346C21.7856 46.2085 21.6589 46.1092 21.5901 45.9594C21.5264 45.8207 21.5171 45.6496 21.5339 45.4744C21.5511 45.2962 21.5972 45.0965 21.6608 44.8894C21.914 44.0646 22.4688 43.0419 22.7667 42.5826M42.8584 23.222L22.7667 42.5826M15.2899 29.1084C15.5156 28.8078 15.7274 28.5466 15.917 28.3249C15.9031 28.3495 15.8892 28.3743 15.8751 28.3994C15.4882 29.0904 15.0188 29.9785 14.6964 30.7563C14.5356 31.1444 14.4085 31.5116 14.348 31.8163C14.3178 31.9686 14.3029 32.1115 14.3114 32.2369C14.3197 32.361 14.3521 32.4829 14.4309 32.5767C14.514 32.6755 14.6314 32.7229 14.7661 32.727C14.8958 32.7309 15.0452 32.6953 15.2127 32.6281C15.548 32.4936 15.9987 32.2143 16.5895 31.7623C18.5917 30.2328 22.0391 26.6731 25.0235 23.1499L25.0235 23.1499C26.2452 21.7068 27.4039 20.1951 28.2569 19.0449C28.5547 18.6433 28.8152 18.2857 29.0284 17.9902C28.8862 18.4278 28.7346 18.9516 28.6404 19.4434C26.2448 23.543 21.7146 28.5305 18.0102 31.8272C16.1518 33.4811 14.5165 34.6955 13.4711 35.1639C13.2106 35.2806 12.996 35.3466 12.8294 35.3651C12.6615 35.3837 12.5659 35.352 12.5125 35.3042C12.4598 35.2571 12.4141 35.1635 12.4172 34.9785C12.4203 34.7943 12.472 34.5424 12.5865 34.2133C13.3781 31.955 14.4333 30.249 15.2899 29.1084ZM10.4522 13.0917L10.4522 13.0917C10.1485 15.6728 10.3589 17.5126 10.9274 18.8431C11.4983 20.1791 12.4243 20.9878 13.5192 21.5153C14.608 22.0399 15.8661 22.2873 17.1026 22.5054C17.2211 22.5263 17.3394 22.5469 17.4573 22.5675C18.2875 22.7123 19.1001 22.8541 19.8512 23.0659C16.9902 23.1908 14.4366 23.1746 12.4654 22.6991C11.3896 22.4397 10.4976 22.0456 9.82562 21.4716C9.15633 20.8999 8.69793 20.1433 8.49712 19.1427C8.20144 17.6539 8.28241 16.0092 8.46168 14.2988C8.52002 13.7422 8.58894 13.1776 8.65825 12.6098C8.80087 11.4416 8.94513 10.2598 9.00222 9.10642C9.08726 7.38818 8.98123 5.70786 8.38491 4.17882C7.85064 2.80887 6.92604 1.56858 5.41027 0.532524C5.5412 0.559681 5.68812 0.595751 5.84733 0.643657C6.49425 0.838309 7.34285 1.22796 8.14624 2.00862C9.74844 3.5655 11.2052 6.71352 10.4522 13.0917ZM23.1664 22.1904C23.1252 21.8959 23.0543 21.5653 22.9347 21.2304C22.7474 20.7062 22.4391 20.167 21.9344 19.742C21.4283 19.3159 20.7339 19.0124 19.7889 18.9466C16.7122 18.7296 15.0021 17.6356 14.1369 16.1498C13.2658 14.654 13.2285 12.724 13.5834 10.792C13.9375 8.86366 14.6778 6.95841 15.3313 5.53275C15.562 5.02941 15.7816 4.58662 15.9689 4.22459C15.3492 6.69818 15.0027 8.61774 14.8885 10.1156C14.7571 11.8391 14.9316 13.0217 15.3678 13.8507C15.8079 14.6873 16.5032 15.1426 17.3594 15.435C18.0629 15.6753 18.8889 15.8097 19.7824 15.9551C19.9657 15.9849 20.1518 16.0152 20.3404 16.0469C21.4975 16.2423 22.2266 16.7817 22.6794 17.4743C23.1358 18.1724 23.3196 19.039 23.3565 19.8959C23.3931 20.744 23.2853 21.5706 23.1664 22.1904ZM23.7566 36.4856C23.7741 36.5667 23.8029 36.6462 23.8483 36.7164C23.9117 36.8143 24.0064 36.8924 24.1376 36.9283C24.265 36.9631 24.4143 36.9547 24.5852 36.9062C24.9239 36.8101 25.3905 36.5439 26.0383 36.0281L25.9448 35.9107L26.0383 36.028C29.1583 33.5431 30.5579 32.063 33.0457 28.4118C33.9085 28.1925 34.754 27.9106 35.5755 27.5684C33.5689 32.3132 29.7477 36.0251 26.866 37.7377C26.1294 38.1755 25.4595 38.4794 24.9017 38.6374C24.337 38.7974 23.9156 38.7998 23.654 38.6751C23.5281 38.6151 23.4365 38.5246 23.3784 38.3992C23.3192 38.2712 23.2909 38.0977 23.3106 37.8688C23.3405 37.5197 23.4798 37.0619 23.7566 36.4856ZM43.187 30.2018L43.1871 30.2016C45.1463 27.3286 45.9585 25.4853 46.2787 24.3523C46.3924 23.9498 46.4444 23.6357 46.4634 23.3961C46.7681 24.1281 46.6635 25.1296 46.2082 26.3442C45.6438 27.8497 44.5597 29.6281 43.1706 31.5003C40.3939 35.2427 36.4226 39.3282 33.0411 42.3029C30.8192 44.2561 29.3414 45.2626 28.4243 45.7808C28.3788 45.8065 28.3348 45.8309 28.2921 45.8543C32.8722 42.3521 39.073 36.2214 43.187 30.2018ZM27.2365 46.6215L27.2367 46.6214L27.2365 46.6215ZM32.3665 23.1865C29.4214 28.4069 25.196 32.702 22.1577 34.7611C21.3799 35.2882 20.6855 35.6649 20.1145 35.874C19.5341 36.0866 19.1176 36.1125 18.8686 35.9948C18.6458 35.8894 18.5026 35.6366 18.5552 35.1144C18.5965 34.7035 18.7586 34.1558 19.0684 33.4575C19.0901 33.6138 19.1323 33.7777 19.2104 33.9187C19.2764 34.0379 19.3709 34.1457 19.5044 34.2152C19.6385 34.2851 19.7991 34.3098 19.9854 34.284C20.3498 34.2335 20.8309 33.9875 21.4749 33.4653L21.4749 33.4653C24.7719 30.7891 27.1651 28.4393 30.4529 23.5934C31.1094 23.5625 31.7557 23.4248 32.3665 23.1865ZM29.3948 14.7973C29.4185 14.6927 29.4532 14.5904 29.4987 14.4921C30.8403 11.6918 33.7113 10.9822 35.4274 12.2502C36.2867 12.8852 36.8881 14.0327 36.8698 15.7249C36.853 17.2834 36.3095 19.2992 34.9586 21.7774C36.3656 17.0268 35.5968 14.4816 34.1461 13.4555C32.6581 12.4031 30.5458 13.0245 29.6595 14.3793C29.5664 14.5155 29.4781 14.6549 29.3948 14.7973Z" stroke="black" stroke-width="0.3"/>
</g>
<defs>
<filter id="filter0_d_22_44" x="0.766113" y="0.299866" width="50.0206" height="56.7151" filterUnits="userSpaceOnUse" color-interpolation-filters="sRGB">
<feFlood flood-opacity="0" result="BackgroundImageFix"/>
<feColorMatrix in="SourceAlpha" type="matrix" values="0 0 0 0 0 0 0 0 0 0 0 0 0 0 0 0 0 0 127 0" result="hardAlpha"/>
<feOffset dy="4"/>
<feGaussianBlur stdDeviation="2"/>
<feComposite in2="hardAlpha" operator="out"/>
<feColorMatrix type="matrix" values="0 0 0 0 0 0 0 0 0 0 0 0 0 0 0 0 0 0 0.25 0"/>
<feBlend mode="normal" in2="BackgroundImageFix" result="effect1_dropShadow_22_44"/>
<feBlend mode="normal" in="SourceGraphic" in2="effect1_dropShadow_22_44" result="shape"/>
</filter>
</defs>
</svg>
