<svg width="73" height="73" viewBox="0 0 73 73" fill="none" xmlns="http://www.w3.org/2000/svg">
<g filter="url(#filter0_d_261_18)">
<path d="M64.877 0H8.129C5.84989 0 4 1.84989 4 4.129V60.871C4 63.1501 5.84989 65 8.129 65H64.871C67.1501 65 69 63.1501 69 60.877V4.129C69 1.84989 67.1501 0 64.877 0ZM39.5952 49.8079C39.5952 55.9924 35.968 58.8095 30.6722 58.8095C25.8843 58.8095 22.4324 55.5994 21.0238 52.619L25.8903 49.6749C26.8274 51.3374 28.2541 52.619 30.3095 52.619C32.2743 52.619 33.4048 51.8513 33.4048 48.8649V29.4048H39.5952V49.8079ZM53.022 58.8095C47.5389 58.8095 44.4255 56.0468 42.6905 52.619L47.3333 49.5238C48.5968 51.5913 49.9752 53.5682 52.889 53.5682C55.3374 53.5682 56.619 52.347 56.619 50.6543C56.619 48.6351 55.2891 47.9157 52.5989 46.7369L51.1238 46.1021C46.8618 44.2885 44.0265 42.0154 44.0265 37.2033C44.0265 32.7781 47.4059 29.4048 52.6775 29.4048C56.4316 29.4048 59.1279 30.7106 61.0745 34.1323L56.48 37.0885C55.4644 35.2688 54.3762 34.5554 52.6775 34.5554C50.9485 34.5554 49.8543 35.6557 49.8543 37.0885C49.8543 38.8597 50.9485 39.5731 53.4815 40.6734L54.9566 41.3081C59.9803 43.4542 62.8095 45.6487 62.8095 50.5818C62.8095 55.8956 58.6322 58.8095 53.022 58.8095Z" fill="#F5C07B"/>
<path d="M20.8944 52.4051L20.7014 52.5219L20.7978 52.7259C22.2375 55.7721 25.7659 59.0595 30.6722 59.0595C33.3621 59.0595 35.6622 58.3438 37.291 56.8099C38.9226 55.2734 39.8452 52.9496 39.8452 49.8079V29.4048V29.1548H39.5952H33.4048H33.1548V29.4048V48.8649C33.1548 50.3372 32.874 51.196 32.4113 51.6912C31.9539 52.1806 31.267 52.369 30.3095 52.369C28.3787 52.369 27.0208 51.1714 26.1081 49.5522L25.9815 49.3276L25.7609 49.461L20.8944 52.4051ZM42.5518 52.411L42.3673 52.5341L42.4674 52.732C43.3498 54.4752 44.588 56.0596 46.3121 57.2078C48.0379 58.357 50.2363 59.0595 53.022 59.0595C55.8674 59.0595 58.3743 58.3208 60.1755 56.8838C61.9833 55.4414 63.0595 53.3112 63.0595 50.5818C63.0595 48.0601 62.3335 46.2148 60.9499 44.7295C59.5772 43.2557 57.5729 42.154 55.0548 41.0782L53.5811 40.4441C52.3106 39.8922 51.4415 39.4531 50.8863 38.9477C50.3516 38.4609 50.1043 37.9085 50.1043 37.0885C50.1043 36.4382 50.3513 35.8725 50.7875 35.468C51.2244 35.0627 51.8666 34.8054 52.6775 34.8054C53.4894 34.8054 54.1351 34.9751 54.6966 35.3479C55.2625 35.7235 55.7645 36.3195 56.2617 37.2103L56.3914 37.4427L56.6153 37.2987L61.2098 34.3425L61.4089 34.2144L61.2918 34.0086C60.2999 32.2652 59.1081 31.0461 57.6733 30.2658C56.24 29.4862 54.5832 29.1548 52.6775 29.1548C49.9878 29.1548 47.7614 30.0161 46.205 31.4614C44.6479 32.9074 43.7765 34.9245 43.7765 37.2033C43.7765 39.6648 44.5041 41.4968 45.7901 42.9433C47.0683 44.381 48.883 45.4203 51.0256 46.332C51.0257 46.3321 51.0258 46.3321 51.0259 46.3322L52.4985 46.9659C52.4986 46.9659 52.4988 46.966 52.4989 46.966C53.8515 47.5587 54.8192 48.0192 55.454 48.5694C56.0667 49.1004 56.369 49.7155 56.369 50.6543C56.369 51.4328 56.0769 52.088 55.5131 52.5532C54.9442 53.0226 54.0742 53.3182 52.889 53.3182C50.1255 53.3182 48.8125 51.4647 47.5467 49.3934L47.411 49.1715L47.1947 49.3158L42.5518 52.411ZM8.129 0.25H64.877C67.0118 0.25 68.75 1.98772 68.75 4.129V60.877C68.75 63.0118 67.0123 64.75 64.871 64.75H8.129C5.98796 64.75 4.25 63.012 4.25 60.871V4.129C4.25 1.98796 5.98796 0.25 8.129 0.25Z" stroke="black" stroke-width="0.5"/>
</g>
<defs>
<filter id="filter0_d_261_18" x="0" y="0" width="73" height="73" filterUnits="userSpaceOnUse" color-interpolation-filters="sRGB">
<feFlood flood-opacity="0" result="BackgroundImageFix"/>
<feColorMatrix in="SourceAlpha" type="matrix" values="0 0 0 0 0 0 0 0 0 0 0 0 0 0 0 0 0 0 127 0" result="hardAlpha"/>
<feOffset dy="4"/>
<feGaussianBlur stdDeviation="2"/>
<feComposite in2="hardAlpha" operator="out"/>
<feColorMatrix type="matrix" values="0 0 0 0 0 0 0 0 0 0 0 0 0 0 0 0 0 0 0.25 0"/>
<feBlend mode="normal" in2="BackgroundImageFix" result="effect1_dropShadow_261_18"/>
<feBlend mode="normal" in="SourceGraphic" in2="effect1_dropShadow_261_18" result="shape"/>
</filter>
</defs>
</svg>
