<svg width="498" height="512" viewBox="0 0 498 512" fill="none" xmlns="http://www.w3.org/2000/svg">
    <mask id="path-1-inside-1_447_3" fill="white">
    <path d="M497.2 115.8C497.1 115.6 497 115.3 496.9 115.1C496.8 114.7 496.6 114.3 496.4 113.9C496.2 113.7 496.1 113.4 495.9 113.2C495.7 112.9 495.4 112.6 495.2 112.3C495 112.1 494.7 111.9 494.4 111.7C494.1 111.5 493.8 111.2 493.5 111L397.2 55.5C396 54.8 394.6 54.4 393.2 54.4C391.8 54.4 390.4 54.8 389.2 55.5L292.9 111C292.6 111.2 292.3 111.4 292 111.7C291.7 111.9 291.5 112.1 291.2 112.3C290.9 112.6 290.7 112.9 290.5 113.2C290.3 113.4 290.1 113.6 290 113.9C289.8 114.3 289.6 114.7 289.5 115.1C289.4 115.3 289.3 115.5 289.2 115.8C289 116.5 288.9 117.2 288.9 117.9V223.1L208.7 269.3V63.4C208.7 62.7 208.6 62 208.4 61.3C208.3 61.1 208.2 60.9 208.1 60.6C208 60.2 207.8 59.8 207.6 59.4C207.5 59.1 207.2 58.9 207.1 58.7C206.9 58.4 206.6 58.1 206.4 57.8C206.2 57.6 205.9 57.4 205.6 57.2C205.3 57 205 56.7 204.7 56.5L108.4 1.1C107.2 0.399998 105.8 0 104.4 0C103 0 101.6 0.399998 100.4 1.1L4.1 56.5C3.8 56.7 3.5 56.9 3.2 57.2C2.9 57.4 2.7 57.6 2.4 57.8C2.1 58.1 1.9 58.4 1.7 58.7C1.5 59 1.3 59.2 1.1 59.4C0.899998 59.8 0.699998 60.2 0.599998 60.6C0.499998 60.8 0.399995 61 0.299995 61.3C0.0999954 62 0 62.7 0 63.4V393.1C0 394.5 0.399998 395.9 1.1 397.1C1.8 398.3 2.8 399.3 4 400L196.6 510.9C197 511.1 197.5 511.3 197.9 511.4C198.1 511.5 198.3 511.6 198.5 511.7C199.8 512.1 201.3 512.1 202.6 511.7C202.8 511.6 203 511.5 203.2 511.5C203.7 511.3 204.2 511.2 204.6 510.9L397.2 400.1C398.4 399.4 399.4 398.4 400.1 397.2C400.8 396 401.2 394.6 401.2 393.2V287.9L493.4 234.8C494.6 234.1 495.6 233.1 496.3 231.8C497 230.5 497.4 229.2 497.4 227.8V118C497.4 117.3 497.3 116.6 497.2 115.9V115.8ZM104.4 17.3L184.6 63.4L104.4 109.6L24.2 63.4L104.4 17.2V17.3ZM192.6 77.3V278.6C159.4 297.7 132.7 313.1 112.4 324.8V123.5C145.6 104.4 172.3 89 192.6 77.3ZM192.6 490.1L16.1 388.5V77.3C36.4 89 63.2 104.4 96.3 123.5V338.7C96.3 339 96.4 339.3 96.4 339.6C96.4 340 96.5 340.4 96.6 340.8C96.7 341.1 96.8 341.4 97 341.7C97.1 342 97.3 342.4 97.4 342.7C97.6 343 97.8 343.2 98 343.5C98.2 343.8 98.4 344.1 98.7 344.3C98.9 344.5 99.2 344.7 99.5 344.9C99.8 345.1 100.1 345.4 100.4 345.6L192.6 397.8L192.7 490.2L192.6 490.1ZM200.6 383.9L120.6 338.6C175.3 307.1 234.1 273.3 296.9 237.1L377 283.2C347.6 300 288.8 333.5 200.6 383.9ZM385.1 388.5L208.6 490.1V397.8C310 340 368.8 306.4 385.1 297V388.4V388.5ZM385.1 269.4C364.8 257.8 338 242.4 304.9 223.3V131.9C325.2 143.6 352 159 385.1 178.1V269.4ZM393.1 164.1L312.9 117.9L393.1 71.7L473.3 117.8L393.1 164V164.1ZM401.1 269.4V178.1C434.3 159 461.1 143.6 481.4 131.9V223.3L401.1 269.5V269.4Z"/>
    <path d="M192.6 77.3V278.6C159.4 297.7 132.7 313.1 112.4 324.8V123.5C145.6 104.4 172.3 89 192.6 77.3Z"/>
    <path d="M104.4 17.3L184.6 63.4L104.4 109.6L24.2 63.4L104.4 17.2V17.3Z"/>
    <path d="M192.6 490.1L16.1 388.5V77.3C36.4 89 63.2 104.4 96.3 123.5V338.7C96.3 339 96.4 339.3 96.4 339.6C96.4 340 96.5 340.4 96.6 340.8C96.7 341.1 96.8 341.4 97 341.7C97.1 342 97.3 342.4 97.4 342.7C97.6 343 97.8 343.2 98 343.5C98.2 343.8 98.4 344.1 98.7 344.3C98.9 344.5 99.2 344.7 99.5 344.9C99.8 345.1 100.1 345.4 100.4 345.6L192.6 397.8L192.7 490.2L192.6 490.1Z"/>
    <path d="M393.1 164.1L312.9 117.9L393.1 71.7L473.3 117.8L393.1 164V164.1Z"/>
    <path d="M385.1 388.5L208.6 490.1V397.8C310 340 368.8 306.4 385.1 297V388.4V388.5Z"/>
    <path d="M200.6 383.9L120.6 338.6C175.3 307.1 234.1 273.3 296.9 237.1L377 283.2C347.6 300 288.8 333.5 200.6 383.9Z"/>
    <path d="M385.1 269.4C364.8 257.8 338 242.4 304.9 223.3V131.9C325.2 143.6 352 159 385.1 178.1V269.4Z"/>
    <path d="M401.1 269.4V178.1C434.3 159 461.1 143.6 481.4 131.9V223.3L401.1 269.5V269.4Z"/>
    </mask>
    <path d="M497.2 115.8C497.1 115.6 497 115.3 496.9 115.1C496.8 114.7 496.6 114.3 496.4 113.9C496.2 113.7 496.1 113.4 495.9 113.2C495.7 112.9 495.4 112.6 495.2 112.3C495 112.1 494.7 111.9 494.4 111.7C494.1 111.5 493.8 111.2 493.5 111L397.2 55.5C396 54.8 394.6 54.4 393.2 54.4C391.8 54.4 390.4 54.8 389.2 55.5L292.9 111C292.6 111.2 292.3 111.4 292 111.7C291.7 111.9 291.5 112.1 291.2 112.3C290.9 112.6 290.7 112.9 290.5 113.2C290.3 113.4 290.1 113.6 290 113.9C289.8 114.3 289.6 114.7 289.5 115.1C289.4 115.3 289.3 115.5 289.2 115.8C289 116.5 288.9 117.2 288.9 117.9V223.1L208.7 269.3V63.4C208.7 62.7 208.6 62 208.4 61.3C208.3 61.1 208.2 60.9 208.1 60.6C208 60.2 207.8 59.8 207.6 59.4C207.5 59.1 207.2 58.9 207.1 58.7C206.9 58.4 206.6 58.1 206.4 57.8C206.2 57.6 205.9 57.4 205.6 57.2C205.3 57 205 56.7 204.7 56.5L108.4 1.1C107.2 0.399998 105.8 0 104.4 0C103 0 101.6 0.399998 100.4 1.1L4.1 56.5C3.8 56.7 3.5 56.9 3.2 57.2C2.9 57.4 2.7 57.6 2.4 57.8C2.1 58.1 1.9 58.4 1.7 58.7C1.5 59 1.3 59.2 1.1 59.4C0.899998 59.8 0.699998 60.2 0.599998 60.6C0.499998 60.8 0.399995 61 0.299995 61.3C0.0999954 62 0 62.7 0 63.4V393.1C0 394.5 0.399998 395.9 1.1 397.1C1.8 398.3 2.8 399.3 4 400L196.6 510.9C197 511.1 197.5 511.3 197.9 511.4C198.1 511.5 198.3 511.6 198.5 511.7C199.8 512.1 201.3 512.1 202.6 511.7C202.8 511.6 203 511.5 203.2 511.5C203.7 511.3 204.2 511.2 204.6 510.9L397.2 400.1C398.4 399.4 399.4 398.4 400.1 397.2C400.8 396 401.2 394.6 401.2 393.2V287.9L493.4 234.8C494.6 234.1 495.6 233.1 496.3 231.8C497 230.5 497.4 229.2 497.4 227.8V118C497.4 117.3 497.3 116.6 497.2 115.9V115.8ZM104.4 17.3L184.6 63.4L104.4 109.6L24.2 63.4L104.4 17.2V17.3ZM192.6 77.3V278.6C159.4 297.7 132.7 313.1 112.4 324.8V123.5C145.6 104.4 172.3 89 192.6 77.3ZM192.6 490.1L16.1 388.5V77.3C36.4 89 63.2 104.4 96.3 123.5V338.7C96.3 339 96.4 339.3 96.4 339.6C96.4 340 96.5 340.4 96.6 340.8C96.7 341.1 96.8 341.4 97 341.7C97.1 342 97.3 342.4 97.4 342.7C97.6 343 97.8 343.2 98 343.5C98.2 343.8 98.4 344.1 98.7 344.3C98.9 344.5 99.2 344.7 99.5 344.9C99.8 345.1 100.1 345.4 100.4 345.6L192.6 397.8L192.7 490.2L192.6 490.1ZM200.6 383.9L120.6 338.6C175.3 307.1 234.1 273.3 296.9 237.1L377 283.2C347.6 300 288.8 333.5 200.6 383.9ZM385.1 388.5L208.6 490.1V397.8C310 340 368.8 306.4 385.1 297V388.4V388.5ZM385.1 269.4C364.8 257.8 338 242.4 304.9 223.3V131.9C325.2 143.6 352 159 385.1 178.1V269.4ZM393.1 164.1L312.9 117.9L393.1 71.7L473.3 117.8L393.1 164V164.1ZM401.1 269.4V178.1C434.3 159 461.1 143.6 481.4 131.9V223.3L401.1 269.5V269.4Z" fill="#F5C07B"/>
    <path d="M192.6 77.3V278.6C159.4 297.7 132.7 313.1 112.4 324.8V123.5C145.6 104.4 172.3 89 192.6 77.3Z" fill="#F5C07B"/>
    <path d="M104.4 17.3L184.6 63.4L104.4 109.6L24.2 63.4L104.4 17.2V17.3Z" fill="#F5C07B"/>
    <path d="M192.6 490.1L16.1 388.5V77.3C36.4 89 63.2 104.4 96.3 123.5V338.7C96.3 339 96.4 339.3 96.4 339.6C96.4 340 96.5 340.4 96.6 340.8C96.7 341.1 96.8 341.4 97 341.7C97.1 342 97.3 342.4 97.4 342.7C97.6 343 97.8 343.2 98 343.5C98.2 343.8 98.4 344.1 98.7 344.3C98.9 344.5 99.2 344.7 99.5 344.9C99.8 345.1 100.1 345.4 100.4 345.6L192.6 397.8L192.7 490.2L192.6 490.1Z" fill="#F5C07B"/>
    <path d="M393.1 164.1L312.9 117.9L393.1 71.7L473.3 117.8L393.1 164V164.1Z" fill="#F5C07B"/>
    <path d="M385.1 388.5L208.6 490.1V397.8C310 340 368.8 306.4 385.1 297V388.4V388.5Z" fill="black"/>
    <path d="M385.1 388.5L208.6 490.1V397.8C310 340 368.8 306.4 385.1 297V388.4V388.5Z" fill="#F5C07B"/>
    <path d="M200.6 383.9L120.6 338.6C175.3 307.1 234.1 273.3 296.9 237.1L377 283.2C347.6 300 288.8 333.5 200.6 383.9Z" fill="#F5C07B"/>
    <path d="M385.1 269.4C364.8 257.8 338 242.4 304.9 223.3V131.9C325.2 143.6 352 159 385.1 178.1V269.4Z" fill="#F5C07B"/>
    <path d="M401.1 269.4V178.1C434.3 159 461.1 143.6 481.4 131.9V223.3L401.1 269.5V269.4Z" fill="#F5C07B"/>
    <path d="M497.2 115.8C497.1 115.6 497 115.3 496.9 115.1C496.8 114.7 496.6 114.3 496.4 113.9C496.2 113.7 496.1 113.4 495.9 113.2C495.7 112.9 495.4 112.6 495.2 112.3C495 112.1 494.7 111.9 494.4 111.7C494.1 111.5 493.8 111.2 493.5 111L397.2 55.5C396 54.8 394.6 54.4 393.2 54.4C391.8 54.4 390.4 54.8 389.2 55.5L292.9 111C292.6 111.2 292.3 111.4 292 111.7C291.7 111.9 291.5 112.1 291.2 112.3C290.9 112.6 290.7 112.9 290.5 113.2C290.3 113.4 290.1 113.6 290 113.9C289.8 114.3 289.6 114.7 289.5 115.1C289.4 115.3 289.3 115.5 289.2 115.8C289 116.5 288.9 117.2 288.9 117.9V223.1L208.7 269.3V63.4C208.7 62.7 208.6 62 208.4 61.3C208.3 61.1 208.2 60.9 208.1 60.6C208 60.2 207.8 59.8 207.6 59.4C207.5 59.1 207.2 58.9 207.1 58.7C206.9 58.4 206.6 58.1 206.4 57.8C206.2 57.6 205.9 57.4 205.6 57.2C205.3 57 205 56.7 204.7 56.5L108.4 1.1C107.2 0.399998 105.8 0 104.4 0C103 0 101.6 0.399998 100.4 1.1L4.1 56.5C3.8 56.7 3.5 56.9 3.2 57.2C2.9 57.4 2.7 57.6 2.4 57.8C2.1 58.1 1.9 58.4 1.7 58.7C1.5 59 1.3 59.2 1.1 59.4C0.899998 59.8 0.699998 60.2 0.599998 60.6C0.499998 60.8 0.399995 61 0.299995 61.3C0.0999954 62 0 62.7 0 63.4V393.1C0 394.5 0.399998 395.9 1.1 397.1C1.8 398.3 2.8 399.3 4 400L196.6 510.9C197 511.1 197.5 511.3 197.9 511.4C198.1 511.5 198.3 511.6 198.5 511.7C199.8 512.1 201.3 512.1 202.6 511.7C202.8 511.6 203 511.5 203.2 511.5C203.7 511.3 204.2 511.2 204.6 510.9L397.2 400.1C398.4 399.4 399.4 398.4 400.1 397.2C400.8 396 401.2 394.6 401.2 393.2V287.9L493.4 234.8C494.6 234.1 495.6 233.1 496.3 231.8C497 230.5 497.4 229.2 497.4 227.8V118C497.4 117.3 497.3 116.6 497.2 115.9V115.8ZM104.4 17.3L184.6 63.4L104.4 109.6L24.2 63.4L104.4 17.2V17.3ZM192.6 77.3V278.6C159.4 297.7 132.7 313.1 112.4 324.8V123.5C145.6 104.4 172.3 89 192.6 77.3ZM192.6 490.1L16.1 388.5V77.3C36.4 89 63.2 104.4 96.3 123.5V338.7C96.3 339 96.4 339.3 96.4 339.6C96.4 340 96.5 340.4 96.6 340.8C96.7 341.1 96.8 341.4 97 341.7C97.1 342 97.3 342.4 97.4 342.7C97.6 343 97.8 343.2 98 343.5C98.2 343.8 98.4 344.1 98.7 344.3C98.9 344.5 99.2 344.7 99.5 344.9C99.8 345.1 100.1 345.4 100.4 345.6L192.6 397.8L192.7 490.2L192.6 490.1ZM200.6 383.9L120.6 338.6C175.3 307.1 234.1 273.3 296.9 237.1L377 283.2C347.6 300 288.8 333.5 200.6 383.9ZM385.1 388.5L208.6 490.1V397.8C310 340 368.8 306.4 385.1 297V388.4V388.5ZM385.1 269.4C364.8 257.8 338 242.4 304.9 223.3V131.9C325.2 143.6 352 159 385.1 178.1V269.4ZM393.1 164.1L312.9 117.9L393.1 71.7L473.3 117.8L393.1 164V164.1ZM401.1 269.4V178.1C434.3 159 461.1 143.6 481.4 131.9V223.3L401.1 269.5V269.4Z" stroke="black" stroke-width="2" mask="url(#path-1-inside-1_447_3)"/>
    <path d="M192.6 77.3V278.6C159.4 297.7 132.7 313.1 112.4 324.8V123.5C145.6 104.4 172.3 89 192.6 77.3Z" stroke="black" stroke-width="2" mask="url(#path-1-inside-1_447_3)"/>
    <path d="M104.4 17.3L184.6 63.4L104.4 109.6L24.2 63.4L104.4 17.2V17.3Z" stroke="black" stroke-width="2" mask="url(#path-1-inside-1_447_3)"/>
    <path d="M192.6 490.1L16.1 388.5V77.3C36.4 89 63.2 104.4 96.3 123.5V338.7C96.3 339 96.4 339.3 96.4 339.6C96.4 340 96.5 340.4 96.6 340.8C96.7 341.1 96.8 341.4 97 341.7C97.1 342 97.3 342.4 97.4 342.7C97.6 343 97.8 343.2 98 343.5C98.2 343.8 98.4 344.1 98.7 344.3C98.9 344.5 99.2 344.7 99.5 344.9C99.8 345.1 100.1 345.4 100.4 345.6L192.6 397.8L192.7 490.2L192.6 490.1Z" stroke="black" stroke-width="2" mask="url(#path-1-inside-1_447_3)"/>
    <path d="M393.1 164.1L312.9 117.9L393.1 71.7L473.3 117.8L393.1 164V164.1Z" stroke="black" stroke-width="2" mask="url(#path-1-inside-1_447_3)"/>
    <path d="M385.1 388.5L208.6 490.1V397.8C310 340 368.8 306.4 385.1 297V388.4V388.5Z" stroke="black" stroke-width="2" mask="url(#path-1-inside-1_447_3)"/>
    <path d="M200.6 383.9L120.6 338.6C175.3 307.1 234.1 273.3 296.9 237.1L377 283.2C347.6 300 288.8 333.5 200.6 383.9Z" stroke="black" stroke-width="2" mask="url(#path-1-inside-1_447_3)"/>
    <path d="M385.1 269.4C364.8 257.8 338 242.4 304.9 223.3V131.9C325.2 143.6 352 159 385.1 178.1V269.4Z" stroke="black" stroke-width="2" mask="url(#path-1-inside-1_447_3)"/>
    <path d="M401.1 269.4V178.1C434.3 159 461.1 143.6 481.4 131.9V223.3L401.1 269.5V269.4Z" stroke="black" stroke-width="2" mask="url(#path-1-inside-1_447_3)"/>
</svg>
    