<svg width="65" height="65" viewBox="0 0 65 65" fill="none" xmlns="http://www.w3.org/2000/svg">
<path d="M9.51116 55.7143V56.2143H10.0112H19.6451H19.6596H20.1596V55.7143V24.6942V24.1942H19.6596H10.0112H9.51116V24.6942V55.7143ZM55.7578 56.2143H56.2578V55.7143V38.7098C56.2578 34.5199 55.8087 30.6974 54.0552 27.9169C52.2684 25.0836 49.1927 23.4252 44.1942 23.4252C40.0985 23.4252 37.1059 25.3116 35.4375 27.4512V24.6942V24.1942H34.9375H25.6953H25.1953V24.6942V55.7143V56.2143H25.6953H35.3292H35.8292V55.7143V40.3638C35.8292 38.3491 36.0253 36.4703 36.779 35.1047C37.1493 34.4337 37.6525 33.8906 38.338 33.5113C39.0264 33.1304 39.9282 32.8984 41.1183 32.8984C42.2714 32.8984 43.0951 33.1678 43.6949 33.5875C44.2959 34.008 44.7149 34.6093 45.006 35.3461C45.5994 36.8483 45.6239 38.8041 45.6239 40.625V55.7143V56.2143H46.1239H55.7578ZM4.62835 0.5H60.3571C62.6305 0.5 64.5 2.37588 64.5 4.68638V60.3136C64.5 62.6241 62.6305 64.5 60.3571 64.5H4.62835C2.35698 64.5 0.5 62.6262 0.5 60.3136V4.68638C0.5 2.37384 2.35698 0.5 4.62835 0.5ZM8.74219 14.8717C8.74219 18.2228 11.4607 20.9576 14.8281 20.9576C18.1947 20.9576 20.9141 18.2382 20.9141 14.8717C20.9141 11.5196 18.1802 8.78571 14.8281 8.78571C11.4607 8.78571 8.74219 11.5205 8.74219 14.8717Z" fill="#F5EBDC" stroke="black"/>
</svg>
