<svg width="212" height="48" stroke="black" viewBox="0 0 212 48" fill="none" xmlns="http://www.w3.org/2000/svg">
<g filter="url(#filter0_d_1_16)">
<path d="M30.656 16.152C30.656 18.104 30.208 19.896 29.312 21.528C28.416 23.128 27.04 24.424 25.184 25.416C23.328 26.408 21.024 26.904 18.272 26.904H13.184V39H4.976V5.304H18.272C20.96 5.304 23.232 5.768 25.088 6.696C26.944 7.624 28.336 8.904 29.264 10.536C30.192 12.168 30.656 14.04 30.656 16.152ZM17.648 20.376C19.216 20.376 20.384 20.008 21.152 19.272C21.92 18.536 22.304 17.496 22.304 16.152C22.304 14.808 21.92 13.768 21.152 13.032C20.384 12.296 19.216 11.928 17.648 11.928H13.184V20.376H17.648ZM73.6528 16.68C74.6128 15.208 75.8128 14.056 77.2528 13.224C78.6928 12.36 80.2928 11.928 82.0528 11.928V20.616H79.7968C77.7488 20.616 76.2128 21.064 75.1888 21.96C74.1648 22.824 73.6528 24.36 73.6528 26.568V39H65.4448V12.216H73.6528V16.68ZM100.904 32.04V39H96.728C93.752 39 91.432 38.28 89.768 36.84C88.104 35.368 87.272 32.984 87.272 29.688V19.032H84.008V12.216H87.272V5.688H95.48V12.216H100.856V19.032H95.48V29.784C95.48 30.584 95.672 31.16 96.056 31.512C96.44 31.864 97.08 32.04 97.976 32.04H100.904ZM118.916 19.032H114.5V39H106.292V19.032H103.316V12.216H106.292V11.448C106.292 8.152 107.236 5.656 109.124 3.96C111.012 2.232 113.78 1.368 117.428 1.368C118.036 1.368 118.484 1.384 118.772 1.416V8.376C117.204 8.28 116.1 8.504 115.46 9.048C114.82 9.592 114.5 10.568 114.5 11.976V12.216H118.916V19.032ZM134.965 39.384C132.341 39.384 129.973 38.824 127.861 37.704C125.781 36.584 124.133 34.984 122.917 32.904C121.733 30.824 121.141 28.392 121.141 25.608C121.141 22.856 121.749 20.44 122.965 18.36C124.181 16.248 125.845 14.632 127.957 13.512C130.069 12.392 132.437 11.832 135.061 11.832C137.685 11.832 140.053 12.392 142.165 13.512C144.277 14.632 145.941 16.248 147.157 18.36C148.373 20.44 148.981 22.856 148.981 25.608C148.981 28.36 148.357 30.792 147.109 32.904C145.893 34.984 144.213 36.584 142.069 37.704C139.957 38.824 137.589 39.384 134.965 39.384ZM134.965 32.28C136.533 32.28 137.861 31.704 138.949 30.552C140.069 29.4 140.629 27.752 140.629 25.608C140.629 23.464 140.085 21.816 138.997 20.664C137.941 19.512 136.629 18.936 135.061 18.936C133.461 18.936 132.133 19.512 131.077 20.664C130.021 21.784 129.493 23.432 129.493 25.608C129.493 27.752 130.005 29.4 131.029 30.552C132.085 31.704 133.397 32.28 134.965 32.28ZM161.543 3.48V39H153.335V3.48H161.543ZM171.62 9.432C170.18 9.432 168.996 9.016 168.068 8.184C167.172 7.32 166.724 6.264 166.724 5.016C166.724 3.736 167.172 2.68 168.068 1.848C168.996 0.983997 170.18 0.551997 171.62 0.551997C173.028 0.551997 174.18 0.983997 175.076 1.848C176.004 2.68 176.468 3.736 176.468 5.016C176.468 6.264 176.004 7.32 175.076 8.184C174.18 9.016 173.028 9.432 171.62 9.432ZM175.7 12.216V39H167.492V12.216H175.7ZM193.84 39.384C191.216 39.384 188.848 38.824 186.736 37.704C184.656 36.584 183.008 34.984 181.792 32.904C180.608 30.824 180.016 28.392 180.016 25.608C180.016 22.856 180.624 20.44 181.84 18.36C183.056 16.248 184.72 14.632 186.832 13.512C188.944 12.392 191.312 11.832 193.936 11.832C196.56 11.832 198.928 12.392 201.04 13.512C203.152 14.632 204.816 16.248 206.032 18.36C207.248 20.44 207.856 22.856 207.856 25.608C207.856 28.36 207.232 30.792 205.984 32.904C204.768 34.984 203.088 36.584 200.944 37.704C198.832 38.824 196.464 39.384 193.84 39.384ZM193.84 32.28C195.408 32.28 196.736 31.704 197.824 30.552C198.944 29.4 199.504 27.752 199.504 25.608C199.504 23.464 198.96 21.816 197.872 20.664C196.816 19.512 195.504 18.936 193.936 18.936C192.336 18.936 191.008 19.512 189.952 20.664C188.896 21.784 188.368 23.432 188.368 25.608C188.368 27.752 188.88 29.4 189.904 30.552C190.96 31.704 192.272 32.28 193.84 32.28Z" fill="#FFF"/>
</g>
<g filter="url(#filter1_d_1_16)">
<path d="M59.1244 18C60.6967 20.7234 61.3064 23.8968 60.8551 27.0089C60.4039 30.121 58.918 32.9906 56.637 35.1552C54.3559 37.3199 51.4125 38.6535 48.281 38.9413C45.1495 39.229 42.0124 38.4541 39.3751 36.7414C36.7377 35.0287 34.7538 32.4779 33.743 29.5002C32.7322 26.5224 32.7533 23.291 33.803 20.3267C34.8527 17.3624 36.8699 14.8378 39.5294 13.1598C42.1889 11.4818 45.336 10.748 48.4634 11.0767L47.439 20.823C46.5008 20.7244 45.5567 20.9445 44.7588 21.4479C43.961 21.9514 43.3558 22.7087 43.0409 23.598C42.726 24.4873 42.7196 25.4567 43.0229 26.35C43.3261 27.2434 43.9213 28.0086 44.7125 28.5224C45.5037 29.0362 46.4449 29.2687 47.3843 29.1824C48.3237 29.0961 49.2068 28.696 49.8911 28.0466C50.5754 27.3972 51.0212 26.5363 51.1565 25.6027C51.2919 24.669 51.109 23.717 50.6373 22.9L59.1244 18Z" fill="#FFF"/>
</g>
</svg>
