<svg width="28" height="28" viewBox="0 0 28 28" fill="none" xmlns="http://www.w3.org/2000/svg">
<path d="M26.1244 7C27.6967 9.72336 28.3064 12.8968 27.8551 16.0089C27.4039 19.121 25.918 21.9906 23.637 24.1552C21.3559 26.3199 18.4125 27.6535 15.281 27.9413C12.1495 28.229 9.01239 27.4541 6.37505 25.7414C3.73771 24.0287 1.7538 21.4779 0.742977 18.5002C-0.267841 15.5224 -0.246691 12.291 0.80302 9.3267C1.85273 6.36241 3.86987 3.83785 6.5294 2.15981C9.18893 0.481771 12.336 -0.252014 15.4634 0.0766936L14.439 9.82301C13.5008 9.7244 12.5567 9.94453 11.7588 10.4479C10.961 10.9514 10.3558 11.7087 10.0409 12.598C9.72599 13.4873 9.71965 14.4567 10.0229 15.35C10.3261 16.2434 10.9213 17.0086 11.7125 17.5224C12.5037 18.0362 13.4449 18.2687 14.3843 18.1824C15.3237 18.0961 16.2068 17.696 16.8911 17.0466C17.5754 16.3972 18.0212 15.5363 18.1565 14.6027C18.2919 13.669 18.109 12.717 17.6373 11.9L26.1244 7Z" fill="#F5EBDC"/>
</svg>
