<svg width="53" height="53" viewBox="0 0 53 53" fill="none" xmlns="http://www.w3.org/2000/svg">
<g filter="url(#filter0_d_43_85)">
<path d="M45.9856 11.25C48.5125 15.6268 49.4924 20.727 48.7672 25.7286C48.042 30.7302 45.654 35.342 41.988 38.8209C38.322 42.2998 33.5915 44.4432 28.5588 44.9056C23.5261 45.3681 18.4842 44.1227 14.2456 41.3701C10.007 38.6175 6.8186 34.5181 5.19407 29.7324C3.56954 24.9467 3.60353 19.7534 5.29057 14.9893C6.9776 10.2253 10.2194 6.16797 14.4937 3.47112C18.7679 0.774275 23.8257 -0.405022 28.8519 0.123258L27.2056 15.787C25.6977 15.6285 24.1804 15.9823 22.8981 16.7913C21.6158 17.6004 20.6433 18.8176 20.1372 20.2468C19.6311 21.676 19.6209 23.234 20.1082 24.6697C20.5956 26.1054 21.5521 27.3353 22.8237 28.161C24.0953 28.9868 25.6078 29.3604 27.1176 29.2217C28.6275 29.083 30.0466 28.4399 31.1464 27.3963C32.2462 26.3526 32.9626 24.9691 33.1801 23.4686C33.3977 21.9681 33.1038 20.438 32.3457 19.125L45.9856 11.25Z" fill="#F5EBDC"/>
</g>
<defs>
<filter id="filter0_d_43_85" x="0" y="0" width="53" height="53" filterUnits="userSpaceOnUse" color-interpolation-filters="sRGB">
<feFlood flood-opacity="0" result="BackgroundImageFix"/>
<feColorMatrix in="SourceAlpha" type="matrix" values="0 0 0 0 0 0 0 0 0 0 0 0 0 0 0 0 0 0 127 0" result="hardAlpha"/>
<feOffset dy="4"/>
<feGaussianBlur stdDeviation="2"/>
<feComposite in2="hardAlpha" operator="out"/>
<feColorMatrix type="matrix" values="0 0 0 0 0 0 0 0 0 0 0 0 0 0 0 0 0 0 0.25 0"/>
<feBlend mode="normal" in2="BackgroundImageFix" result="effect1_dropShadow_43_85"/>
<feBlend mode="normal" in="SourceGraphic" in2="effect1_dropShadow_43_85" result="shape"/>
</filter>
</defs>
</svg>
