<svg width="65" height="57" viewBox="0 0 65 57" fill="none" xmlns="http://www.w3.org/2000/svg">
<path d="M45.5459 50.1323L45.7962 50.0418L46.0111 50.1989C47.4932 51.2825 49.9239 52.7744 52.8083 54.0285C55.8239 55.3353 59.4213 56.4375 62.9689 56.4375C63.5904 56.4375 64.1458 56.0654 64.3863 55.4884C64.6243 54.917 64.4935 54.2671 64.0605 53.8231C64.0599 53.8225 64.0593 53.8219 64.0587 53.8213L64.0245 53.7871C63.9835 53.7461 63.9242 53.6867 63.839 53.5877C63.6945 53.43 63.4741 53.1832 63.2032 52.8479C62.6694 52.1968 61.9578 51.2388 61.2342 50.05L61.233 50.048C59.9386 47.8994 58.6951 45.0563 58.446 41.8433L58.4296 41.6325L58.5696 41.4739C62.3078 37.2372 64.5001 32.0579 64.5001 26.4687C64.5001 12.25 50.2772 0.5625 32.5001 0.5625C14.7231 0.5625 0.500149 12.25 0.500149 26.4687C0.500149 40.6875 14.7231 52.375 32.5001 52.375C37.1527 52.375 41.5638 51.5724 45.5459 50.1323Z" fill="#F5EBDC" stroke="black"/>
</svg>
