<svg width="73" height="35" viewBox="0 0 73 35" fill="none" xmlns="http://www.w3.org/2000/svg">
<g filter="url(#filter0_d_277_3)">
<path d="M4 0.3125V22.6562H22.2812V26.7188H36.5V22.6562H69V0.3125H4ZM7.61023 3.92273H22.0551H22.0591V19.4983H18.4449V7.53693H14.8347V19.4983H7.61023V3.92273ZM25.6693 3.92273H40.1102H40.1142V19.4943H32.8898V23.1085H25.6693V3.92273ZM43.7244 3.92273H65.3898H65.3937V19.4983H61.7795V7.53693H58.1693V19.4983H54.5591V7.53693H50.9449V19.4983H43.7244V3.92273ZM32.8898 7.53693V15.8881H36.5V7.53693H32.8898Z" fill="#FFB858"/>
<path d="M22.5312 22.6562V22.4062H22.2812H4.25V0.5625H68.75V22.4062H36.5H36.25V22.6562V26.4688H22.5312V22.6562ZM7.61023 3.67273H7.36023V3.92273V19.4983V19.7483H7.61023H14.8347H15.0847V19.4983V7.78693H18.1949V19.4983V19.7483H18.4449H22.0591H22.3091V19.4983V3.92273V3.67273H22.0591H22.0551H7.61023ZM25.6693 3.67273H25.4193V3.92273V23.1085V23.3585H25.6693H32.8898H33.1398V23.1085V19.7443H40.1142H40.3642V19.4943V3.92273V3.67273H40.1142H40.1102H25.6693ZM43.7244 3.67273H43.4744V3.92273V19.4983V19.7483H43.7244H50.9449H51.1949V19.4983V7.78693H54.3091V19.4983V19.7483H54.5591H58.1693H58.4193V19.4983V7.78693H61.5295V19.4983V19.7483H61.7795H65.3937H65.6437V19.4983V3.92273V3.67273H65.3937H65.3898H43.7244ZM36.25 15.6381H33.1398V7.78693H36.25V15.6381Z" stroke="black" stroke-width="0.5"/>
</g>
<defs>
<filter id="filter0_d_277_3" x="0" y="0.3125" width="73" height="34.4062" filterUnits="userSpaceOnUse" color-interpolation-filters="sRGB">
<feFlood flood-opacity="0" result="BackgroundImageFix"/>
<feColorMatrix in="SourceAlpha" type="matrix" values="0 0 0 0 0 0 0 0 0 0 0 0 0 0 0 0 0 0 127 0" result="hardAlpha"/>
<feOffset dy="4"/>
<feGaussianBlur stdDeviation="2"/>
<feComposite in2="hardAlpha" operator="out"/>
<feColorMatrix type="matrix" values="0 0 0 0 0 0 0 0 0 0 0 0 0 0 0 0 0 0 0.25 0"/>
<feBlend mode="normal" in2="BackgroundImageFix" result="effect1_dropShadow_277_3"/>
<feBlend mode="normal" in="SourceGraphic" in2="effect1_dropShadow_277_3" result="shape"/>
</filter>
</defs>
</svg>
