<svg width="65" height="65" viewBox="0 0 65 65" fill="none" xmlns="http://www.w3.org/2000/svg">
<path d="M15.0486 0.660049L15.0488 0.659992C17.2383 0.0618073 19.5264 1.15496 20.4346 3.22503V3.23568L20.473 3.32798L25.5512 15.5155L25.5512 15.5157C26.3293 17.3808 25.7918 19.5319 24.2236 20.814C24.2236 20.814 24.2236 20.814 24.2236 20.814L17.9648 25.9302L17.6621 26.1777L17.8293 26.5311C22.1063 35.5732 29.4268 42.8937 38.4688 47.1707L38.8218 47.3376L39.0694 47.0356L44.1983 40.7768L44.2 40.7747C45.4683 39.2093 47.6306 38.6701 49.4969 39.4487L49.4971 39.4488L61.6846 44.5269L61.6857 44.5273C63.8134 45.4082 64.9467 47.7304 64.3399 49.9512L64.3399 49.9514L61.2934 61.1219C61.2933 61.1221 61.2933 61.1224 61.2932 61.1226C60.7429 63.116 58.9333 64.4999 56.875 64.4999C25.7429 64.4999 0.5 39.257 0.5 8.12493C0.5 6.06663 1.88399 4.25694 3.87743 3.70672C3.87765 3.70666 3.87787 3.7066 3.87808 3.70654L15.0486 0.660049Z" fill="#F5EBDC" stroke="black"/>
</svg>
