<svg width="90" height="51" viewBox="0 0 90 51" fill="none" xmlns="http://www.w3.org/2000/svg">
<g filter="url(#filter0_d_281_3)">
<path d="M44.625 2.2666C66.3848 2.2666 83.1172 11.4326 83.1172 21.5C83.1172 31.5674 66.3721 40.7334 44.625 40.7334C22.8652 40.7334 6.13281 31.5674 6.13281 21.5C6.13281 11.4326 22.8779 2.2666 44.625 2.2666ZM44.625 0.133789C22.1924 0.133789 4 9.69336 4 21.5C4 33.3066 22.1924 42.8662 44.625 42.8662C67.0576 42.8662 85.25 33.3066 85.25 21.5C85.25 9.69336 67.0576 0.133789 44.625 0.133789ZM31.7012 19.7861C30.6982 24.9277 27.1563 24.3945 22.8018 24.3945L24.541 15.4316C29.3652 15.4316 32.6406 14.9111 31.7012 19.7861ZM16.3652 33.4717H21.0244L22.1289 27.7842C27.3467 27.7842 30.584 28.165 33.5801 25.3594C36.8936 22.3125 37.7568 16.8916 35.3955 14.1748C34.1641 12.7529 32.1836 12.0547 29.4922 12.0547H20.5166L16.3652 33.4717ZM39.9404 6.35449H44.5742L43.4697 12.042C47.4687 12.042 51.1758 11.75 52.9658 13.4004C54.8447 15.127 53.9434 17.3359 51.9121 27.7588H47.2148C49.1699 17.6787 49.5381 16.8408 48.8271 16.0791C48.1416 15.3428 46.5801 15.4951 42.8096 15.4951L40.4229 27.7588H35.7891L39.9404 6.35449ZM68.1113 19.7861C67.0957 25.0039 63.4521 24.3945 59.2119 24.3945L60.9512 15.4316C65.8008 15.4316 69.0508 14.9111 68.1113 19.7861ZM52.7754 33.4717H57.4473L58.5518 27.7842C64.0361 27.7842 67.0703 28.1016 70.0029 25.3594C73.3164 22.3125 74.1797 16.8916 71.8184 14.1748C70.5869 12.7529 68.6064 12.0547 65.915 12.0547H56.9395L52.7754 33.4717Z" fill="#F5C07B"/>
<path d="M36.0922 27.5088H40.2168L42.5642 15.4474L42.6035 15.2451H42.8096C43.4054 15.2451 43.9483 15.2413 44.4424 15.2377C45.5017 15.2302 46.337 15.2242 46.9894 15.2614C47.9368 15.3153 48.5934 15.4612 49.01 15.9086C49.0101 15.9087 49.0101 15.9087 49.0101 15.9087L48.8271 16.0791C49.4033 16.6964 49.2707 17.3637 48.1592 22.9595C47.9106 24.2111 47.613 25.7094 47.2634 27.5088H36.0922ZM36.0922 27.5088L40.1466 6.60449H44.271L43.2243 11.9943L43.1665 12.292H43.4697C44.008 12.292 44.5385 12.2868 45.0582 12.2817C46.483 12.2678 47.8265 12.2546 49.026 12.3515C50.6667 12.484 51.9668 12.8193 52.7964 13.5842L52.7967 13.5845C53.2349 13.9871 53.5016 14.4069 53.6365 14.9653C53.774 15.5347 53.7781 16.2633 53.657 17.2892C53.4961 18.6524 53.1223 20.4879 52.5923 23.0902C52.3323 24.3669 52.0347 25.8282 51.7062 27.5088H47.5181H36.0922ZM31.9465 19.834L31.9467 19.8334C32.1852 18.5957 32.1655 17.6589 31.8898 16.9576C31.608 16.2409 31.0729 15.8048 30.3687 15.5461C29.6762 15.2917 28.8096 15.2041 27.8342 15.1766C27.2127 15.1591 26.5306 15.1659 25.8082 15.1732C25.3976 15.1774 24.974 15.1816 24.541 15.1816H24.3349L24.2956 15.384L22.5563 24.3469L22.4986 24.6445H22.8018C23.1767 24.6445 23.5489 24.6486 23.9154 24.6526C24.6013 24.66 25.2676 24.6673 25.8962 24.6474C26.8648 24.6168 27.775 24.5217 28.5861 24.256C29.4023 23.9887 30.1187 23.5484 30.6947 22.832C31.2684 22.1184 31.6906 21.1463 31.9465 19.834ZM22.1289 27.5342H21.9228L21.8835 27.7365L20.8183 33.2217H16.6683L20.7228 12.3047H29.4922C32.1452 12.3047 34.0411 12.9928 35.2065 14.3385L35.2068 14.3388C36.3236 15.6237 36.6964 17.5744 36.369 19.6035C36.0424 21.6285 35.0229 23.693 33.4109 25.1753L33.4092 25.1769C30.8227 27.599 28.0759 27.5771 23.7929 27.5428C23.2626 27.5386 22.7089 27.5342 22.1289 27.5342ZM68.3567 19.8339L68.3568 19.8334C68.5953 18.596 68.5772 17.6593 68.3038 16.9583C68.0242 16.2414 67.4915 15.8051 66.7885 15.5462C66.0976 15.2917 65.2316 15.2041 64.255 15.1766C63.6331 15.1591 62.9498 15.1659 62.225 15.1732C61.8126 15.1774 61.3868 15.1816 60.9512 15.1816H60.745L60.7057 15.384L58.9665 24.3469L58.9087 24.6445H59.2119C59.6125 24.6445 60.0126 24.6501 60.4076 24.6556C61.0432 24.6645 61.6654 24.6732 62.2549 24.6581C63.2169 24.6335 64.1293 24.5458 64.9468 24.2852C65.7693 24.023 66.4964 23.5854 67.0825 22.8652C67.6663 22.1479 68.0975 21.1657 68.3567 19.8339ZM58.5518 27.5342H58.3456L58.3063 27.7365L57.2411 33.2217H53.0787L57.1455 12.3047H65.915C68.568 12.3047 70.4639 12.9928 71.6294 14.3385L71.6297 14.3388C72.7464 15.6237 73.1192 17.5744 72.7919 19.6035C72.4652 21.6285 71.4457 23.693 69.8337 25.1753L69.8322 25.1768C67.2628 27.5794 64.6401 27.5649 60.0815 27.5397C59.5944 27.537 59.0853 27.5342 58.5518 27.5342ZM83.3672 21.5C83.3672 16.3214 79.0734 11.4485 72.1453 7.88571C65.2007 4.3144 55.537 2.0166 44.625 2.0166C33.7193 2.0166 24.0557 4.31441 17.1094 7.8857C10.1799 11.4484 5.88281 16.3214 5.88281 21.5C5.88281 26.6786 10.1766 31.5515 17.1047 35.1143C24.0493 38.6856 33.713 40.9834 44.625 40.9834C55.5307 40.9834 65.1943 38.6856 72.1406 35.1143C79.0701 31.5516 83.3672 26.6786 83.3672 21.5ZM4.25 21.5C4.25 15.7358 8.69548 10.4601 16.0166 6.61068C23.3262 2.76736 33.4409 0.383789 44.625 0.383789C55.8091 0.383789 65.9238 2.76736 73.2334 6.61068C80.5545 10.4601 85 15.7358 85 21.5C85 27.2642 80.5545 32.5399 73.2334 36.3893C65.9238 40.2326 55.8091 42.6162 44.625 42.6162C33.4409 42.6162 23.3262 40.2326 16.0166 36.3893C8.69548 32.5399 4.25 27.2642 4.25 21.5Z" stroke="black" stroke-width="0.5"/>
</g>
<defs>
<filter id="filter0_d_281_3" x="0" y="0.133789" width="89.25" height="50.7324" filterUnits="userSpaceOnUse" color-interpolation-filters="sRGB">
<feFlood flood-opacity="0" result="BackgroundImageFix"/>
<feColorMatrix in="SourceAlpha" type="matrix" values="0 0 0 0 0 0 0 0 0 0 0 0 0 0 0 0 0 0 127 0" result="hardAlpha"/>
<feOffset dy="4"/>
<feGaussianBlur stdDeviation="2"/>
<feComposite in2="hardAlpha" operator="out"/>
<feColorMatrix type="matrix" values="0 0 0 0 0 0 0 0 0 0 0 0 0 0 0 0 0 0 0.25 0"/>
<feBlend mode="normal" in2="BackgroundImageFix" result="effect1_dropShadow_281_3"/>
<feBlend mode="normal" in="SourceGraphic" in2="effect1_dropShadow_281_3" result="shape"/>
</filter>
</defs>
</svg>
