<svg width="61" height="62" viewBox="0 0 61 62" fill="none" xmlns="http://www.w3.org/2000/svg">
<g filter="url(#filter0_d_260_5)">
<path d="M55.5391 20.4961C54.6367 16.875 52.9258 14.1446 49.2813 14.1446H44.5821V19.6992C44.5821 24.0117 40.9258 27.6446 36.7539 27.6446H24.2383C20.8164 27.6446 17.9805 30.5742 17.9805 34.0078V45.9375C17.9805 49.336 20.9336 51.3282 24.2383 52.3008C28.1992 53.461 32.0078 53.6719 36.7539 52.3008C39.9063 51.3867 43.0117 49.5469 43.0117 45.9375V41.168H30.5078V39.5742H49.2813C52.9258 39.5742 54.2735 37.0313 55.5391 33.2227C56.8516 29.2969 56.793 25.5235 55.5391 20.4961ZM37.5391 44.3438C38.8399 44.3438 39.8946 45.4102 39.8946 46.7227C39.8946 48.0469 38.8399 49.1133 37.5391 49.1133C36.25 49.1133 35.1836 48.0352 35.1836 46.7227C35.1953 45.3985 36.25 44.3438 37.5391 44.3438ZM23.6641 26.0742H36.1797C39.6602 26.0742 42.4375 23.2032 42.4375 19.711V7.76956C42.4375 4.37112 39.5782 1.82815 36.1797 1.25394C31.9844 0.562529 27.4258 0.597686 23.6641 1.26565C18.3672 2.20315 17.4063 4.16019 17.4063 7.78128V12.5508H29.9336V14.1446H12.7071C9.06253 14.1446 5.87503 16.336 4.87893 20.4961C3.7305 25.2657 3.68362 28.2422 4.87893 33.2227C5.76956 36.9258 7.89065 39.5742 11.5352 39.5742H15.836V33.8555C15.836 29.7188 19.4102 26.0742 23.6641 26.0742ZM22.8789 9.36331C21.5782 9.36331 20.5235 8.2969 20.5235 6.9844C20.5352 5.66019 21.5782 4.59378 22.8789 4.59378C24.168 4.59378 25.2344 5.6719 25.2344 6.9844C25.2344 8.2969 24.1797 9.36331 22.8789 9.36331Z" fill="#FFB858"/>
<path d="M55.2965 20.5566L55.2965 20.5566C56.5428 25.5532 56.5951 29.2758 55.302 33.1434L55.3018 33.1438C54.6693 35.0473 54.0283 36.593 53.1123 37.6642C52.2107 38.7186 51.033 39.3242 49.2813 39.3242H30.5078H30.2578V39.5742V41.168V41.418H30.5078H42.7617V45.9375C42.7617 47.6595 42.025 48.9564 40.9002 49.9419C39.7683 50.9335 38.2428 51.6088 36.6843 52.0607C31.9877 53.4174 28.2278 53.2088 24.3089 52.061C21.0247 51.0943 18.2305 49.1559 18.2305 45.9375V34.0078C18.2305 30.7072 20.9596 27.8946 24.2383 27.8946H36.7539C41.0658 27.8946 44.8321 24.1479 44.8321 19.6992V14.3946H49.2813C51.031 14.3946 52.3016 15.0457 53.2506 16.1273C54.2086 17.2192 54.8494 18.7625 55.2965 20.5566ZM34.9336 46.7205V46.7227C34.9336 48.17 36.1088 49.3633 37.5391 49.3633C38.9812 49.3633 40.1446 48.1817 40.1446 46.7227C40.1446 45.2745 38.9804 44.0938 37.5391 44.0938C36.1092 44.0938 34.9465 45.2627 34.9336 46.7205ZM23.7077 1.51183L23.7078 1.5118C27.4403 0.849019 31.9701 0.813619 36.1385 1.50052C39.4557 2.06119 42.1875 4.52921 42.1875 7.76956V19.711C42.1875 23.0703 39.517 25.8242 36.1797 25.8242H23.6641C19.2716 25.8242 15.586 29.5812 15.586 33.8555V39.3242H11.5352C9.78048 39.3242 8.40355 38.6895 7.35332 37.6126C6.29745 36.5299 5.5607 34.9882 5.12203 33.1643C4.52722 30.6859 4.24425 28.7176 4.25003 26.781C4.25581 24.8445 4.55037 22.9286 5.12199 20.5546L5.12206 20.5543C6.09041 16.51 9.17465 14.3946 12.7071 14.3946H29.9336H30.1836V14.1446V12.5508V12.3008H29.9336H17.6563V7.78128C17.6563 5.98388 17.8974 4.66727 18.7392 3.67925C19.5839 2.68776 21.0762 1.97757 23.7077 1.51183ZM20.2735 6.98219V6.9844C20.2735 8.43255 21.4377 9.61331 22.8789 9.61331C24.3202 9.61331 25.4844 8.43255 25.4844 6.9844C25.4844 5.53705 24.3093 4.34378 22.8789 4.34378C21.4349 4.34378 20.2864 5.5269 20.2735 6.98219Z" stroke="black" stroke-width="0.5"/>
</g>
<defs>
<filter id="filter0_d_260_5" x="-6.10352e-05" y="0.749878" width="60.5016" height="60.5018" filterUnits="userSpaceOnUse" color-interpolation-filters="sRGB">
<feFlood flood-opacity="0" result="BackgroundImageFix"/>
<feColorMatrix in="SourceAlpha" type="matrix" values="0 0 0 0 0 0 0 0 0 0 0 0 0 0 0 0 0 0 127 0" result="hardAlpha"/>
<feOffset dy="4"/>
<feGaussianBlur stdDeviation="2"/>
<feComposite in2="hardAlpha" operator="out"/>
<feColorMatrix type="matrix" values="0 0 0 0 0 0 0 0 0 0 0 0 0 0 0 0 0 0 0.25 0"/>
<feBlend mode="normal" in2="BackgroundImageFix" result="effect1_dropShadow_260_5"/>
<feBlend mode="normal" in="SourceGraphic" in2="effect1_dropShadow_260_5" result="shape"/>
</filter>
</defs>
</svg>
