<svg width="55" height="58" viewBox="0 0 55 58" fill="none" xmlns="http://www.w3.org/2000/svg">
<g filter="url(#filter0_d_22_50)">
<mask id="path-1-inside-1_22_50" fill="white">
<path d="M38.3267 11.5545C37.7745 11.6181 37.2264 11.6905 36.6825 11.7717C36.6094 11.4071 36.5275 11.0466 36.4456 10.6861C35.0745 4.90348 32.3807 0.998311 29.3124 0.726613C26.3614 0.475598 23.2125 3.63569 20.9313 8.77242C20.7035 9.27736 20.4927 9.79587 20.2996 10.3061C19.9533 10.1875 19.5982 10.0729 19.2472 9.96719C13.5528 8.26936 8.81529 8.64672 7.05528 11.1807C5.36373 13.6073 6.53471 17.9209 9.83599 22.4586C10.1645 22.9089 10.4977 23.3461 10.8527 23.784C10.3605 24.2075 9.88549 24.6445 9.44997 25.0738C5.48723 28.9151 3.30255 33.0802 4.54895 35.7531C5.83661 38.5145 10.7395 39.6009 16.4357 38.9919C16.8959 38.939 17.3561 38.886 17.8169 38.8112C17.9318 39.4042 18.0602 39.98 18.2058 40.5694C19.567 45.9149 22.1087 49.4708 25.0508 49.7259C28.0843 49.9923 31.4421 46.7025 33.7569 41.4531C33.9388 41.0343 34.1165 40.6066 34.2859 40.1612C34.8528 40.3602 35.4292 40.5332 36.0014 40.6974C41.3082 42.188 45.667 41.761 47.3538 39.3474C49.0997 36.8523 47.9264 32.3028 44.5402 27.6753C44.279 27.323 44.0047 26.966 43.7175 26.6043C43.9636 26.3926 44.1967 26.1761 44.4298 25.9597C48.7483 21.8878 51.1726 17.4278 49.8643 14.6222C48.6138 11.9404 43.9133 10.9644 38.3267 11.5545ZM22.8479 9.6243C24.8031 5.22139 27.3502 2.66524 29.1241 2.81857C31.0202 2.97959 33.2134 6.18079 34.4007 11.1764C34.479 11.5062 34.5533 11.8271 34.6098 12.1563C32.4386 12.63 30.2986 13.24 28.2158 13.9957C26.2976 12.886 24.3062 11.8967 22.2539 11.0542C22.4464 10.5658 22.6383 10.0992 22.8479 9.6243ZM21.4892 33.446C22.2997 34.0055 23.119 34.5609 23.9566 35.0863C22.5057 35.5796 21.0307 35.9981 19.5403 36.3374C19.3354 34.8814 19.2073 33.3356 19.1464 31.7262C19.9167 32.3152 20.6918 32.8912 21.4892 33.446ZM13.8425 24.0492C14.985 23.1717 16.2318 22.3101 17.5565 21.4769C17.43 22.4302 17.3206 23.3971 17.2418 24.3605C17.1589 25.315 17.0932 26.2832 17.0581 27.2477C15.8855 26.189 14.8139 25.1155 13.8425 24.0492ZM19.1112 29.0165C19.1258 27.5227 19.2059 26.0307 19.3296 24.5399C19.4534 23.0491 19.6467 21.5689 19.8838 20.09C21.166 19.3735 22.4953 18.689 23.876 18.0451C25.2568 17.4013 26.6445 16.8188 28.0087 16.3013C29.281 17.0656 30.5303 17.8731 31.7566 18.7236C32.9829 19.5741 34.1773 20.4718 35.3445 21.4036C35.3211 22.9016 35.2451 24.4024 35.1167 25.9062C34.9929 27.397 34.8084 28.873 34.5844 30.3567C33.311 31.069 31.9598 31.753 30.5703 32.4009C29.1807 33.0489 27.8148 33.632 26.4766 34.159C25.1824 33.394 23.9201 32.5818 22.6897 31.7225C21.4593 30.8632 20.2738 29.9613 19.1112 29.0165ZM37.2086 26.0944C37.2968 25.1051 37.3543 24.1192 37.3989 23.1287C38.5637 24.1479 39.6661 25.2179 40.7229 26.3521C39.4955 27.3016 38.2174 28.1885 36.8933 28.9999C37.0246 28.0336 37.121 27.0619 37.2086 26.0944ZM35.3258 18.7293C34.5467 18.1445 33.7587 17.5637 32.9612 17.0089C32.1767 16.4588 31.3786 15.9258 30.567 15.41C32.0745 14.9225 33.5489 14.5259 34.9596 14.2237C35.1633 15.7234 35.2797 17.2208 35.3258 18.7293ZM21.5578 13.0274C22.9576 13.603 24.3291 14.2565 25.6551 14.9743C23.8655 15.7118 22.1042 16.5331 20.389 17.43C20.7239 15.8838 21.1226 14.4049 21.5578 13.0274ZM8.76109 12.3894C9.84354 10.8287 13.7226 10.5284 18.6372 11.9864C18.9493 12.078 19.2696 12.1872 19.5987 12.2923C18.9161 14.4101 18.3851 16.5757 17.9933 18.7626C16.0756 19.8723 14.2375 21.1066 12.4749 22.4565C12.1493 22.0587 11.8374 21.6439 11.5254 21.2291C8.69592 17.3333 7.73826 13.8469 8.76109 12.3894ZM17.4718 36.7309C17.0505 36.7981 16.634 36.8522 16.2134 36.8975C14.0517 37.1836 11.4723 37.2442 9.34978 36.7362C8.16696 36.5335 7.11939 35.8583 6.45184 34.8658C5.69658 33.2461 7.52764 29.8709 10.9073 26.5816C11.3293 26.1694 11.7683 25.7707 12.2115 25.3808C13.7089 27.0208 15.3138 28.5676 17.0048 29.9987C17.0177 32.2447 17.1745 34.499 17.4718 36.7309ZM31.8363 40.5923C30.9991 42.6098 29.8039 44.4601 28.3014 46.0443C27.5377 46.9715 26.4254 47.5441 25.2307 47.6163C23.4438 47.4582 21.4028 44.6063 20.2389 40.0308C20.1052 39.4898 19.9803 38.9446 19.8772 38.4001C22.0578 37.9004 24.1943 37.2597 26.2912 36.4651C28.2313 37.5754 30.2534 38.5612 32.3186 39.4084C32.1633 39.8149 32.0039 40.2125 31.8363 40.5923ZM33.0018 37.4305C31.645 36.8779 30.2388 36.2191 28.8219 35.4682C29.6881 35.1074 30.5725 34.7165 31.4576 34.3038C32.3692 33.8787 33.2549 33.4442 34.1193 32.9872C33.8292 34.4909 33.4524 35.9705 33.0018 37.4305ZM45.8077 34.6915C46.2316 35.8084 46.171 37.065 45.6392 38.1428C44.6116 39.6132 41.116 39.9502 36.5807 38.6817C36.0604 38.5364 35.5277 38.3645 34.9821 38.188C35.6387 36.0608 36.1479 33.8946 36.5049 31.7024C38.4533 30.5891 40.3268 29.3383 42.1077 27.9584C42.3654 28.28 42.6143 28.6057 42.8502 28.9267C44.1753 30.6362 45.1747 32.5946 45.8077 34.6915ZM42.9819 24.4259C42.7712 24.6211 42.5605 24.8163 42.3369 25.0068C40.8176 23.3663 39.1774 21.836 37.4469 20.4125C37.4546 18.2108 37.3048 16.0179 37.0193 13.8343C37.5414 13.7525 38.05 13.6877 38.5409 13.6312C43.3256 13.1241 47.2021 13.881 47.9532 15.4918C48.7621 17.2265 46.7174 20.9061 42.9819 24.4259ZM29.1134 29.2766C31.3526 28.2325 32.3209 25.572 31.2768 23.3328C30.2326 21.0936 27.5721 20.1253 25.3329 21.1694C23.0937 22.2136 22.1254 24.874 23.1695 27.1133C24.2137 29.3525 26.8742 30.3208 29.1134 29.2766Z"/>
</mask>
<path d="M38.3267 11.5545C37.7745 11.6181 37.2264 11.6905 36.6825 11.7717C36.6094 11.4071 36.5275 11.0466 36.4456 10.6861C35.0745 4.90348 32.3807 0.998311 29.3124 0.726613C26.3614 0.475598 23.2125 3.63569 20.9313 8.77242C20.7035 9.27736 20.4927 9.79587 20.2996 10.3061C19.9533 10.1875 19.5982 10.0729 19.2472 9.96719C13.5528 8.26936 8.81529 8.64672 7.05528 11.1807C5.36373 13.6073 6.53471 17.9209 9.83599 22.4586C10.1645 22.9089 10.4977 23.3461 10.8527 23.784C10.3605 24.2075 9.88549 24.6445 9.44997 25.0738C5.48723 28.9151 3.30255 33.0802 4.54895 35.7531C5.83661 38.5145 10.7395 39.6009 16.4357 38.9919C16.8959 38.939 17.3561 38.886 17.8169 38.8112C17.9318 39.4042 18.0602 39.98 18.2058 40.5694C19.567 45.9149 22.1087 49.4708 25.0508 49.7259C28.0843 49.9923 31.4421 46.7025 33.7569 41.4531C33.9388 41.0343 34.1165 40.6066 34.2859 40.1612C34.8528 40.3602 35.4292 40.5332 36.0014 40.6974C41.3082 42.188 45.667 41.761 47.3538 39.3474C49.0997 36.8523 47.9264 32.3028 44.5402 27.6753C44.279 27.323 44.0047 26.966 43.7175 26.6043C43.9636 26.3926 44.1967 26.1761 44.4298 25.9597C48.7483 21.8878 51.1726 17.4278 49.8643 14.6222C48.6138 11.9404 43.9133 10.9644 38.3267 11.5545ZM22.8479 9.6243C24.8031 5.22139 27.3502 2.66524 29.1241 2.81857C31.0202 2.97959 33.2134 6.18079 34.4007 11.1764C34.479 11.5062 34.5533 11.8271 34.6098 12.1563C32.4386 12.63 30.2986 13.24 28.2158 13.9957C26.2976 12.886 24.3062 11.8967 22.2539 11.0542C22.4464 10.5658 22.6383 10.0992 22.8479 9.6243ZM21.4892 33.446C22.2997 34.0055 23.119 34.5609 23.9566 35.0863C22.5057 35.5796 21.0307 35.9981 19.5403 36.3374C19.3354 34.8814 19.2073 33.3356 19.1464 31.7262C19.9167 32.3152 20.6918 32.8912 21.4892 33.446ZM13.8425 24.0492C14.985 23.1717 16.2318 22.3101 17.5565 21.4769C17.43 22.4302 17.3206 23.3971 17.2418 24.3605C17.1589 25.315 17.0932 26.2832 17.0581 27.2477C15.8855 26.189 14.8139 25.1155 13.8425 24.0492ZM19.1112 29.0165C19.1258 27.5227 19.2059 26.0307 19.3296 24.5399C19.4534 23.0491 19.6467 21.5689 19.8838 20.09C21.166 19.3735 22.4953 18.689 23.876 18.0451C25.2568 17.4013 26.6445 16.8188 28.0087 16.3013C29.281 17.0656 30.5303 17.8731 31.7566 18.7236C32.9829 19.5741 34.1773 20.4718 35.3445 21.4036C35.3211 22.9016 35.2451 24.4024 35.1167 25.9062C34.9929 27.397 34.8084 28.873 34.5844 30.3567C33.311 31.069 31.9598 31.753 30.5703 32.4009C29.1807 33.0489 27.8148 33.632 26.4766 34.159C25.1824 33.394 23.9201 32.5818 22.6897 31.7225C21.4593 30.8632 20.2738 29.9613 19.1112 29.0165ZM37.2086 26.0944C37.2968 25.1051 37.3543 24.1192 37.3989 23.1287C38.5637 24.1479 39.6661 25.2179 40.7229 26.3521C39.4955 27.3016 38.2174 28.1885 36.8933 28.9999C37.0246 28.0336 37.121 27.0619 37.2086 26.0944ZM35.3258 18.7293C34.5467 18.1445 33.7587 17.5637 32.9612 17.0089C32.1767 16.4588 31.3786 15.9258 30.567 15.41C32.0745 14.9225 33.5489 14.5259 34.9596 14.2237C35.1633 15.7234 35.2797 17.2208 35.3258 18.7293ZM21.5578 13.0274C22.9576 13.603 24.3291 14.2565 25.6551 14.9743C23.8655 15.7118 22.1042 16.5331 20.389 17.43C20.7239 15.8838 21.1226 14.4049 21.5578 13.0274ZM8.76109 12.3894C9.84354 10.8287 13.7226 10.5284 18.6372 11.9864C18.9493 12.078 19.2696 12.1872 19.5987 12.2923C18.9161 14.4101 18.3851 16.5757 17.9933 18.7626C16.0756 19.8723 14.2375 21.1066 12.4749 22.4565C12.1493 22.0587 11.8374 21.6439 11.5254 21.2291C8.69592 17.3333 7.73826 13.8469 8.76109 12.3894ZM17.4718 36.7309C17.0505 36.7981 16.634 36.8522 16.2134 36.8975C14.0517 37.1836 11.4723 37.2442 9.34978 36.7362C8.16696 36.5335 7.11939 35.8583 6.45184 34.8658C5.69658 33.2461 7.52764 29.8709 10.9073 26.5816C11.3293 26.1694 11.7683 25.7707 12.2115 25.3808C13.7089 27.0208 15.3138 28.5676 17.0048 29.9987C17.0177 32.2447 17.1745 34.499 17.4718 36.7309ZM31.8363 40.5923C30.9991 42.6098 29.8039 44.4601 28.3014 46.0443C27.5377 46.9715 26.4254 47.5441 25.2307 47.6163C23.4438 47.4582 21.4028 44.6063 20.2389 40.0308C20.1052 39.4898 19.9803 38.9446 19.8772 38.4001C22.0578 37.9004 24.1943 37.2597 26.2912 36.4651C28.2313 37.5754 30.2534 38.5612 32.3186 39.4084C32.1633 39.8149 32.0039 40.2125 31.8363 40.5923ZM33.0018 37.4305C31.645 36.8779 30.2388 36.2191 28.8219 35.4682C29.6881 35.1074 30.5725 34.7165 31.4576 34.3038C32.3692 33.8787 33.2549 33.4442 34.1193 32.9872C33.8292 34.4909 33.4524 35.9705 33.0018 37.4305ZM45.8077 34.6915C46.2316 35.8084 46.171 37.065 45.6392 38.1428C44.6116 39.6132 41.116 39.9502 36.5807 38.6817C36.0604 38.5364 35.5277 38.3645 34.9821 38.188C35.6387 36.0608 36.1479 33.8946 36.5049 31.7024C38.4533 30.5891 40.3268 29.3383 42.1077 27.9584C42.3654 28.28 42.6143 28.6057 42.8502 28.9267C44.1753 30.6362 45.1747 32.5946 45.8077 34.6915ZM42.9819 24.4259C42.7712 24.6211 42.5605 24.8163 42.3369 25.0068C40.8176 23.3663 39.1774 21.836 37.4469 20.4125C37.4546 18.2108 37.3048 16.0179 37.0193 13.8343C37.5414 13.7525 38.05 13.6877 38.5409 13.6312C43.3256 13.1241 47.2021 13.881 47.9532 15.4918C48.7621 17.2265 46.7174 20.9061 42.9819 24.4259ZM29.1134 29.2766C31.3526 28.2325 32.3209 25.572 31.2768 23.3328C30.2326 21.0936 27.5721 20.1253 25.3329 21.1694C23.0937 22.2136 22.1254 24.874 23.1695 27.1133C24.2137 29.3525 26.8742 30.3208 29.1134 29.2766Z" fill="#FFB858"/>
<path d="M38.3267 11.5545C37.7745 11.6181 37.2264 11.6905 36.6825 11.7717C36.6094 11.4071 36.5275 11.0466 36.4456 10.6861C35.0745 4.90348 32.3807 0.998311 29.3124 0.726613C26.3614 0.475598 23.2125 3.63569 20.9313 8.77242C20.7035 9.27736 20.4927 9.79587 20.2996 10.3061C19.9533 10.1875 19.5982 10.0729 19.2472 9.96719C13.5528 8.26936 8.81529 8.64672 7.05528 11.1807C5.36373 13.6073 6.53471 17.9209 9.83599 22.4586C10.1645 22.9089 10.4977 23.3461 10.8527 23.784C10.3605 24.2075 9.88549 24.6445 9.44997 25.0738C5.48723 28.9151 3.30255 33.0802 4.54895 35.7531C5.83661 38.5145 10.7395 39.6009 16.4357 38.9919C16.8959 38.939 17.3561 38.886 17.8169 38.8112C17.9318 39.4042 18.0602 39.98 18.2058 40.5694C19.567 45.9149 22.1087 49.4708 25.0508 49.7259C28.0843 49.9923 31.4421 46.7025 33.7569 41.4531C33.9388 41.0343 34.1165 40.6066 34.2859 40.1612C34.8528 40.3602 35.4292 40.5332 36.0014 40.6974C41.3082 42.188 45.667 41.761 47.3538 39.3474C49.0997 36.8523 47.9264 32.3028 44.5402 27.6753C44.279 27.323 44.0047 26.966 43.7175 26.6043C43.9636 26.3926 44.1967 26.1761 44.4298 25.9597C48.7483 21.8878 51.1726 17.4278 49.8643 14.6222C48.6138 11.9404 43.9133 10.9644 38.3267 11.5545ZM22.8479 9.6243C24.8031 5.22139 27.3502 2.66524 29.1241 2.81857C31.0202 2.97959 33.2134 6.18079 34.4007 11.1764C34.479 11.5062 34.5533 11.8271 34.6098 12.1563C32.4386 12.63 30.2986 13.24 28.2158 13.9957C26.2976 12.886 24.3062 11.8967 22.2539 11.0542C22.4464 10.5658 22.6383 10.0992 22.8479 9.6243ZM21.4892 33.446C22.2997 34.0055 23.119 34.5609 23.9566 35.0863C22.5057 35.5796 21.0307 35.9981 19.5403 36.3374C19.3354 34.8814 19.2073 33.3356 19.1464 31.7262C19.9167 32.3152 20.6918 32.8912 21.4892 33.446ZM13.8425 24.0492C14.985 23.1717 16.2318 22.3101 17.5565 21.4769C17.43 22.4302 17.3206 23.3971 17.2418 24.3605C17.1589 25.315 17.0932 26.2832 17.0581 27.2477C15.8855 26.189 14.8139 25.1155 13.8425 24.0492ZM19.1112 29.0165C19.1258 27.5227 19.2059 26.0307 19.3296 24.5399C19.4534 23.0491 19.6467 21.5689 19.8838 20.09C21.166 19.3735 22.4953 18.689 23.876 18.0451C25.2568 17.4013 26.6445 16.8188 28.0087 16.3013C29.281 17.0656 30.5303 17.8731 31.7566 18.7236C32.9829 19.5741 34.1773 20.4718 35.3445 21.4036C35.3211 22.9016 35.2451 24.4024 35.1167 25.9062C34.9929 27.397 34.8084 28.873 34.5844 30.3567C33.311 31.069 31.9598 31.753 30.5703 32.4009C29.1807 33.0489 27.8148 33.632 26.4766 34.159C25.1824 33.394 23.9201 32.5818 22.6897 31.7225C21.4593 30.8632 20.2738 29.9613 19.1112 29.0165ZM37.2086 26.0944C37.2968 25.1051 37.3543 24.1192 37.3989 23.1287C38.5637 24.1479 39.6661 25.2179 40.7229 26.3521C39.4955 27.3016 38.2174 28.1885 36.8933 28.9999C37.0246 28.0336 37.121 27.0619 37.2086 26.0944ZM35.3258 18.7293C34.5467 18.1445 33.7587 17.5637 32.9612 17.0089C32.1767 16.4588 31.3786 15.9258 30.567 15.41C32.0745 14.9225 33.5489 14.5259 34.9596 14.2237C35.1633 15.7234 35.2797 17.2208 35.3258 18.7293ZM21.5578 13.0274C22.9576 13.603 24.3291 14.2565 25.6551 14.9743C23.8655 15.7118 22.1042 16.5331 20.389 17.43C20.7239 15.8838 21.1226 14.4049 21.5578 13.0274ZM8.76109 12.3894C9.84354 10.8287 13.7226 10.5284 18.6372 11.9864C18.9493 12.078 19.2696 12.1872 19.5987 12.2923C18.9161 14.4101 18.3851 16.5757 17.9933 18.7626C16.0756 19.8723 14.2375 21.1066 12.4749 22.4565C12.1493 22.0587 11.8374 21.6439 11.5254 21.2291C8.69592 17.3333 7.73826 13.8469 8.76109 12.3894ZM17.4718 36.7309C17.0505 36.7981 16.634 36.8522 16.2134 36.8975C14.0517 37.1836 11.4723 37.2442 9.34978 36.7362C8.16696 36.5335 7.11939 35.8583 6.45184 34.8658C5.69658 33.2461 7.52764 29.8709 10.9073 26.5816C11.3293 26.1694 11.7683 25.7707 12.2115 25.3808C13.7089 27.0208 15.3138 28.5676 17.0048 29.9987C17.0177 32.2447 17.1745 34.499 17.4718 36.7309ZM31.8363 40.5923C30.9991 42.6098 29.8039 44.4601 28.3014 46.0443C27.5377 46.9715 26.4254 47.5441 25.2307 47.6163C23.4438 47.4582 21.4028 44.6063 20.2389 40.0308C20.1052 39.4898 19.9803 38.9446 19.8772 38.4001C22.0578 37.9004 24.1943 37.2597 26.2912 36.4651C28.2313 37.5754 30.2534 38.5612 32.3186 39.4084C32.1633 39.8149 32.0039 40.2125 31.8363 40.5923ZM33.0018 37.4305C31.645 36.8779 30.2388 36.2191 28.8219 35.4682C29.6881 35.1074 30.5725 34.7165 31.4576 34.3038C32.3692 33.8787 33.2549 33.4442 34.1193 32.9872C33.8292 34.4909 33.4524 35.9705 33.0018 37.4305ZM45.8077 34.6915C46.2316 35.8084 46.171 37.065 45.6392 38.1428C44.6116 39.6132 41.116 39.9502 36.5807 38.6817C36.0604 38.5364 35.5277 38.3645 34.9821 38.188C35.6387 36.0608 36.1479 33.8946 36.5049 31.7024C38.4533 30.5891 40.3268 29.3383 42.1077 27.9584C42.3654 28.28 42.6143 28.6057 42.8502 28.9267C44.1753 30.6362 45.1747 32.5946 45.8077 34.6915ZM42.9819 24.4259C42.7712 24.6211 42.5605 24.8163 42.3369 25.0068C40.8176 23.3663 39.1774 21.836 37.4469 20.4125C37.4546 18.2108 37.3048 16.0179 37.0193 13.8343C37.5414 13.7525 38.05 13.6877 38.5409 13.6312C43.3256 13.1241 47.2021 13.881 47.9532 15.4918C48.7621 17.2265 46.7174 20.9061 42.9819 24.4259ZM29.1134 29.2766C31.3526 28.2325 32.3209 25.572 31.2768 23.3328C30.2326 21.0936 27.5721 20.1253 25.3329 21.1694C23.0937 22.2136 22.1254 24.874 23.1695 27.1133C24.2137 29.3525 26.8742 30.3208 29.1134 29.2766Z" stroke="black" mask="url(#path-1-inside-1_22_50)"/>
</g>
<defs>
<filter id="filter0_d_22_50" x="0.198761" y="0.712708" width="54.0201" height="57.0283" filterUnits="userSpaceOnUse" color-interpolation-filters="sRGB">
<feFlood flood-opacity="0" result="BackgroundImageFix"/>
<feColorMatrix in="SourceAlpha" type="matrix" values="0 0 0 0 0 0 0 0 0 0 0 0 0 0 0 0 0 0 127 0" result="hardAlpha"/>
<feOffset dy="4"/>
<feGaussianBlur stdDeviation="2"/>
<feComposite in2="hardAlpha" operator="out"/>
<feColorMatrix type="matrix" values="0 0 0 0 0 0 0 0 0 0 0 0 0 0 0 0 0 0 0.25 0"/>
<feBlend mode="normal" in2="BackgroundImageFix" result="effect1_dropShadow_22_50"/>
<feBlend mode="normal" in="SourceGraphic" in2="effect1_dropShadow_22_50" result="shape"/>
</filter>
</defs>
</svg>
