<svg width="67" height="67" viewBox="0 0 67 67" fill="none" xmlns="http://www.w3.org/2000/svg">
<g clip-path="url(#clip0_22_49)">
<path d="M44.3267 19.5546C43.7745 19.6181 43.2264 19.6905 42.6825 19.7718C42.6094 19.4072 42.5275 19.0467 42.4456 18.6862C41.0745 12.9035 38.3807 8.99837 35.3124 8.72667C32.3614 8.47566 29.2125 11.6358 26.9313 16.7725C26.7035 17.2774 26.4927 17.7959 26.2996 18.3062C25.9533 18.1875 25.5982 18.073 25.2472 17.9672C19.5528 16.2694 14.8153 16.6468 13.0553 19.1807C11.3637 21.6074 12.5347 25.9209 15.836 30.4587C16.1645 30.9089 16.4977 31.3462 16.8527 31.7841C16.3605 32.2075 15.8855 32.6445 15.45 33.0739C11.4872 36.9152 9.30255 41.0802 10.5489 43.7531C11.8366 46.5146 16.7395 47.6009 22.4357 46.992C22.8959 46.939 23.3561 46.8861 23.8169 46.8113C23.9318 47.4042 24.0602 47.9801 24.2058 48.5695C25.567 53.915 28.1087 57.4708 31.0508 57.726C34.0843 57.9924 37.4421 54.7025 39.7569 49.4531C39.9388 49.0343 40.1165 48.6066 40.2859 48.1613C40.8528 48.3603 41.4292 48.5333 42.0014 48.6975C47.3082 50.1881 51.667 49.7611 53.3538 47.3474C55.0997 44.8524 53.9264 40.3029 50.5402 35.6754C50.279 35.3231 50.0047 34.9661 49.7175 34.6043C49.9636 34.3926 50.1967 34.1762 50.4298 33.9597C54.7483 29.8879 57.1726 25.4279 55.8643 22.6222C54.6138 19.9405 49.9133 18.9645 44.3267 19.5546ZM28.8479 17.6244C30.8031 13.2215 33.3502 10.6653 35.1241 10.8186C37.0202 10.9797 39.2134 14.1809 40.4007 19.1764C40.479 19.5062 40.5533 19.8272 40.6098 20.1564C38.4386 20.6301 36.2986 21.2401 34.2158 21.9958C32.2976 20.8861 30.3062 19.8967 28.2539 19.0543C28.4464 18.5658 28.6383 18.0992 28.8479 17.6244ZM27.4892 41.4461C28.2997 42.0056 29.119 42.561 29.9566 43.0863C28.5057 43.5797 27.0307 43.9981 25.5403 44.3375C25.3354 42.8814 25.2073 41.3357 25.1464 39.7262C25.9167 40.3152 26.6918 40.8913 27.4892 41.4461ZM19.8425 32.0493C20.985 31.1717 22.2318 30.3102 23.5565 29.4769C23.43 30.4303 23.3206 31.3972 23.2418 32.3606C23.1589 33.3151 23.0932 34.2832 23.0581 35.2478C21.8855 34.1891 20.8139 33.1156 19.8425 32.0493ZM25.1112 37.0165C25.1258 35.5227 25.2059 34.0307 25.3296 32.5399C25.4534 31.0491 25.6467 29.569 25.8838 28.09C27.166 27.3736 28.4953 26.689 29.876 26.0452C31.2568 25.4014 32.6445 24.8189 34.0087 24.3013C35.281 25.0657 36.5303 25.8731 37.7566 26.7236C38.9829 27.5741 40.1773 28.4718 41.3445 29.4037C41.3211 30.9016 41.2451 32.4025 41.1167 33.9062C40.9929 35.397 40.8084 36.8731 40.5844 38.3568C39.311 39.0691 37.9598 39.753 36.5703 40.401C35.1807 41.0489 33.8148 41.632 32.4766 42.159C31.1824 41.3941 29.9201 40.5819 28.6897 39.7226C27.4593 38.8632 26.2738 37.9614 25.1112 37.0165ZM43.2086 34.0945C43.2968 33.1051 43.3543 32.1193 43.3989 31.1288C44.5637 32.148 45.6661 33.2179 46.7229 34.3521C45.4955 35.3016 44.2174 36.1885 42.8933 36.9999C43.0246 36.0336 43.121 35.062 43.2086 34.0945ZM41.3258 26.7294C40.5467 26.1445 39.7587 25.5638 38.9612 25.009C38.1767 24.4589 37.3786 23.9259 36.567 23.41C38.0745 22.9226 39.5489 22.526 40.9596 22.2237C41.1633 23.7235 41.2797 25.2209 41.3258 26.7294ZM27.5578 21.0275C28.9576 21.6031 30.3291 22.2566 31.6551 22.9744C29.8655 23.7119 28.1042 24.5332 26.389 25.43C26.7239 23.8838 27.1226 22.4049 27.5578 21.0275ZM14.7611 20.3895C15.8435 18.8288 19.7226 18.5284 24.6372 19.9865C24.9493 20.078 25.2696 20.1873 25.5987 20.2924C24.9161 22.4102 24.3851 24.5758 23.9933 26.7626C22.0756 27.8724 20.2375 29.1066 18.4749 30.4565C18.1493 30.0588 17.8374 29.644 17.5254 29.2291C14.6959 25.3334 13.7383 21.847 14.7611 20.3895ZM23.4718 44.731C23.0505 44.7981 22.634 44.8523 22.2134 44.8976C20.0517 45.1837 17.4723 45.2443 15.3498 44.7363C14.167 44.5336 13.1194 43.8583 12.4518 42.8658C11.6966 41.2461 13.5276 37.8709 16.9073 34.5817C17.3293 34.1694 17.7683 33.7707 18.2115 33.3809C19.7089 35.0209 21.3138 36.5676 23.0048 37.9988C23.0177 40.2448 23.1745 42.4991 23.4718 44.731ZM37.8363 48.5924C36.9991 50.6098 35.8039 52.4602 34.3014 54.0444C33.5377 54.9716 32.4254 55.5441 31.2307 55.6163C29.4438 55.4583 27.4028 52.6064 26.2389 48.0309C26.1052 47.4898 25.9803 46.9447 25.8772 46.4001C28.0578 45.9005 30.1943 45.2598 32.2912 44.4652C34.2313 45.5754 36.2534 46.5613 38.3186 47.4085C38.1633 47.8149 38.0039 48.2125 37.8363 48.5924ZM39.0018 45.4305C37.645 44.8779 36.2388 44.2191 34.8219 43.4683C35.6881 43.1075 36.5725 42.7166 37.4576 42.3039C38.3692 41.8788 39.2549 41.4442 40.1193 40.9873C39.8292 42.491 39.4524 43.9705 39.0018 45.4305ZM51.8077 42.6916C52.2316 43.8085 52.171 45.0651 51.6392 46.1428C50.6116 47.6133 47.116 47.9503 42.5807 46.6817C42.0604 46.5364 41.5277 46.3646 40.9821 46.188C41.6387 44.0608 42.1479 41.8946 42.5049 39.7024C44.4533 38.5892 46.3268 37.3384 48.1077 35.9584C48.3654 36.28 48.6143 36.6058 48.8502 36.9268C50.1753 38.6363 51.1747 40.5947 51.8077 42.6916ZM48.9819 32.426C48.7712 32.6212 48.5605 32.8164 48.3369 33.0069C46.8176 31.3664 45.1774 29.8361 43.4469 28.4126C43.4546 26.2109 43.3048 24.0179 43.0193 21.8344C43.5414 21.7525 44.05 21.6878 44.5409 21.6313C49.3256 21.1242 53.2021 21.881 53.9532 23.4919C54.7621 25.2266 52.7174 28.9062 48.9819 32.426ZM35.1134 37.2767C37.3526 36.2325 38.3209 33.5721 37.2768 31.3329C36.2326 29.0936 33.5721 28.1253 31.3329 29.1695C29.0937 30.2137 28.1254 32.8741 29.1695 35.1133C30.2137 37.3525 32.8742 38.3209 35.1134 37.2767Z" fill="#FFB858"/>
</g>
<defs>
<clipPath id="clip0_22_49">
<rect width="50" height="50" fill="white" transform="translate(0 21.1309) rotate(-25)"/>
</clipPath>
</defs>
</svg>
