<svg width="50" height="50" viewBox="0 0 50 50" fill="none" xmlns="http://www.w3.org/2000/svg">
<mask id="path-1-inside-1_2118_6723" fill="white">
<path d="M49.6584 24.3871L47.5593 23.0877C47.5417 22.8832 47.5216 22.6792 47.4996 22.4762L49.3035 20.7937C49.4869 20.6227 49.5691 20.3695 49.5194 20.1244C49.4712 19.8784 49.2987 19.6758 49.0641 19.5884L46.7582 18.7261C46.7004 18.5264 46.6397 18.3282 46.5776 18.1309L48.016 16.1331C48.1627 15.93 48.1928 15.6658 48.0972 15.4341C48.0017 15.2034 47.7929 15.0381 47.546 14.9975L45.1144 14.602C45.0198 14.4176 44.9214 14.236 44.822 14.0559L45.8438 11.813C45.9485 11.5847 45.927 11.3191 45.7875 11.1117C45.6485 10.9035 45.4129 10.7816 45.1617 10.7912L42.6938 10.8772C42.5662 10.7176 42.4363 10.5595 42.3039 10.4042L42.871 8.00036C42.9283 7.75625 42.8562 7.50067 42.6785 7.32343C42.5022 7.14668 42.2461 7.07359 42.002 7.13091L39.5986 7.69749C39.4429 7.56564 39.2848 7.43522 39.1247 7.30767L39.2112 4.83977C39.2207 4.58993 39.0989 4.3525 38.8906 4.21396C38.6819 4.07447 38.4177 4.05345 38.1898 4.15711L35.9474 5.17943C35.7664 5.08007 35.5848 4.98166 35.4014 4.88659L35.0049 2.45452C34.9647 2.20802 34.7995 1.99878 34.5682 1.90323C34.3375 1.80721 34.0728 1.83826 33.8698 1.98445L31.8706 3.42286C31.6737 3.36028 31.476 3.30008 31.2763 3.24276L30.414 0.936329C30.3266 0.701291 30.124 0.528835 29.878 0.480107C29.6324 0.431858 29.3797 0.513548 29.2092 0.696036L27.5267 2.50134C27.3236 2.47888 27.1192 2.45834 26.9152 2.44162L25.6158 0.342047C25.4844 0.129462 25.2518 0 25.0014 0C24.7511 0 24.5185 0.129462 24.3876 0.342047L23.0882 2.44162C22.8837 2.45834 22.6792 2.47888 22.4762 2.50134L20.7932 0.696036C20.6227 0.513548 20.3695 0.431858 20.1244 0.480107C19.8784 0.529312 19.6758 0.701291 19.5884 0.936329L18.7261 3.24276C18.5264 3.30008 18.3287 3.36075 18.1314 3.42286L16.1326 1.98445C15.9295 1.83779 15.6649 1.80673 15.4337 1.90323C15.2029 1.99878 15.0372 2.20802 14.997 2.45452L14.6005 4.88659C14.4171 4.98166 14.2356 5.07959 14.0545 5.17943L11.8121 4.15711C11.5842 4.05297 11.3186 4.07447 11.1113 4.21396C10.903 4.3525 10.7812 4.58993 10.7907 4.83977L10.8767 7.30767C10.7172 7.43522 10.559 7.56564 10.4028 7.69749L7.99941 7.13091C7.75529 7.07406 7.49923 7.14668 7.32248 7.32343C7.14477 7.50067 7.07263 7.75625 7.12996 8.00036L7.69606 10.4042C7.56468 10.56 7.43474 10.7176 7.30719 10.8772L4.83929 10.7912C4.5904 10.784 4.3525 10.9035 4.21348 11.1117C4.07399 11.3191 4.05297 11.5847 4.15663 11.813L5.17895 14.0559C5.07959 14.236 4.98118 14.4176 4.88611 14.602L2.45452 14.9975C2.20754 15.0376 1.99925 15.2029 1.90323 15.4341C1.80769 15.6658 1.83874 15.93 1.98445 16.1331L3.42286 18.1309C3.36028 18.3282 3.29961 18.5264 3.24228 18.7261L0.935852 19.5884C0.701769 19.6758 0.529313 19.8784 0.480586 20.1244C0.431858 20.3699 0.513548 20.6227 0.696515 20.7937L2.50086 22.4762C2.47841 22.6792 2.45834 22.8837 2.44115 23.0877L0.342047 24.3871C0.129462 24.5185 0 24.7506 0 25.0014C0 25.2522 0.129462 25.4844 0.342047 25.6153L2.44115 26.9147C2.45834 27.1192 2.47841 27.3231 2.50086 27.5262L0.696515 29.2092C0.513548 29.3797 0.431858 29.6329 0.480586 29.878C0.529313 30.124 0.701769 30.3261 0.935852 30.414L3.24228 31.2763C3.29961 31.476 3.36028 31.6742 3.42286 31.8715L1.98445 33.8698C1.83826 34.0733 1.80721 34.3375 1.90323 34.5682C1.99925 34.7999 2.20802 34.9652 2.455 35.0049L4.88611 35.4004C4.98118 35.5848 5.07863 35.7664 5.17895 35.9474L4.15663 38.1893C4.05249 38.4172 4.07399 38.6824 4.21348 38.8906C4.35298 39.0994 4.5904 39.2212 4.83929 39.2112L7.30624 39.1247C7.43474 39.2852 7.56421 39.4424 7.69606 39.5986L7.12996 42.003C7.07263 42.2466 7.14477 42.5012 7.32248 42.6785C7.49876 42.8567 7.75529 42.9278 7.99941 42.8705L10.4028 42.3044C10.559 42.4372 10.7172 42.5662 10.8767 42.6933L10.7907 45.1617C10.7812 45.4115 10.903 45.6485 11.1113 45.7879C11.3186 45.927 11.5842 45.948 11.8121 45.8438L14.0545 44.822C14.2351 44.9223 14.4166 45.0198 14.6005 45.1148L14.997 47.5455C15.0372 47.7929 15.2025 48.0022 15.4337 48.0972C15.6644 48.1933 15.9295 48.1622 16.1326 48.0165L18.1304 46.5771C18.3277 46.6397 18.5259 46.7009 18.7256 46.7582L19.5879 49.0637C19.6753 49.2978 19.8779 49.4712 20.1239 49.5189C20.3695 49.5686 20.6222 49.4865 20.7927 49.303L22.4757 47.4987C22.6788 47.5221 22.8832 47.5417 23.0877 47.5598L24.3871 49.6589C24.518 49.8705 24.7506 50.001 25.001 50.001C25.2513 50.001 25.4839 49.871 25.6153 49.6589L26.9147 47.5598C27.1192 47.5417 27.3231 47.5221 27.5262 47.4987L29.2087 49.303C29.3792 49.4865 29.6324 49.5686 29.8775 49.5189C30.1235 49.4707 30.3261 49.2978 30.4135 49.0637L31.2758 46.7582C31.4755 46.7009 31.6737 46.6397 31.871 46.5771L33.8693 48.0165C34.0724 48.1622 34.337 48.1933 34.5678 48.0972C34.799 48.0022 34.9643 47.7925 35.0044 47.5455L35.4009 45.1148C35.5843 45.0198 35.7659 44.9209 35.9469 44.822L38.1893 45.8438C38.4172 45.948 38.6824 45.927 38.8902 45.7879C39.0984 45.6485 39.2198 45.412 39.2107 45.1617L39.1247 42.6933C39.2843 42.5657 39.4424 42.4372 39.5981 42.3044L42.0015 42.8705C42.2457 42.9278 42.5017 42.8567 42.678 42.6785C42.8557 42.5012 42.9278 42.2466 42.8705 42.003L42.3044 39.5986C42.4363 39.4424 42.5662 39.2852 42.6933 39.1247L45.1612 39.2112C45.4101 39.2212 45.648 39.0994 45.787 38.8906C45.9265 38.6824 45.948 38.4172 45.8434 38.1893L44.8215 35.9474C44.9214 35.7664 45.0193 35.5848 45.1139 35.4004L47.5455 35.0049C47.7929 34.9652 48.0012 34.7999 48.0968 34.5682C48.1923 34.3375 48.1622 34.0733 48.0156 33.8698L46.5771 31.8715C46.6392 31.6742 46.6999 31.476 46.7577 31.2763L49.0637 30.414C49.2982 30.3261 49.4712 30.124 49.5189 29.878C49.5686 29.6324 49.4865 29.3797 49.303 29.2092L47.4991 27.5262C47.5211 27.3231 47.5412 27.1187 47.5589 26.9147L49.658 25.6153C49.8705 25.4844 50 25.2518 50 25.0014C50 24.7511 49.871 24.5185 49.6584 24.3871ZM35.6092 41.8004C34.8076 41.6275 34.2978 40.8373 34.4698 40.0333C34.6413 39.2303 35.431 38.7191 36.2321 38.8921C37.0337 39.0636 37.5444 39.8552 37.3724 40.6577C37.2005 41.4603 36.4103 41.9719 35.6092 41.8004ZM34.8959 36.9764C34.1646 36.8197 33.4451 37.285 33.2884 38.0178L32.5432 41.4956C30.2434 42.5395 27.6896 43.1194 25 43.1194C22.2488 43.1194 19.6395 42.5108 17.2987 41.4226L16.5539 37.9448C16.3972 37.2129 15.6778 36.7466 14.9469 36.9038L11.8766 37.5631C11.3067 36.9764 10.7764 36.3516 10.2891 35.6918H25.2283C25.3975 35.6918 25.5102 35.6613 25.5102 35.5074V30.2229C25.5102 30.0691 25.3975 30.0385 25.2283 30.0385H20.8591V26.6887H25.5847C26.0161 26.6887 27.8912 26.812 28.4907 29.2087C28.6784 29.9458 29.0907 32.3435 29.3726 33.1112C29.6535 33.972 30.7971 35.6918 32.0158 35.6918H39.4601C39.5446 35.6918 39.6349 35.6823 39.73 35.6651C39.2136 36.3668 38.647 37.0309 38.037 37.6514L34.8959 36.9764ZM14.2336 41.7278C13.432 41.9007 12.6428 41.3896 12.4704 40.5865C12.2989 39.7821 12.8086 38.9924 13.6102 38.8195C14.4118 38.648 15.2015 39.1591 15.3735 39.9622C15.545 40.7647 15.0348 41.5558 14.2336 41.7278ZM8.56646 18.7471C8.89895 19.4976 8.56073 20.3771 7.81118 20.7091C7.06164 21.0421 6.18455 20.7034 5.85206 19.9524C5.51957 19.2014 5.85779 18.3234 6.60733 17.9904C7.35735 17.6579 8.23397 17.9962 8.56646 18.7471ZM6.8247 22.8761L10.023 21.4548C10.7062 21.1515 11.0148 20.3508 10.7114 19.6663L10.0526 18.1767H12.6433V29.8541H7.41659C6.96324 28.2604 6.72008 26.5784 6.72008 24.84C6.72008 24.1764 6.7559 23.5205 6.8247 22.8761ZM20.8601 21.742V18.3H27.0294C27.348 18.3 29.2794 18.6683 29.2794 20.1125C29.2794 21.3115 27.798 21.7415 26.5798 21.7415L20.8601 21.742ZM43.2804 24.84C43.2804 25.2967 43.2637 25.7486 43.2302 26.1972H41.3547C41.167 26.1972 41.0915 26.3204 41.0915 26.5043V27.3657C41.0915 29.3931 39.9483 29.834 38.9465 29.9463C37.9925 30.0538 36.9349 29.5469 36.8044 28.9632C36.2417 25.7978 35.3039 25.1218 33.823 23.9538C35.6608 22.7867 37.5731 21.065 37.5731 18.7605C37.5731 16.2721 35.8672 14.7047 34.7044 13.936C33.073 12.8607 31.2667 12.6452 30.7794 12.6452H11.3826C14.0129 9.70964 17.5777 7.63013 21.6096 6.87342L23.896 9.27205C24.4129 9.81331 25.269 9.83337 25.8097 9.316L28.3679 6.86912C33.7284 7.86708 38.2667 11.2039 40.8823 15.7819L39.1309 19.7374C38.8285 20.422 39.1371 21.2227 39.8198 21.526L43.1915 23.0237C43.2498 23.6223 43.2804 24.2271 43.2804 24.84ZM23.8969 4.83308C24.4893 4.26555 25.429 4.28801 25.996 4.88133C26.5621 5.47609 26.5406 6.41672 25.9468 6.98378C25.3545 7.55131 24.4148 7.52933 23.8477 6.93505C23.2821 6.34124 23.3036 5.40061 23.8969 4.83308ZM41.2764 18.8193C41.6084 18.0688 42.4855 17.7301 43.235 18.063C43.9846 18.3955 44.3228 19.2745 43.9903 20.025C43.6583 20.776 42.7812 21.1147 42.0312 20.7817C41.2826 20.4492 40.9444 19.5707 41.2764 18.8193Z"/>
</mask>
<path d="M49.6584 24.3871L47.5593 23.0877C47.5417 22.8832 47.5216 22.6792 47.4996 22.4762L49.3035 20.7937C49.4869 20.6227 49.5691 20.3695 49.5194 20.1244C49.4712 19.8784 49.2987 19.6758 49.0641 19.5884L46.7582 18.7261C46.7004 18.5264 46.6397 18.3282 46.5776 18.1309L48.016 16.1331C48.1627 15.93 48.1928 15.6658 48.0972 15.4341C48.0017 15.2034 47.7929 15.0381 47.546 14.9975L45.1144 14.602C45.0198 14.4176 44.9214 14.236 44.822 14.0559L45.8438 11.813C45.9485 11.5847 45.927 11.3191 45.7875 11.1117C45.6485 10.9035 45.4129 10.7816 45.1617 10.7912L42.6938 10.8772C42.5662 10.7176 42.4363 10.5595 42.3039 10.4042L42.871 8.00036C42.9283 7.75625 42.8562 7.50067 42.6785 7.32343C42.5022 7.14668 42.2461 7.07359 42.002 7.13091L39.5986 7.69749C39.4429 7.56564 39.2848 7.43522 39.1247 7.30767L39.2112 4.83977C39.2207 4.58993 39.0989 4.3525 38.8906 4.21396C38.6819 4.07447 38.4177 4.05345 38.1898 4.15711L35.9474 5.17943C35.7664 5.08007 35.5848 4.98166 35.4014 4.88659L35.0049 2.45452C34.9647 2.20802 34.7995 1.99878 34.5682 1.90323C34.3375 1.80721 34.0728 1.83826 33.8698 1.98445L31.8706 3.42286C31.6737 3.36028 31.476 3.30008 31.2763 3.24276L30.414 0.936329C30.3266 0.701291 30.124 0.528835 29.878 0.480107C29.6324 0.431858 29.3797 0.513548 29.2092 0.696036L27.5267 2.50134C27.3236 2.47888 27.1192 2.45834 26.9152 2.44162L25.6158 0.342047C25.4844 0.129462 25.2518 0 25.0014 0C24.7511 0 24.5185 0.129462 24.3876 0.342047L23.0882 2.44162C22.8837 2.45834 22.6792 2.47888 22.4762 2.50134L20.7932 0.696036C20.6227 0.513548 20.3695 0.431858 20.1244 0.480107C19.8784 0.529312 19.6758 0.701291 19.5884 0.936329L18.7261 3.24276C18.5264 3.30008 18.3287 3.36075 18.1314 3.42286L16.1326 1.98445C15.9295 1.83779 15.6649 1.80673 15.4337 1.90323C15.2029 1.99878 15.0372 2.20802 14.997 2.45452L14.6005 4.88659C14.4171 4.98166 14.2356 5.07959 14.0545 5.17943L11.8121 4.15711C11.5842 4.05297 11.3186 4.07447 11.1113 4.21396C10.903 4.3525 10.7812 4.58993 10.7907 4.83977L10.8767 7.30767C10.7172 7.43522 10.559 7.56564 10.4028 7.69749L7.99941 7.13091C7.75529 7.07406 7.49923 7.14668 7.32248 7.32343C7.14477 7.50067 7.07263 7.75625 7.12996 8.00036L7.69606 10.4042C7.56468 10.56 7.43474 10.7176 7.30719 10.8772L4.83929 10.7912C4.5904 10.784 4.3525 10.9035 4.21348 11.1117C4.07399 11.3191 4.05297 11.5847 4.15663 11.813L5.17895 14.0559C5.07959 14.236 4.98118 14.4176 4.88611 14.602L2.45452 14.9975C2.20754 15.0376 1.99925 15.2029 1.90323 15.4341C1.80769 15.6658 1.83874 15.93 1.98445 16.1331L3.42286 18.1309C3.36028 18.3282 3.29961 18.5264 3.24228 18.7261L0.935852 19.5884C0.701769 19.6758 0.529313 19.8784 0.480586 20.1244C0.431858 20.3699 0.513548 20.6227 0.696515 20.7937L2.50086 22.4762C2.47841 22.6792 2.45834 22.8837 2.44115 23.0877L0.342047 24.3871C0.129462 24.5185 0 24.7506 0 25.0014C0 25.2522 0.129462 25.4844 0.342047 25.6153L2.44115 26.9147C2.45834 27.1192 2.47841 27.3231 2.50086 27.5262L0.696515 29.2092C0.513548 29.3797 0.431858 29.6329 0.480586 29.878C0.529313 30.124 0.701769 30.3261 0.935852 30.414L3.24228 31.2763C3.29961 31.476 3.36028 31.6742 3.42286 31.8715L1.98445 33.8698C1.83826 34.0733 1.80721 34.3375 1.90323 34.5682C1.99925 34.7999 2.20802 34.9652 2.455 35.0049L4.88611 35.4004C4.98118 35.5848 5.07863 35.7664 5.17895 35.9474L4.15663 38.1893C4.05249 38.4172 4.07399 38.6824 4.21348 38.8906C4.35298 39.0994 4.5904 39.2212 4.83929 39.2112L7.30624 39.1247C7.43474 39.2852 7.56421 39.4424 7.69606 39.5986L7.12996 42.003C7.07263 42.2466 7.14477 42.5012 7.32248 42.6785C7.49876 42.8567 7.75529 42.9278 7.99941 42.8705L10.4028 42.3044C10.559 42.4372 10.7172 42.5662 10.8767 42.6933L10.7907 45.1617C10.7812 45.4115 10.903 45.6485 11.1113 45.7879C11.3186 45.927 11.5842 45.948 11.8121 45.8438L14.0545 44.822C14.2351 44.9223 14.4166 45.0198 14.6005 45.1148L14.997 47.5455C15.0372 47.7929 15.2025 48.0022 15.4337 48.0972C15.6644 48.1933 15.9295 48.1622 16.1326 48.0165L18.1304 46.5771C18.3277 46.6397 18.5259 46.7009 18.7256 46.7582L19.5879 49.0637C19.6753 49.2978 19.8779 49.4712 20.1239 49.5189C20.3695 49.5686 20.6222 49.4865 20.7927 49.303L22.4757 47.4987C22.6788 47.5221 22.8832 47.5417 23.0877 47.5598L24.3871 49.6589C24.518 49.8705 24.7506 50.001 25.001 50.001C25.2513 50.001 25.4839 49.871 25.6153 49.6589L26.9147 47.5598C27.1192 47.5417 27.3231 47.5221 27.5262 47.4987L29.2087 49.303C29.3792 49.4865 29.6324 49.5686 29.8775 49.5189C30.1235 49.4707 30.3261 49.2978 30.4135 49.0637L31.2758 46.7582C31.4755 46.7009 31.6737 46.6397 31.871 46.5771L33.8693 48.0165C34.0724 48.1622 34.337 48.1933 34.5678 48.0972C34.799 48.0022 34.9643 47.7925 35.0044 47.5455L35.4009 45.1148C35.5843 45.0198 35.7659 44.9209 35.9469 44.822L38.1893 45.8438C38.4172 45.948 38.6824 45.927 38.8902 45.7879C39.0984 45.6485 39.2198 45.412 39.2107 45.1617L39.1247 42.6933C39.2843 42.5657 39.4424 42.4372 39.5981 42.3044L42.0015 42.8705C42.2457 42.9278 42.5017 42.8567 42.678 42.6785C42.8557 42.5012 42.9278 42.2466 42.8705 42.003L42.3044 39.5986C42.4363 39.4424 42.5662 39.2852 42.6933 39.1247L45.1612 39.2112C45.4101 39.2212 45.648 39.0994 45.787 38.8906C45.9265 38.6824 45.948 38.4172 45.8434 38.1893L44.8215 35.9474C44.9214 35.7664 45.0193 35.5848 45.1139 35.4004L47.5455 35.0049C47.7929 34.9652 48.0012 34.7999 48.0968 34.5682C48.1923 34.3375 48.1622 34.0733 48.0156 33.8698L46.5771 31.8715C46.6392 31.6742 46.6999 31.476 46.7577 31.2763L49.0637 30.414C49.2982 30.3261 49.4712 30.124 49.5189 29.878C49.5686 29.6324 49.4865 29.3797 49.303 29.2092L47.4991 27.5262C47.5211 27.3231 47.5412 27.1187 47.5589 26.9147L49.658 25.6153C49.8705 25.4844 50 25.2518 50 25.0014C50 24.7511 49.871 24.5185 49.6584 24.3871ZM35.6092 41.8004C34.8076 41.6275 34.2978 40.8373 34.4698 40.0333C34.6413 39.2303 35.431 38.7191 36.2321 38.8921C37.0337 39.0636 37.5444 39.8552 37.3724 40.6577C37.2005 41.4603 36.4103 41.9719 35.6092 41.8004ZM34.8959 36.9764C34.1646 36.8197 33.4451 37.285 33.2884 38.0178L32.5432 41.4956C30.2434 42.5395 27.6896 43.1194 25 43.1194C22.2488 43.1194 19.6395 42.5108 17.2987 41.4226L16.5539 37.9448C16.3972 37.2129 15.6778 36.7466 14.9469 36.9038L11.8766 37.5631C11.3067 36.9764 10.7764 36.3516 10.2891 35.6918H25.2283C25.3975 35.6918 25.5102 35.6613 25.5102 35.5074V30.2229C25.5102 30.0691 25.3975 30.0385 25.2283 30.0385H20.8591V26.6887H25.5847C26.0161 26.6887 27.8912 26.812 28.4907 29.2087C28.6784 29.9458 29.0907 32.3435 29.3726 33.1112C29.6535 33.972 30.7971 35.6918 32.0158 35.6918H39.4601C39.5446 35.6918 39.6349 35.6823 39.73 35.6651C39.2136 36.3668 38.647 37.0309 38.037 37.6514L34.8959 36.9764ZM14.2336 41.7278C13.432 41.9007 12.6428 41.3896 12.4704 40.5865C12.2989 39.7821 12.8086 38.9924 13.6102 38.8195C14.4118 38.648 15.2015 39.1591 15.3735 39.9622C15.545 40.7647 15.0348 41.5558 14.2336 41.7278ZM8.56646 18.7471C8.89895 19.4976 8.56073 20.3771 7.81118 20.7091C7.06164 21.0421 6.18455 20.7034 5.85206 19.9524C5.51957 19.2014 5.85779 18.3234 6.60733 17.9904C7.35735 17.6579 8.23397 17.9962 8.56646 18.7471ZM6.8247 22.8761L10.023 21.4548C10.7062 21.1515 11.0148 20.3508 10.7114 19.6663L10.0526 18.1767H12.6433V29.8541H7.41659C6.96324 28.2604 6.72008 26.5784 6.72008 24.84C6.72008 24.1764 6.7559 23.5205 6.8247 22.8761ZM20.8601 21.742V18.3H27.0294C27.348 18.3 29.2794 18.6683 29.2794 20.1125C29.2794 21.3115 27.798 21.7415 26.5798 21.7415L20.8601 21.742ZM43.2804 24.84C43.2804 25.2967 43.2637 25.7486 43.2302 26.1972H41.3547C41.167 26.1972 41.0915 26.3204 41.0915 26.5043V27.3657C41.0915 29.3931 39.9483 29.834 38.9465 29.9463C37.9925 30.0538 36.9349 29.5469 36.8044 28.9632C36.2417 25.7978 35.3039 25.1218 33.823 23.9538C35.6608 22.7867 37.5731 21.065 37.5731 18.7605C37.5731 16.2721 35.8672 14.7047 34.7044 13.936C33.073 12.8607 31.2667 12.6452 30.7794 12.6452H11.3826C14.0129 9.70964 17.5777 7.63013 21.6096 6.87342L23.896 9.27205C24.4129 9.81331 25.269 9.83337 25.8097 9.316L28.3679 6.86912C33.7284 7.86708 38.2667 11.2039 40.8823 15.7819L39.1309 19.7374C38.8285 20.422 39.1371 21.2227 39.8198 21.526L43.1915 23.0237C43.2498 23.6223 43.2804 24.2271 43.2804 24.84ZM23.8969 4.83308C24.4893 4.26555 25.429 4.28801 25.996 4.88133C26.5621 5.47609 26.5406 6.41672 25.9468 6.98378C25.3545 7.55131 24.4148 7.52933 23.8477 6.93505C23.2821 6.34124 23.3036 5.40061 23.8969 4.83308ZM41.2764 18.8193C41.6084 18.0688 42.4855 17.7301 43.235 18.063C43.9846 18.3955 44.3228 19.2745 43.9903 20.025C43.6583 20.776 42.7812 21.1147 42.0312 20.7817C41.2826 20.4492 40.9444 19.5707 41.2764 18.8193Z" fill="#F5C07B" stroke="black" mask="url(#path-1-inside-1_2118_6723)"/>
</svg>
