<svg width="58" height="58" viewBox="0 0 58 58" fill="none" xmlns="http://www.w3.org/2000/svg">
<g filter="url(#filter0_d_2118_6723)">
<mask id="path-1-inside-1_2118_6723" fill="white">
<path d="M53.6584 24.3871L51.5593 23.0877C51.5417 22.8832 51.5216 22.6792 51.4996 22.4762L53.3035 20.7937C53.4869 20.6227 53.5691 20.3695 53.5194 20.1244C53.4712 19.8784 53.2987 19.6758 53.0641 19.5884L50.7582 18.7261C50.7004 18.5264 50.6397 18.3282 50.5776 18.1309L52.016 16.1331C52.1627 15.93 52.1928 15.6658 52.0972 15.4341C52.0017 15.2034 51.7929 15.0381 51.546 14.9975L49.1144 14.602C49.0198 14.4176 48.9214 14.236 48.822 14.0559L49.8438 11.813C49.9485 11.5847 49.927 11.3191 49.7875 11.1117C49.6485 10.9035 49.4129 10.7816 49.1617 10.7912L46.6938 10.8772C46.5662 10.7176 46.4363 10.5595 46.3039 10.4042L46.871 8.00036C46.9283 7.75625 46.8562 7.50067 46.6785 7.32343C46.5022 7.14668 46.2461 7.07359 46.002 7.13091L43.5986 7.69749C43.4429 7.56564 43.2848 7.43522 43.1247 7.30767L43.2112 4.83977C43.2207 4.58992 43.0989 4.3525 42.8906 4.21396C42.6819 4.07447 42.4177 4.05345 42.1898 4.15711L39.9474 5.17943C39.7664 5.08007 39.5848 4.98166 39.4014 4.88659L39.0049 2.45452C38.9647 2.20802 38.7995 1.99878 38.5682 1.90323C38.3375 1.80721 38.0728 1.83826 37.8698 1.98445L35.8706 3.42286C35.6737 3.36028 35.476 3.30008 35.2763 3.24276L34.414 0.936329C34.3266 0.701291 34.124 0.528835 33.878 0.480107C33.6324 0.431858 33.3797 0.513548 33.2092 0.696036L31.5267 2.50134C31.3236 2.47888 31.1192 2.45834 30.9152 2.44162L29.6158 0.342047C29.4844 0.129462 29.2518 0 29.0014 0C28.7511 0 28.5185 0.129462 28.3876 0.342047L27.0882 2.44162C26.8837 2.45834 26.6792 2.47888 26.4762 2.50134L24.7932 0.696036C24.6227 0.513548 24.3695 0.431858 24.1244 0.480107C23.8784 0.529312 23.6758 0.701291 23.5884 0.936329L22.7261 3.24276C22.5264 3.30008 22.3286 3.36075 22.1314 3.42286L20.1326 1.98445C19.9295 1.83779 19.6649 1.80673 19.4337 1.90323C19.2029 1.99878 19.0372 2.20802 18.997 2.45452L18.6005 4.88659C18.4171 4.98166 18.2356 5.07959 18.0545 5.17943L15.8121 4.15711C15.5842 4.05297 15.3186 4.07447 15.1113 4.21396C14.903 4.3525 14.7812 4.58992 14.7907 4.83977L14.8767 7.30767C14.7172 7.43522 14.559 7.56564 14.4028 7.69749L11.9994 7.13091C11.7553 7.07406 11.4992 7.14668 11.3225 7.32343C11.1448 7.50067 11.0726 7.75625 11.13 8.00036L11.6961 10.4042C11.5647 10.56 11.4347 10.7176 11.3072 10.8772L8.83929 10.7912C8.5904 10.784 8.3525 10.9035 8.21348 11.1117C8.07399 11.3191 8.05297 11.5847 8.15663 11.813L9.17895 14.0559C9.07959 14.236 8.98118 14.4176 8.88611 14.602L6.45452 14.9975C6.20754 15.0376 5.99925 15.2029 5.90323 15.4341C5.80769 15.6658 5.83874 15.93 5.98445 16.1331L7.42286 18.1309C7.36028 18.3282 7.29961 18.5264 7.24228 18.7261L4.93585 19.5884C4.70177 19.6758 4.52931 19.8784 4.48059 20.1244C4.43186 20.3699 4.51355 20.6227 4.69651 20.7937L6.50086 22.4762C6.47841 22.6792 6.45834 22.8837 6.44115 23.0877L4.34205 24.3871C4.12946 24.5185 4 24.7506 4 25.0014C4 25.2522 4.12946 25.4844 4.34205 25.6153L6.44115 26.9147C6.45834 27.1192 6.47841 27.3231 6.50086 27.5262L4.69651 29.2092C4.51355 29.3797 4.43186 29.6329 4.48059 29.878C4.52931 30.124 4.70177 30.3261 4.93585 30.414L7.24228 31.2763C7.29961 31.476 7.36028 31.6742 7.42286 31.8715L5.98445 33.8698C5.83826 34.0733 5.80721 34.3375 5.90323 34.5682C5.99925 34.7999 6.20802 34.9652 6.455 35.0049L8.88611 35.4004C8.98118 35.5848 9.07863 35.7664 9.17895 35.9474L8.15663 38.1893C8.05249 38.4172 8.07399 38.6824 8.21348 38.8906C8.35298 39.0994 8.5904 39.2212 8.83929 39.2112L11.3062 39.1247C11.4347 39.2852 11.5642 39.4424 11.6961 39.5986L11.13 42.003C11.0726 42.2466 11.1448 42.5012 11.3225 42.6785C11.4988 42.8567 11.7553 42.9278 11.9994 42.8705L14.4028 42.3044C14.559 42.4372 14.7172 42.5662 14.8767 42.6933L14.7907 45.1617C14.7812 45.4115 14.903 45.6485 15.1113 45.7879C15.3186 45.927 15.5842 45.948 15.8121 45.8438L18.0545 44.822C18.2351 44.9223 18.4166 45.0198 18.6005 45.1148L18.997 47.5455C19.0372 47.7929 19.2025 48.0022 19.4337 48.0972C19.6644 48.1933 19.9295 48.1622 20.1326 48.0165L22.1304 46.5771C22.3277 46.6397 22.5259 46.7009 22.7256 46.7582L23.5879 49.0637C23.6753 49.2978 23.8779 49.4712 24.1239 49.5189C24.3695 49.5686 24.6222 49.4865 24.7927 49.303L26.4757 47.4987C26.6788 47.5221 26.8832 47.5417 27.0877 47.5598L28.3871 49.6589C28.518 49.8705 28.7506 50.001 29.001 50.001C29.2513 50.001 29.4839 49.871 29.6153 49.6589L30.9147 47.5598C31.1192 47.5417 31.3231 47.5221 31.5262 47.4987L33.2087 49.303C33.3792 49.4865 33.6324 49.5686 33.8775 49.5189C34.1235 49.4707 34.3261 49.2978 34.4135 49.0637L35.2758 46.7582C35.4755 46.7009 35.6737 46.6397 35.871 46.5771L37.8693 48.0165C38.0724 48.1622 38.337 48.1933 38.5678 48.0972C38.799 48.0022 38.9643 47.7925 39.0044 47.5455L39.4009 45.1148C39.5843 45.0198 39.7659 44.9209 39.9469 44.822L42.1893 45.8438C42.4172 45.948 42.6824 45.927 42.8902 45.7879C43.0984 45.6485 43.2198 45.412 43.2107 45.1617L43.1247 42.6933C43.2843 42.5657 43.4424 42.4372 43.5981 42.3044L46.0015 42.8705C46.2457 42.9278 46.5017 42.8567 46.678 42.6785C46.8557 42.5012 46.9278 42.2466 46.8705 42.003L46.3044 39.5986C46.4363 39.4424 46.5662 39.2852 46.6933 39.1247L49.1612 39.2112C49.4101 39.2212 49.648 39.0994 49.787 38.8906C49.9265 38.6824 49.948 38.4172 49.8434 38.1893L48.8215 35.9474C48.9214 35.7664 49.0193 35.5848 49.1139 35.4004L51.5455 35.0049C51.7929 34.9652 52.0012 34.7999 52.0968 34.5682C52.1923 34.3375 52.1622 34.0733 52.0156 33.8698L50.5771 31.8715C50.6392 31.6742 50.6999 31.476 50.7577 31.2763L53.0637 30.414C53.2982 30.3261 53.4712 30.124 53.5189 29.878C53.5686 29.6324 53.4865 29.3797 53.303 29.2092L51.4991 27.5262C51.5211 27.3231 51.5412 27.1187 51.5589 26.9147L53.658 25.6153C53.8705 25.4844 54 25.2518 54 25.0014C54 24.7511 53.871 24.5185 53.6584 24.3871ZM39.6092 41.8004C38.8076 41.6275 38.2978 40.8373 38.4698 40.0333C38.6413 39.2303 39.431 38.7191 40.2321 38.8921C41.0337 39.0636 41.5444 39.8552 41.3724 40.6577C41.2005 41.4603 40.4103 41.9719 39.6092 41.8004ZM38.896 36.9764C38.1646 36.8197 37.4451 37.285 37.2884 38.0178L36.5432 41.4956C34.2434 42.5395 31.6896 43.1194 29 43.1194C26.2488 43.1194 23.6395 42.5108 21.2987 41.4226L20.5539 37.9448C20.3972 37.2129 19.6778 36.7466 18.9469 36.9038L15.8766 37.5631C15.3067 36.9764 14.7764 36.3516 14.2891 35.6918H29.2283C29.3975 35.6918 29.5102 35.6613 29.5102 35.5074V30.2229C29.5102 30.0691 29.3975 30.0385 29.2283 30.0385H24.8591V26.6887H29.5847C30.0161 26.6887 31.8912 26.812 32.4907 29.2087C32.6784 29.9458 33.0907 32.3435 33.3726 33.1112C33.6535 33.972 34.7971 35.6918 36.0158 35.6918H43.4601C43.5446 35.6918 43.6349 35.6823 43.73 35.6651C43.2136 36.3668 42.647 37.0309 42.037 37.6514L38.896 36.9764ZM18.2336 41.7278C17.432 41.9007 16.6428 41.3896 16.4704 40.5865C16.2989 39.7821 16.8086 38.9924 17.6102 38.8195C18.4118 38.648 19.2015 39.1591 19.3735 39.9622C19.545 40.7647 19.0348 41.5558 18.2336 41.7278ZM12.5665 18.7471C12.899 19.4976 12.5607 20.3771 11.8112 20.7091C11.0616 21.0421 10.1846 20.7034 9.85206 19.9524C9.51957 19.2014 9.85779 18.3234 10.6073 17.9904C11.3574 17.6579 12.234 17.9962 12.5665 18.7471ZM10.8247 22.8761L14.023 21.4548C14.7062 21.1515 15.0148 20.3508 14.7114 19.6663L14.0526 18.1767H16.6433V29.8541H11.4166C10.9632 28.2604 10.7201 26.5784 10.7201 24.84C10.7201 24.1764 10.7559 23.5205 10.8247 22.8761ZM24.8601 21.742V18.3H31.0294C31.348 18.3 33.2794 18.6683 33.2794 20.1125C33.2794 21.3115 31.798 21.7415 30.5798 21.7415L24.8601 21.742ZM47.2804 24.84C47.2804 25.2967 47.2637 25.7486 47.2302 26.1972H45.3547C45.167 26.1972 45.0915 26.3204 45.0915 26.5043V27.3657C45.0915 29.3931 43.9483 29.834 42.9465 29.9463C41.9925 30.0538 40.9349 29.5469 40.8044 28.9632C40.2417 25.7978 39.3039 25.1218 37.823 23.9538C39.6608 22.7867 41.5731 21.065 41.5731 18.7605C41.5731 16.2721 39.8672 14.7047 38.7044 13.936C37.073 12.8607 35.2667 12.6452 34.7794 12.6452H15.3826C18.0129 9.70964 21.5777 7.63013 25.6096 6.87342L27.896 9.27205C28.4129 9.81331 29.269 9.83337 29.8097 9.316L32.3679 6.86912C37.7284 7.86708 42.2667 11.2039 44.8823 15.7819L43.1309 19.7374C42.8285 20.422 43.1371 21.2227 43.8198 21.526L47.1915 23.0237C47.2498 23.6223 47.2804 24.2271 47.2804 24.84ZM27.8969 4.83308C28.4893 4.26555 29.429 4.28801 29.996 4.88133C30.5621 5.47609 30.5406 6.41672 29.9468 6.98378C29.3545 7.55131 28.4148 7.52933 27.8477 6.93505C27.2821 6.34124 27.3036 5.40061 27.8969 4.83308ZM45.2764 18.8193C45.6084 18.0688 46.4855 17.7301 47.235 18.063C47.9846 18.3955 48.3228 19.2745 47.9903 20.025C47.6583 20.776 46.7812 21.1147 46.0312 20.7817C45.2826 20.4492 44.9444 19.5707 45.2764 18.8193Z"/>
</mask>
<path d="M53.6584 24.3871L51.5593 23.0877C51.5417 22.8832 51.5216 22.6792 51.4996 22.4762L53.3035 20.7937C53.4869 20.6227 53.5691 20.3695 53.5194 20.1244C53.4712 19.8784 53.2987 19.6758 53.0641 19.5884L50.7582 18.7261C50.7004 18.5264 50.6397 18.3282 50.5776 18.1309L52.016 16.1331C52.1627 15.93 52.1928 15.6658 52.0972 15.4341C52.0017 15.2034 51.7929 15.0381 51.546 14.9975L49.1144 14.602C49.0198 14.4176 48.9214 14.236 48.822 14.0559L49.8438 11.813C49.9485 11.5847 49.927 11.3191 49.7875 11.1117C49.6485 10.9035 49.4129 10.7816 49.1617 10.7912L46.6938 10.8772C46.5662 10.7176 46.4363 10.5595 46.3039 10.4042L46.871 8.00036C46.9283 7.75625 46.8562 7.50067 46.6785 7.32343C46.5022 7.14668 46.2461 7.07359 46.002 7.13091L43.5986 7.69749C43.4429 7.56564 43.2848 7.43522 43.1247 7.30767L43.2112 4.83977C43.2207 4.58992 43.0989 4.3525 42.8906 4.21396C42.6819 4.07447 42.4177 4.05345 42.1898 4.15711L39.9474 5.17943C39.7664 5.08007 39.5848 4.98166 39.4014 4.88659L39.0049 2.45452C38.9647 2.20802 38.7995 1.99878 38.5682 1.90323C38.3375 1.80721 38.0728 1.83826 37.8698 1.98445L35.8706 3.42286C35.6737 3.36028 35.476 3.30008 35.2763 3.24276L34.414 0.936329C34.3266 0.701291 34.124 0.528835 33.878 0.480107C33.6324 0.431858 33.3797 0.513548 33.2092 0.696036L31.5267 2.50134C31.3236 2.47888 31.1192 2.45834 30.9152 2.44162L29.6158 0.342047C29.4844 0.129462 29.2518 0 29.0014 0C28.7511 0 28.5185 0.129462 28.3876 0.342047L27.0882 2.44162C26.8837 2.45834 26.6792 2.47888 26.4762 2.50134L24.7932 0.696036C24.6227 0.513548 24.3695 0.431858 24.1244 0.480107C23.8784 0.529312 23.6758 0.701291 23.5884 0.936329L22.7261 3.24276C22.5264 3.30008 22.3286 3.36075 22.1314 3.42286L20.1326 1.98445C19.9295 1.83779 19.6649 1.80673 19.4337 1.90323C19.2029 1.99878 19.0372 2.20802 18.997 2.45452L18.6005 4.88659C18.4171 4.98166 18.2356 5.07959 18.0545 5.17943L15.8121 4.15711C15.5842 4.05297 15.3186 4.07447 15.1113 4.21396C14.903 4.3525 14.7812 4.58992 14.7907 4.83977L14.8767 7.30767C14.7172 7.43522 14.559 7.56564 14.4028 7.69749L11.9994 7.13091C11.7553 7.07406 11.4992 7.14668 11.3225 7.32343C11.1448 7.50067 11.0726 7.75625 11.13 8.00036L11.6961 10.4042C11.5647 10.56 11.4347 10.7176 11.3072 10.8772L8.83929 10.7912C8.5904 10.784 8.3525 10.9035 8.21348 11.1117C8.07399 11.3191 8.05297 11.5847 8.15663 11.813L9.17895 14.0559C9.07959 14.236 8.98118 14.4176 8.88611 14.602L6.45452 14.9975C6.20754 15.0376 5.99925 15.2029 5.90323 15.4341C5.80769 15.6658 5.83874 15.93 5.98445 16.1331L7.42286 18.1309C7.36028 18.3282 7.29961 18.5264 7.24228 18.7261L4.93585 19.5884C4.70177 19.6758 4.52931 19.8784 4.48059 20.1244C4.43186 20.3699 4.51355 20.6227 4.69651 20.7937L6.50086 22.4762C6.47841 22.6792 6.45834 22.8837 6.44115 23.0877L4.34205 24.3871C4.12946 24.5185 4 24.7506 4 25.0014C4 25.2522 4.12946 25.4844 4.34205 25.6153L6.44115 26.9147C6.45834 27.1192 6.47841 27.3231 6.50086 27.5262L4.69651 29.2092C4.51355 29.3797 4.43186 29.6329 4.48059 29.878C4.52931 30.124 4.70177 30.3261 4.93585 30.414L7.24228 31.2763C7.29961 31.476 7.36028 31.6742 7.42286 31.8715L5.98445 33.8698C5.83826 34.0733 5.80721 34.3375 5.90323 34.5682C5.99925 34.7999 6.20802 34.9652 6.455 35.0049L8.88611 35.4004C8.98118 35.5848 9.07863 35.7664 9.17895 35.9474L8.15663 38.1893C8.05249 38.4172 8.07399 38.6824 8.21348 38.8906C8.35298 39.0994 8.5904 39.2212 8.83929 39.2112L11.3062 39.1247C11.4347 39.2852 11.5642 39.4424 11.6961 39.5986L11.13 42.003C11.0726 42.2466 11.1448 42.5012 11.3225 42.6785C11.4988 42.8567 11.7553 42.9278 11.9994 42.8705L14.4028 42.3044C14.559 42.4372 14.7172 42.5662 14.8767 42.6933L14.7907 45.1617C14.7812 45.4115 14.903 45.6485 15.1113 45.7879C15.3186 45.927 15.5842 45.948 15.8121 45.8438L18.0545 44.822C18.2351 44.9223 18.4166 45.0198 18.6005 45.1148L18.997 47.5455C19.0372 47.7929 19.2025 48.0022 19.4337 48.0972C19.6644 48.1933 19.9295 48.1622 20.1326 48.0165L22.1304 46.5771C22.3277 46.6397 22.5259 46.7009 22.7256 46.7582L23.5879 49.0637C23.6753 49.2978 23.8779 49.4712 24.1239 49.5189C24.3695 49.5686 24.6222 49.4865 24.7927 49.303L26.4757 47.4987C26.6788 47.5221 26.8832 47.5417 27.0877 47.5598L28.3871 49.6589C28.518 49.8705 28.7506 50.001 29.001 50.001C29.2513 50.001 29.4839 49.871 29.6153 49.6589L30.9147 47.5598C31.1192 47.5417 31.3231 47.5221 31.5262 47.4987L33.2087 49.303C33.3792 49.4865 33.6324 49.5686 33.8775 49.5189C34.1235 49.4707 34.3261 49.2978 34.4135 49.0637L35.2758 46.7582C35.4755 46.7009 35.6737 46.6397 35.871 46.5771L37.8693 48.0165C38.0724 48.1622 38.337 48.1933 38.5678 48.0972C38.799 48.0022 38.9643 47.7925 39.0044 47.5455L39.4009 45.1148C39.5843 45.0198 39.7659 44.9209 39.9469 44.822L42.1893 45.8438C42.4172 45.948 42.6824 45.927 42.8902 45.7879C43.0984 45.6485 43.2198 45.412 43.2107 45.1617L43.1247 42.6933C43.2843 42.5657 43.4424 42.4372 43.5981 42.3044L46.0015 42.8705C46.2457 42.9278 46.5017 42.8567 46.678 42.6785C46.8557 42.5012 46.9278 42.2466 46.8705 42.003L46.3044 39.5986C46.4363 39.4424 46.5662 39.2852 46.6933 39.1247L49.1612 39.2112C49.4101 39.2212 49.648 39.0994 49.787 38.8906C49.9265 38.6824 49.948 38.4172 49.8434 38.1893L48.8215 35.9474C48.9214 35.7664 49.0193 35.5848 49.1139 35.4004L51.5455 35.0049C51.7929 34.9652 52.0012 34.7999 52.0968 34.5682C52.1923 34.3375 52.1622 34.0733 52.0156 33.8698L50.5771 31.8715C50.6392 31.6742 50.6999 31.476 50.7577 31.2763L53.0637 30.414C53.2982 30.3261 53.4712 30.124 53.5189 29.878C53.5686 29.6324 53.4865 29.3797 53.303 29.2092L51.4991 27.5262C51.5211 27.3231 51.5412 27.1187 51.5589 26.9147L53.658 25.6153C53.8705 25.4844 54 25.2518 54 25.0014C54 24.7511 53.871 24.5185 53.6584 24.3871ZM39.6092 41.8004C38.8076 41.6275 38.2978 40.8373 38.4698 40.0333C38.6413 39.2303 39.431 38.7191 40.2321 38.8921C41.0337 39.0636 41.5444 39.8552 41.3724 40.6577C41.2005 41.4603 40.4103 41.9719 39.6092 41.8004ZM38.896 36.9764C38.1646 36.8197 37.4451 37.285 37.2884 38.0178L36.5432 41.4956C34.2434 42.5395 31.6896 43.1194 29 43.1194C26.2488 43.1194 23.6395 42.5108 21.2987 41.4226L20.5539 37.9448C20.3972 37.2129 19.6778 36.7466 18.9469 36.9038L15.8766 37.5631C15.3067 36.9764 14.7764 36.3516 14.2891 35.6918H29.2283C29.3975 35.6918 29.5102 35.6613 29.5102 35.5074V30.2229C29.5102 30.0691 29.3975 30.0385 29.2283 30.0385H24.8591V26.6887H29.5847C30.0161 26.6887 31.8912 26.812 32.4907 29.2087C32.6784 29.9458 33.0907 32.3435 33.3726 33.1112C33.6535 33.972 34.7971 35.6918 36.0158 35.6918H43.4601C43.5446 35.6918 43.6349 35.6823 43.73 35.6651C43.2136 36.3668 42.647 37.0309 42.037 37.6514L38.896 36.9764ZM18.2336 41.7278C17.432 41.9007 16.6428 41.3896 16.4704 40.5865C16.2989 39.7821 16.8086 38.9924 17.6102 38.8195C18.4118 38.648 19.2015 39.1591 19.3735 39.9622C19.545 40.7647 19.0348 41.5558 18.2336 41.7278ZM12.5665 18.7471C12.899 19.4976 12.5607 20.3771 11.8112 20.7091C11.0616 21.0421 10.1846 20.7034 9.85206 19.9524C9.51957 19.2014 9.85779 18.3234 10.6073 17.9904C11.3574 17.6579 12.234 17.9962 12.5665 18.7471ZM10.8247 22.8761L14.023 21.4548C14.7062 21.1515 15.0148 20.3508 14.7114 19.6663L14.0526 18.1767H16.6433V29.8541H11.4166C10.9632 28.2604 10.7201 26.5784 10.7201 24.84C10.7201 24.1764 10.7559 23.5205 10.8247 22.8761ZM24.8601 21.742V18.3H31.0294C31.348 18.3 33.2794 18.6683 33.2794 20.1125C33.2794 21.3115 31.798 21.7415 30.5798 21.7415L24.8601 21.742ZM47.2804 24.84C47.2804 25.2967 47.2637 25.7486 47.2302 26.1972H45.3547C45.167 26.1972 45.0915 26.3204 45.0915 26.5043V27.3657C45.0915 29.3931 43.9483 29.834 42.9465 29.9463C41.9925 30.0538 40.9349 29.5469 40.8044 28.9632C40.2417 25.7978 39.3039 25.1218 37.823 23.9538C39.6608 22.7867 41.5731 21.065 41.5731 18.7605C41.5731 16.2721 39.8672 14.7047 38.7044 13.936C37.073 12.8607 35.2667 12.6452 34.7794 12.6452H15.3826C18.0129 9.70964 21.5777 7.63013 25.6096 6.87342L27.896 9.27205C28.4129 9.81331 29.269 9.83337 29.8097 9.316L32.3679 6.86912C37.7284 7.86708 42.2667 11.2039 44.8823 15.7819L43.1309 19.7374C42.8285 20.422 43.1371 21.2227 43.8198 21.526L47.1915 23.0237C47.2498 23.6223 47.2804 24.2271 47.2804 24.84ZM27.8969 4.83308C28.4893 4.26555 29.429 4.28801 29.996 4.88133C30.5621 5.47609 30.5406 6.41672 29.9468 6.98378C29.3545 7.55131 28.4148 7.52933 27.8477 6.93505C27.2821 6.34124 27.3036 5.40061 27.8969 4.83308ZM45.2764 18.8193C45.6084 18.0688 46.4855 17.7301 47.235 18.063C47.9846 18.3955 48.3228 19.2745 47.9903 20.025C47.6583 20.776 46.7812 21.1147 46.0312 20.7817C45.2826 20.4492 44.9444 19.5707 45.2764 18.8193Z" fill="#F5C07B"/>
<path d="M53.6584 24.3871L51.5593 23.0877C51.5417 22.8832 51.5216 22.6792 51.4996 22.4762L53.3035 20.7937C53.4869 20.6227 53.5691 20.3695 53.5194 20.1244C53.4712 19.8784 53.2987 19.6758 53.0641 19.5884L50.7582 18.7261C50.7004 18.5264 50.6397 18.3282 50.5776 18.1309L52.016 16.1331C52.1627 15.93 52.1928 15.6658 52.0972 15.4341C52.0017 15.2034 51.7929 15.0381 51.546 14.9975L49.1144 14.602C49.0198 14.4176 48.9214 14.236 48.822 14.0559L49.8438 11.813C49.9485 11.5847 49.927 11.3191 49.7875 11.1117C49.6485 10.9035 49.4129 10.7816 49.1617 10.7912L46.6938 10.8772C46.5662 10.7176 46.4363 10.5595 46.3039 10.4042L46.871 8.00036C46.9283 7.75625 46.8562 7.50067 46.6785 7.32343C46.5022 7.14668 46.2461 7.07359 46.002 7.13091L43.5986 7.69749C43.4429 7.56564 43.2848 7.43522 43.1247 7.30767L43.2112 4.83977C43.2207 4.58992 43.0989 4.3525 42.8906 4.21396C42.6819 4.07447 42.4177 4.05345 42.1898 4.15711L39.9474 5.17943C39.7664 5.08007 39.5848 4.98166 39.4014 4.88659L39.0049 2.45452C38.9647 2.20802 38.7995 1.99878 38.5682 1.90323C38.3375 1.80721 38.0728 1.83826 37.8698 1.98445L35.8706 3.42286C35.6737 3.36028 35.476 3.30008 35.2763 3.24276L34.414 0.936329C34.3266 0.701291 34.124 0.528835 33.878 0.480107C33.6324 0.431858 33.3797 0.513548 33.2092 0.696036L31.5267 2.50134C31.3236 2.47888 31.1192 2.45834 30.9152 2.44162L29.6158 0.342047C29.4844 0.129462 29.2518 0 29.0014 0C28.7511 0 28.5185 0.129462 28.3876 0.342047L27.0882 2.44162C26.8837 2.45834 26.6792 2.47888 26.4762 2.50134L24.7932 0.696036C24.6227 0.513548 24.3695 0.431858 24.1244 0.480107C23.8784 0.529312 23.6758 0.701291 23.5884 0.936329L22.7261 3.24276C22.5264 3.30008 22.3286 3.36075 22.1314 3.42286L20.1326 1.98445C19.9295 1.83779 19.6649 1.80673 19.4337 1.90323C19.2029 1.99878 19.0372 2.20802 18.997 2.45452L18.6005 4.88659C18.4171 4.98166 18.2356 5.07959 18.0545 5.17943L15.8121 4.15711C15.5842 4.05297 15.3186 4.07447 15.1113 4.21396C14.903 4.3525 14.7812 4.58992 14.7907 4.83977L14.8767 7.30767C14.7172 7.43522 14.559 7.56564 14.4028 7.69749L11.9994 7.13091C11.7553 7.07406 11.4992 7.14668 11.3225 7.32343C11.1448 7.50067 11.0726 7.75625 11.13 8.00036L11.6961 10.4042C11.5647 10.56 11.4347 10.7176 11.3072 10.8772L8.83929 10.7912C8.5904 10.784 8.3525 10.9035 8.21348 11.1117C8.07399 11.3191 8.05297 11.5847 8.15663 11.813L9.17895 14.0559C9.07959 14.236 8.98118 14.4176 8.88611 14.602L6.45452 14.9975C6.20754 15.0376 5.99925 15.2029 5.90323 15.4341C5.80769 15.6658 5.83874 15.93 5.98445 16.1331L7.42286 18.1309C7.36028 18.3282 7.29961 18.5264 7.24228 18.7261L4.93585 19.5884C4.70177 19.6758 4.52931 19.8784 4.48059 20.1244C4.43186 20.3699 4.51355 20.6227 4.69651 20.7937L6.50086 22.4762C6.47841 22.6792 6.45834 22.8837 6.44115 23.0877L4.34205 24.3871C4.12946 24.5185 4 24.7506 4 25.0014C4 25.2522 4.12946 25.4844 4.34205 25.6153L6.44115 26.9147C6.45834 27.1192 6.47841 27.3231 6.50086 27.5262L4.69651 29.2092C4.51355 29.3797 4.43186 29.6329 4.48059 29.878C4.52931 30.124 4.70177 30.3261 4.93585 30.414L7.24228 31.2763C7.29961 31.476 7.36028 31.6742 7.42286 31.8715L5.98445 33.8698C5.83826 34.0733 5.80721 34.3375 5.90323 34.5682C5.99925 34.7999 6.20802 34.9652 6.455 35.0049L8.88611 35.4004C8.98118 35.5848 9.07863 35.7664 9.17895 35.9474L8.15663 38.1893C8.05249 38.4172 8.07399 38.6824 8.21348 38.8906C8.35298 39.0994 8.5904 39.2212 8.83929 39.2112L11.3062 39.1247C11.4347 39.2852 11.5642 39.4424 11.6961 39.5986L11.13 42.003C11.0726 42.2466 11.1448 42.5012 11.3225 42.6785C11.4988 42.8567 11.7553 42.9278 11.9994 42.8705L14.4028 42.3044C14.559 42.4372 14.7172 42.5662 14.8767 42.6933L14.7907 45.1617C14.7812 45.4115 14.903 45.6485 15.1113 45.7879C15.3186 45.927 15.5842 45.948 15.8121 45.8438L18.0545 44.822C18.2351 44.9223 18.4166 45.0198 18.6005 45.1148L18.997 47.5455C19.0372 47.7929 19.2025 48.0022 19.4337 48.0972C19.6644 48.1933 19.9295 48.1622 20.1326 48.0165L22.1304 46.5771C22.3277 46.6397 22.5259 46.7009 22.7256 46.7582L23.5879 49.0637C23.6753 49.2978 23.8779 49.4712 24.1239 49.5189C24.3695 49.5686 24.6222 49.4865 24.7927 49.303L26.4757 47.4987C26.6788 47.5221 26.8832 47.5417 27.0877 47.5598L28.3871 49.6589C28.518 49.8705 28.7506 50.001 29.001 50.001C29.2513 50.001 29.4839 49.871 29.6153 49.6589L30.9147 47.5598C31.1192 47.5417 31.3231 47.5221 31.5262 47.4987L33.2087 49.303C33.3792 49.4865 33.6324 49.5686 33.8775 49.5189C34.1235 49.4707 34.3261 49.2978 34.4135 49.0637L35.2758 46.7582C35.4755 46.7009 35.6737 46.6397 35.871 46.5771L37.8693 48.0165C38.0724 48.1622 38.337 48.1933 38.5678 48.0972C38.799 48.0022 38.9643 47.7925 39.0044 47.5455L39.4009 45.1148C39.5843 45.0198 39.7659 44.9209 39.9469 44.822L42.1893 45.8438C42.4172 45.948 42.6824 45.927 42.8902 45.7879C43.0984 45.6485 43.2198 45.412 43.2107 45.1617L43.1247 42.6933C43.2843 42.5657 43.4424 42.4372 43.5981 42.3044L46.0015 42.8705C46.2457 42.9278 46.5017 42.8567 46.678 42.6785C46.8557 42.5012 46.9278 42.2466 46.8705 42.003L46.3044 39.5986C46.4363 39.4424 46.5662 39.2852 46.6933 39.1247L49.1612 39.2112C49.4101 39.2212 49.648 39.0994 49.787 38.8906C49.9265 38.6824 49.948 38.4172 49.8434 38.1893L48.8215 35.9474C48.9214 35.7664 49.0193 35.5848 49.1139 35.4004L51.5455 35.0049C51.7929 34.9652 52.0012 34.7999 52.0968 34.5682C52.1923 34.3375 52.1622 34.0733 52.0156 33.8698L50.5771 31.8715C50.6392 31.6742 50.6999 31.476 50.7577 31.2763L53.0637 30.414C53.2982 30.3261 53.4712 30.124 53.5189 29.878C53.5686 29.6324 53.4865 29.3797 53.303 29.2092L51.4991 27.5262C51.5211 27.3231 51.5412 27.1187 51.5589 26.9147L53.658 25.6153C53.8705 25.4844 54 25.2518 54 25.0014C54 24.7511 53.871 24.5185 53.6584 24.3871ZM39.6092 41.8004C38.8076 41.6275 38.2978 40.8373 38.4698 40.0333C38.6413 39.2303 39.431 38.7191 40.2321 38.8921C41.0337 39.0636 41.5444 39.8552 41.3724 40.6577C41.2005 41.4603 40.4103 41.9719 39.6092 41.8004ZM38.896 36.9764C38.1646 36.8197 37.4451 37.285 37.2884 38.0178L36.5432 41.4956C34.2434 42.5395 31.6896 43.1194 29 43.1194C26.2488 43.1194 23.6395 42.5108 21.2987 41.4226L20.5539 37.9448C20.3972 37.2129 19.6778 36.7466 18.9469 36.9038L15.8766 37.5631C15.3067 36.9764 14.7764 36.3516 14.2891 35.6918H29.2283C29.3975 35.6918 29.5102 35.6613 29.5102 35.5074V30.2229C29.5102 30.0691 29.3975 30.0385 29.2283 30.0385H24.8591V26.6887H29.5847C30.0161 26.6887 31.8912 26.812 32.4907 29.2087C32.6784 29.9458 33.0907 32.3435 33.3726 33.1112C33.6535 33.972 34.7971 35.6918 36.0158 35.6918H43.4601C43.5446 35.6918 43.6349 35.6823 43.73 35.6651C43.2136 36.3668 42.647 37.0309 42.037 37.6514L38.896 36.9764ZM18.2336 41.7278C17.432 41.9007 16.6428 41.3896 16.4704 40.5865C16.2989 39.7821 16.8086 38.9924 17.6102 38.8195C18.4118 38.648 19.2015 39.1591 19.3735 39.9622C19.545 40.7647 19.0348 41.5558 18.2336 41.7278ZM12.5665 18.7471C12.899 19.4976 12.5607 20.3771 11.8112 20.7091C11.0616 21.0421 10.1846 20.7034 9.85206 19.9524C9.51957 19.2014 9.85779 18.3234 10.6073 17.9904C11.3574 17.6579 12.234 17.9962 12.5665 18.7471ZM10.8247 22.8761L14.023 21.4548C14.7062 21.1515 15.0148 20.3508 14.7114 19.6663L14.0526 18.1767H16.6433V29.8541H11.4166C10.9632 28.2604 10.7201 26.5784 10.7201 24.84C10.7201 24.1764 10.7559 23.5205 10.8247 22.8761ZM24.8601 21.742V18.3H31.0294C31.348 18.3 33.2794 18.6683 33.2794 20.1125C33.2794 21.3115 31.798 21.7415 30.5798 21.7415L24.8601 21.742ZM47.2804 24.84C47.2804 25.2967 47.2637 25.7486 47.2302 26.1972H45.3547C45.167 26.1972 45.0915 26.3204 45.0915 26.5043V27.3657C45.0915 29.3931 43.9483 29.834 42.9465 29.9463C41.9925 30.0538 40.9349 29.5469 40.8044 28.9632C40.2417 25.7978 39.3039 25.1218 37.823 23.9538C39.6608 22.7867 41.5731 21.065 41.5731 18.7605C41.5731 16.2721 39.8672 14.7047 38.7044 13.936C37.073 12.8607 35.2667 12.6452 34.7794 12.6452H15.3826C18.0129 9.70964 21.5777 7.63013 25.6096 6.87342L27.896 9.27205C28.4129 9.81331 29.269 9.83337 29.8097 9.316L32.3679 6.86912C37.7284 7.86708 42.2667 11.2039 44.8823 15.7819L43.1309 19.7374C42.8285 20.422 43.1371 21.2227 43.8198 21.526L47.1915 23.0237C47.2498 23.6223 47.2804 24.2271 47.2804 24.84ZM27.8969 4.83308C28.4893 4.26555 29.429 4.28801 29.996 4.88133C30.5621 5.47609 30.5406 6.41672 29.9468 6.98378C29.3545 7.55131 28.4148 7.52933 27.8477 6.93505C27.2821 6.34124 27.3036 5.40061 27.8969 4.83308ZM45.2764 18.8193C45.6084 18.0688 46.4855 17.7301 47.235 18.063C47.9846 18.3955 48.3228 19.2745 47.9903 20.025C47.6583 20.776 46.7812 21.1147 46.0312 20.7817C45.2826 20.4492 44.9444 19.5707 45.2764 18.8193Z" stroke="black" mask="url(#path-1-inside-1_2118_6723)"/>
</g>
<defs>
<filter id="filter0_d_2118_6723" x="0" y="0" width="58" height="58.001" filterUnits="userSpaceOnUse" color-interpolation-filters="sRGB">
<feFlood flood-opacity="0" result="BackgroundImageFix"/>
<feColorMatrix in="SourceAlpha" type="matrix" values="0 0 0 0 0 0 0 0 0 0 0 0 0 0 0 0 0 0 127 0" result="hardAlpha"/>
<feOffset dy="4"/>
<feGaussianBlur stdDeviation="2"/>
<feComposite in2="hardAlpha" operator="out"/>
<feColorMatrix type="matrix" values="0 0 0 0 0 0 0 0 0 0 0 0 0 0 0 0 0 0 0.25 0"/>
<feBlend mode="normal" in2="BackgroundImageFix" result="effect1_dropShadow_2118_6723"/>
<feBlend mode="normal" in="SourceGraphic" in2="effect1_dropShadow_2118_6723" result="shape"/>
</filter>
</defs>
</svg>
