<svg width="68" height="63" viewBox="0 0 68 63" fill="none" xmlns="http://www.w3.org/2000/svg">
<g filter="url(#filter0_d_22_48)">
<mask id="path-1-inside-1_22_48" fill="white">
<path d="M40.0046 28.7124C40.0253 28.7745 40.0391 28.8297 40.0046 28.7124ZM51.1982 5.5035C49.809 6.89199 48.7576 8.58127 48.1253 10.4408C46.8961 10.0265 45.7568 9.72957 45.1491 9.26001C44.4378 8.71449 43.9752 8.43137 43.3261 7.58892C42.677 6.74647 42.0555 5.25491 41.9726 5.18586C41.8898 5.11681 41.4202 4.82678 40.5225 5.71067C39.6248 6.59455 39.0379 7.54058 39.1829 7.86513C39.4546 8.45153 39.7733 9.015 40.1358 9.55004C40.7849 10.5168 42.0486 15.026 42.6355 17.4497C41.7447 17.1666 40.9714 16.9042 40.5018 16.5451C39.7905 15.9996 39.3279 15.7165 38.6788 14.8741C38.0297 14.0316 37.4082 12.54 37.3253 12.471C37.2425 12.4019 36.7729 12.1119 35.8752 12.9958C34.9775 13.8797 34.3906 14.8257 34.5356 15.1503C34.6806 15.4748 35.1363 16.1239 35.4885 16.8352C35.8407 17.5464 38.4854 24.5139 39.1691 26.33C39.5143 27.2553 39.7767 28.0149 39.9425 28.5397C39.9701 28.6226 39.9839 28.6778 39.9977 28.7193C39.9839 28.664 39.9632 28.6157 39.977 28.6295C40.122 29.0783 40.198 29.3338 40.198 29.3338L40.2049 29.3407C40.3084 29.6791 40.3775 30.0106 40.3153 30.0727C40.2739 30.1141 39.6041 29.6239 38.9619 28.6778C37.6154 26.6822 35.7854 23.3193 35.6888 23.2364C35.6335 23.195 35.3366 22.5942 34.4458 23.0016C33.5895 23.4021 33.7415 24.0098 33.6862 24.0651C33.631 24.1203 33.7276 24.2998 33.7276 24.2998C33.7276 24.2998 31.4972 20.6745 29.4602 22.7116C28.1896 23.9822 27.8167 27.1448 28.2103 29.2786C27.9617 30.121 27.4231 31.9441 26.8637 33.8706C26.6497 34.6095 26.4287 35.3691 26.2215 36.0873C26.1525 36.0873 26.0903 36.0803 26.0213 36.0803C20.9113 35.9146 14.4825 38.6146 11.1334 34.8788C9.91113 33.5185 6.96946 29.6791 11.1127 17.3047C14.5101 7.16769 20.8492 2.67922 23.8323 3.8117C28.1067 5.40683 29.3359 15.1019 23.0934 22.9188C20.7111 25.895 18.2666 26.2679 17.5277 26.2333C16.7543 26.1919 16.6784 26.2264 16.6162 26.4405C16.5126 26.7927 17.0167 27.0067 17.3137 27.1379C18.0663 27.4763 19.8963 27.5799 21.8505 26.5924C23.563 25.7223 26.9397 22.8152 29.2668 17.5464C31.8908 11.6354 30.6341 3.73574 25.8279 0.876927C20.9528 -2.03713 13.2188 3.14188 9.28275 11.4145C6.93493 16.3449 5.02906 22.3111 4.84261 27.787C4.62855 34.2988 6.83135 37.5788 8.19861 38.5041C13.0531 41.7842 21.3118 38.8287 25.5172 38.5456C25.4689 38.7182 25.4205 38.877 25.3791 39.0289C24.8129 40.7138 22.7758 47.2256 24.0671 50.6575C25.5379 54.5452 28.8663 55.0562 30.054 54.3933C33.7415 52.3079 35.2537 47.9092 34.4734 43.9524C33.6931 39.9957 30.4062 37.0954 28.2655 36.4187C28.2379 36.4049 28.2103 36.4049 28.1827 36.3911C28.3001 35.9284 28.4243 35.4589 28.5486 34.9893C28.7834 34.0778 29.032 33.2077 29.253 32.4481C29.7226 33.4701 30.42 34.5681 31.6146 35.9699C33.0095 37.6133 35.6059 38.953 37.1941 38.9115C37.8916 38.8908 38.3335 38.4627 38.6028 38.1934C39.5558 37.2404 39.1967 36.0251 38.734 34.6095C38.1747 32.8763 37.3599 31.0256 37.3599 31.0256C37.3599 31.0256 40.3153 35.2793 42.09 33.5047C42.7391 32.8556 42.5527 31.3709 42.4146 30.6528L42.4215 30.6597C42.4215 30.6597 42.4077 30.6182 42.3869 30.5285C42.3524 30.3558 42.3248 30.2591 42.3248 30.2591L42.3041 30.2384C42.1176 29.5272 41.6619 27.9251 40.8263 25.3633C39.7491 22.0487 38.078 18.237 38.078 18.237C38.784 18.7362 39.5222 19.1884 40.2877 19.5904C41.1371 20.0531 42.2626 20.3638 43.2846 20.7367C43.3813 21.3582 43.4297 21.7241 43.4297 21.7241C43.4354 21.729 43.4428 21.7315 43.4504 21.7311C43.5194 22.2144 43.5816 22.7461 43.6299 23.2778C43.7956 25.2113 43.9476 27.4625 44.1547 27.9459C44.3964 28.519 44.7417 28.7814 45.2941 28.6985C45.7084 28.6433 46.1504 28.2566 46.5509 27.787C47.2897 26.9377 47.6557 26.185 47.8007 25.7914C48.1195 25.1167 48.3426 24.4009 48.4636 23.6645C48.6915 22.1661 48.3048 20.7298 47.055 19.5766C46.3644 18.9413 45.4874 18.4924 44.6036 18.1334C44.569 17.9469 44.5345 17.7467 44.4931 17.5533C43.8578 14.1973 42.7253 10.9518 42.7253 10.9518C43.4313 11.4511 44.1695 11.9032 44.935 12.3053C45.6601 12.6989 46.5992 12.9889 47.4969 13.2927C47.2552 15.6198 47.6695 17.6224 48.1874 18.6927C49.1473 20.6745 50.2107 20.9369 51.1153 20.3362C51.5227 20.0669 51.8473 19.4247 52.0544 18.9137C52.4103 18.2026 52.6549 17.441 52.7795 16.6556C53.0074 15.1572 52.9521 13.4308 51.6884 12.2776C51.1222 11.7528 50.4248 11.3592 49.6997 11.0347C50.3281 9.49479 51.4882 7.83751 53.4907 6.24928C57.7859 2.85186 60.9416 4.50223 61.7979 5.64852C62.6541 6.79481 62.4055 8.16206 62.3019 8.5971C62.1984 9.03213 62.1776 9.17715 62.3227 9.28073C62.5367 9.42574 62.6541 9.29454 62.8406 9.02523C63.103 8.65234 64.0421 6.19404 62.2605 4.26054C60.0232 1.80224 55.1825 1.47769 51.2051 5.4966L51.1982 5.5035ZM31.5525 45.1332C31.6699 47.7918 30.4131 50.0982 29.2047 50.4227C27.9134 50.7611 26.1939 48.3926 26.2837 45.3473C26.3389 43.4967 26.7394 41.4389 27.0433 40.1131C27.1192 39.8161 27.2228 39.3811 27.354 38.8494C27.3747 38.7596 27.3885 38.7182 27.3885 38.7182C27.4093 38.6146 27.4438 38.511 27.4714 38.4005C30.1438 39.9266 31.442 42.3297 31.5594 45.1263L31.5525 45.1332ZM34.5218 29.541C35.164 31.0671 36.9939 34.7614 36.2826 35.1827C35.675 35.5417 33.2719 33.7325 31.8839 30.9773C31.1865 29.5893 30.6755 27.6144 30.6272 26.696C30.5443 25.2182 31.0622 24.2032 31.5525 24.3344C32.2016 24.5001 34.1213 28.5881 34.5218 29.541ZM45.8465 25.5359C45.7568 25.819 45.6463 26.0538 45.5151 26.0883C45.4184 26.1159 45.4253 25.8466 45.4253 25.8466C45.4253 25.8466 45.3562 23.8579 45.2665 23.0085C45.2112 22.5114 45.1422 21.9313 45.0593 21.296C45.0938 21.3305 45.1353 21.3582 45.1767 21.3996C46.4059 22.6426 46.0537 24.6658 45.8465 25.5359ZM50.411 18.2784C50.1762 18.3198 49.8723 17.9745 49.3268 16.5037C49.1127 15.9306 48.8642 14.8533 48.947 13.4999C49.2689 13.659 49.5646 13.8663 49.824 14.1145C51.3708 15.6751 50.8391 17.3669 50.411 18.2784Z"/>
</mask>
<path d="M40.0046 28.7124C40.0253 28.7745 40.0391 28.8297 40.0046 28.7124ZM51.1982 5.5035C49.809 6.89199 48.7576 8.58127 48.1253 10.4408C46.8961 10.0265 45.7568 9.72957 45.1491 9.26001C44.4378 8.71449 43.9752 8.43137 43.3261 7.58892C42.677 6.74647 42.0555 5.25491 41.9726 5.18586C41.8898 5.11681 41.4202 4.82678 40.5225 5.71067C39.6248 6.59455 39.0379 7.54058 39.1829 7.86513C39.4546 8.45153 39.7733 9.015 40.1358 9.55004C40.7849 10.5168 42.0486 15.026 42.6355 17.4497C41.7447 17.1666 40.9714 16.9042 40.5018 16.5451C39.7905 15.9996 39.3279 15.7165 38.6788 14.8741C38.0297 14.0316 37.4082 12.54 37.3253 12.471C37.2425 12.4019 36.7729 12.1119 35.8752 12.9958C34.9775 13.8797 34.3906 14.8257 34.5356 15.1503C34.6806 15.4748 35.1363 16.1239 35.4885 16.8352C35.8407 17.5464 38.4854 24.5139 39.1691 26.33C39.5143 27.2553 39.7767 28.0149 39.9425 28.5397C39.9701 28.6226 39.9839 28.6778 39.9977 28.7193C39.9839 28.664 39.9632 28.6157 39.977 28.6295C40.122 29.0783 40.198 29.3338 40.198 29.3338L40.2049 29.3407C40.3084 29.6791 40.3775 30.0106 40.3153 30.0727C40.2739 30.1141 39.6041 29.6239 38.9619 28.6778C37.6154 26.6822 35.7854 23.3193 35.6888 23.2364C35.6335 23.195 35.3366 22.5942 34.4458 23.0016C33.5895 23.4021 33.7415 24.0098 33.6862 24.0651C33.631 24.1203 33.7276 24.2998 33.7276 24.2998C33.7276 24.2998 31.4972 20.6745 29.4602 22.7116C28.1896 23.9822 27.8167 27.1448 28.2103 29.2786C27.9617 30.121 27.4231 31.9441 26.8637 33.8706C26.6497 34.6095 26.4287 35.3691 26.2215 36.0873C26.1525 36.0873 26.0903 36.0803 26.0213 36.0803C20.9113 35.9146 14.4825 38.6146 11.1334 34.8788C9.91113 33.5185 6.96946 29.6791 11.1127 17.3047C14.5101 7.16769 20.8492 2.67922 23.8323 3.8117C28.1067 5.40683 29.3359 15.1019 23.0934 22.9188C20.7111 25.895 18.2666 26.2679 17.5277 26.2333C16.7543 26.1919 16.6784 26.2264 16.6162 26.4405C16.5126 26.7927 17.0167 27.0067 17.3137 27.1379C18.0663 27.4763 19.8963 27.5799 21.8505 26.5924C23.563 25.7223 26.9397 22.8152 29.2668 17.5464C31.8908 11.6354 30.6341 3.73574 25.8279 0.876927C20.9528 -2.03713 13.2188 3.14188 9.28275 11.4145C6.93493 16.3449 5.02906 22.3111 4.84261 27.787C4.62855 34.2988 6.83135 37.5788 8.19861 38.5041C13.0531 41.7842 21.3118 38.8287 25.5172 38.5456C25.4689 38.7182 25.4205 38.877 25.3791 39.0289C24.8129 40.7138 22.7758 47.2256 24.0671 50.6575C25.5379 54.5452 28.8663 55.0562 30.054 54.3933C33.7415 52.3079 35.2537 47.9092 34.4734 43.9524C33.6931 39.9957 30.4062 37.0954 28.2655 36.4187C28.2379 36.4049 28.2103 36.4049 28.1827 36.3911C28.3001 35.9284 28.4243 35.4589 28.5486 34.9893C28.7834 34.0778 29.032 33.2077 29.253 32.4481C29.7226 33.4701 30.42 34.5681 31.6146 35.9699C33.0095 37.6133 35.6059 38.953 37.1941 38.9115C37.8916 38.8908 38.3335 38.4627 38.6028 38.1934C39.5558 37.2404 39.1967 36.0251 38.734 34.6095C38.1747 32.8763 37.3599 31.0256 37.3599 31.0256C37.3599 31.0256 40.3153 35.2793 42.09 33.5047C42.7391 32.8556 42.5527 31.3709 42.4146 30.6528L42.4215 30.6597C42.4215 30.6597 42.4077 30.6182 42.3869 30.5285C42.3524 30.3558 42.3248 30.2591 42.3248 30.2591L42.3041 30.2384C42.1176 29.5272 41.6619 27.9251 40.8263 25.3633C39.7491 22.0487 38.078 18.237 38.078 18.237C38.784 18.7362 39.5222 19.1884 40.2877 19.5904C41.1371 20.0531 42.2626 20.3638 43.2846 20.7367C43.3813 21.3582 43.4297 21.7241 43.4297 21.7241C43.4354 21.729 43.4428 21.7315 43.4504 21.7311C43.5194 22.2144 43.5816 22.7461 43.6299 23.2778C43.7956 25.2113 43.9476 27.4625 44.1547 27.9459C44.3964 28.519 44.7417 28.7814 45.2941 28.6985C45.7084 28.6433 46.1504 28.2566 46.5509 27.787C47.2897 26.9377 47.6557 26.185 47.8007 25.7914C48.1195 25.1167 48.3426 24.4009 48.4636 23.6645C48.6915 22.1661 48.3048 20.7298 47.055 19.5766C46.3644 18.9413 45.4874 18.4924 44.6036 18.1334C44.569 17.9469 44.5345 17.7467 44.4931 17.5533C43.8578 14.1973 42.7253 10.9518 42.7253 10.9518C43.4313 11.4511 44.1695 11.9032 44.935 12.3053C45.6601 12.6989 46.5992 12.9889 47.4969 13.2927C47.2552 15.6198 47.6695 17.6224 48.1874 18.6927C49.1473 20.6745 50.2107 20.9369 51.1153 20.3362C51.5227 20.0669 51.8473 19.4247 52.0544 18.9137C52.4103 18.2026 52.6549 17.441 52.7795 16.6556C53.0074 15.1572 52.9521 13.4308 51.6884 12.2776C51.1222 11.7528 50.4248 11.3592 49.6997 11.0347C50.3281 9.49479 51.4882 7.83751 53.4907 6.24928C57.7859 2.85186 60.9416 4.50223 61.7979 5.64852C62.6541 6.79481 62.4055 8.16206 62.3019 8.5971C62.1984 9.03213 62.1776 9.17715 62.3227 9.28073C62.5367 9.42574 62.6541 9.29454 62.8406 9.02523C63.103 8.65234 64.0421 6.19404 62.2605 4.26054C60.0232 1.80224 55.1825 1.47769 51.2051 5.4966L51.1982 5.5035ZM31.5525 45.1332C31.6699 47.7918 30.4131 50.0982 29.2047 50.4227C27.9134 50.7611 26.1939 48.3926 26.2837 45.3473C26.3389 43.4967 26.7394 41.4389 27.0433 40.1131C27.1192 39.8161 27.2228 39.3811 27.354 38.8494C27.3747 38.7596 27.3885 38.7182 27.3885 38.7182C27.4093 38.6146 27.4438 38.511 27.4714 38.4005C30.1438 39.9266 31.442 42.3297 31.5594 45.1263L31.5525 45.1332ZM34.5218 29.541C35.164 31.0671 36.9939 34.7614 36.2826 35.1827C35.675 35.5417 33.2719 33.7325 31.8839 30.9773C31.1865 29.5893 30.6755 27.6144 30.6272 26.696C30.5443 25.2182 31.0622 24.2032 31.5525 24.3344C32.2016 24.5001 34.1213 28.5881 34.5218 29.541ZM45.8465 25.5359C45.7568 25.819 45.6463 26.0538 45.5151 26.0883C45.4184 26.1159 45.4253 25.8466 45.4253 25.8466C45.4253 25.8466 45.3562 23.8579 45.2665 23.0085C45.2112 22.5114 45.1422 21.9313 45.0593 21.296C45.0938 21.3305 45.1353 21.3582 45.1767 21.3996C46.4059 22.6426 46.0537 24.6658 45.8465 25.5359ZM50.411 18.2784C50.1762 18.3198 49.8723 17.9745 49.3268 16.5037C49.1127 15.9306 48.8642 14.8533 48.947 13.4999C49.2689 13.659 49.5646 13.8663 49.824 14.1145C51.3708 15.6751 50.8391 17.3669 50.411 18.2784Z" fill="#F5C07B"/>
<path d="M40.0046 28.7124C40.0253 28.7745 40.0391 28.8297 40.0046 28.7124ZM51.1982 5.5035C49.809 6.89199 48.7576 8.58127 48.1253 10.4408C46.8961 10.0265 45.7568 9.72957 45.1491 9.26001C44.4378 8.71449 43.9752 8.43137 43.3261 7.58892C42.677 6.74647 42.0555 5.25491 41.9726 5.18586C41.8898 5.11681 41.4202 4.82678 40.5225 5.71067C39.6248 6.59455 39.0379 7.54058 39.1829 7.86513C39.4546 8.45153 39.7733 9.015 40.1358 9.55004C40.7849 10.5168 42.0486 15.026 42.6355 17.4497C41.7447 17.1666 40.9714 16.9042 40.5018 16.5451C39.7905 15.9996 39.3279 15.7165 38.6788 14.8741C38.0297 14.0316 37.4082 12.54 37.3253 12.471C37.2425 12.4019 36.7729 12.1119 35.8752 12.9958C34.9775 13.8797 34.3906 14.8257 34.5356 15.1503C34.6806 15.4748 35.1363 16.1239 35.4885 16.8352C35.8407 17.5464 38.4854 24.5139 39.1691 26.33C39.5143 27.2553 39.7767 28.0149 39.9425 28.5397C39.9701 28.6226 39.9839 28.6778 39.9977 28.7193C39.9839 28.664 39.9632 28.6157 39.977 28.6295C40.122 29.0783 40.198 29.3338 40.198 29.3338L40.2049 29.3407C40.3084 29.6791 40.3775 30.0106 40.3153 30.0727C40.2739 30.1141 39.6041 29.6239 38.9619 28.6778C37.6154 26.6822 35.7854 23.3193 35.6888 23.2364C35.6335 23.195 35.3366 22.5942 34.4458 23.0016C33.5895 23.4021 33.7415 24.0098 33.6862 24.0651C33.631 24.1203 33.7276 24.2998 33.7276 24.2998C33.7276 24.2998 31.4972 20.6745 29.4602 22.7116C28.1896 23.9822 27.8167 27.1448 28.2103 29.2786C27.9617 30.121 27.4231 31.9441 26.8637 33.8706C26.6497 34.6095 26.4287 35.3691 26.2215 36.0873C26.1525 36.0873 26.0903 36.0803 26.0213 36.0803C20.9113 35.9146 14.4825 38.6146 11.1334 34.8788C9.91113 33.5185 6.96946 29.6791 11.1127 17.3047C14.5101 7.16769 20.8492 2.67922 23.8323 3.8117C28.1067 5.40683 29.3359 15.1019 23.0934 22.9188C20.7111 25.895 18.2666 26.2679 17.5277 26.2333C16.7543 26.1919 16.6784 26.2264 16.6162 26.4405C16.5126 26.7927 17.0167 27.0067 17.3137 27.1379C18.0663 27.4763 19.8963 27.5799 21.8505 26.5924C23.563 25.7223 26.9397 22.8152 29.2668 17.5464C31.8908 11.6354 30.6341 3.73574 25.8279 0.876927C20.9528 -2.03713 13.2188 3.14188 9.28275 11.4145C6.93493 16.3449 5.02906 22.3111 4.84261 27.787C4.62855 34.2988 6.83135 37.5788 8.19861 38.5041C13.0531 41.7842 21.3118 38.8287 25.5172 38.5456C25.4689 38.7182 25.4205 38.877 25.3791 39.0289C24.8129 40.7138 22.7758 47.2256 24.0671 50.6575C25.5379 54.5452 28.8663 55.0562 30.054 54.3933C33.7415 52.3079 35.2537 47.9092 34.4734 43.9524C33.6931 39.9957 30.4062 37.0954 28.2655 36.4187C28.2379 36.4049 28.2103 36.4049 28.1827 36.3911C28.3001 35.9284 28.4243 35.4589 28.5486 34.9893C28.7834 34.0778 29.032 33.2077 29.253 32.4481C29.7226 33.4701 30.42 34.5681 31.6146 35.9699C33.0095 37.6133 35.6059 38.953 37.1941 38.9115C37.8916 38.8908 38.3335 38.4627 38.6028 38.1934C39.5558 37.2404 39.1967 36.0251 38.734 34.6095C38.1747 32.8763 37.3599 31.0256 37.3599 31.0256C37.3599 31.0256 40.3153 35.2793 42.09 33.5047C42.7391 32.8556 42.5527 31.3709 42.4146 30.6528L42.4215 30.6597C42.4215 30.6597 42.4077 30.6182 42.3869 30.5285C42.3524 30.3558 42.3248 30.2591 42.3248 30.2591L42.3041 30.2384C42.1176 29.5272 41.6619 27.9251 40.8263 25.3633C39.7491 22.0487 38.078 18.237 38.078 18.237C38.784 18.7362 39.5222 19.1884 40.2877 19.5904C41.1371 20.0531 42.2626 20.3638 43.2846 20.7367C43.3813 21.3582 43.4297 21.7241 43.4297 21.7241C43.4354 21.729 43.4428 21.7315 43.4504 21.7311C43.5194 22.2144 43.5816 22.7461 43.6299 23.2778C43.7956 25.2113 43.9476 27.4625 44.1547 27.9459C44.3964 28.519 44.7417 28.7814 45.2941 28.6985C45.7084 28.6433 46.1504 28.2566 46.5509 27.787C47.2897 26.9377 47.6557 26.185 47.8007 25.7914C48.1195 25.1167 48.3426 24.4009 48.4636 23.6645C48.6915 22.1661 48.3048 20.7298 47.055 19.5766C46.3644 18.9413 45.4874 18.4924 44.6036 18.1334C44.569 17.9469 44.5345 17.7467 44.4931 17.5533C43.8578 14.1973 42.7253 10.9518 42.7253 10.9518C43.4313 11.4511 44.1695 11.9032 44.935 12.3053C45.6601 12.6989 46.5992 12.9889 47.4969 13.2927C47.2552 15.6198 47.6695 17.6224 48.1874 18.6927C49.1473 20.6745 50.2107 20.9369 51.1153 20.3362C51.5227 20.0669 51.8473 19.4247 52.0544 18.9137C52.4103 18.2026 52.6549 17.441 52.7795 16.6556C53.0074 15.1572 52.9521 13.4308 51.6884 12.2776C51.1222 11.7528 50.4248 11.3592 49.6997 11.0347C50.3281 9.49479 51.4882 7.83751 53.4907 6.24928C57.7859 2.85186 60.9416 4.50223 61.7979 5.64852C62.6541 6.79481 62.4055 8.16206 62.3019 8.5971C62.1984 9.03213 62.1776 9.17715 62.3227 9.28073C62.5367 9.42574 62.6541 9.29454 62.8406 9.02523C63.103 8.65234 64.0421 6.19404 62.2605 4.26054C60.0232 1.80224 55.1825 1.47769 51.2051 5.4966L51.1982 5.5035ZM31.5525 45.1332C31.6699 47.7918 30.4131 50.0982 29.2047 50.4227C27.9134 50.7611 26.1939 48.3926 26.2837 45.3473C26.3389 43.4967 26.7394 41.4389 27.0433 40.1131C27.1192 39.8161 27.2228 39.3811 27.354 38.8494C27.3747 38.7596 27.3885 38.7182 27.3885 38.7182C27.4093 38.6146 27.4438 38.511 27.4714 38.4005C30.1438 39.9266 31.442 42.3297 31.5594 45.1263L31.5525 45.1332ZM34.5218 29.541C35.164 31.0671 36.9939 34.7614 36.2826 35.1827C35.675 35.5417 33.2719 33.7325 31.8839 30.9773C31.1865 29.5893 30.6755 27.6144 30.6272 26.696C30.5443 25.2182 31.0622 24.2032 31.5525 24.3344C32.2016 24.5001 34.1213 28.5881 34.5218 29.541ZM45.8465 25.5359C45.7568 25.819 45.6463 26.0538 45.5151 26.0883C45.4184 26.1159 45.4253 25.8466 45.4253 25.8466C45.4253 25.8466 45.3562 23.8579 45.2665 23.0085C45.2112 22.5114 45.1422 21.9313 45.0593 21.296C45.0938 21.3305 45.1353 21.3582 45.1767 21.3996C46.4059 22.6426 46.0537 24.6658 45.8465 25.5359ZM50.411 18.2784C50.1762 18.3198 49.8723 17.9745 49.3268 16.5037C49.1127 15.9306 48.8642 14.8533 48.947 13.4999C49.2689 13.659 49.5646 13.8663 49.824 14.1145C51.3708 15.6751 50.8391 17.3669 50.411 18.2784Z" stroke="black" mask="url(#path-1-inside-1_22_48)"/>
</g>
<defs>
<filter id="filter0_d_22_48" x="0.828125" y="0.0580444" width="66.4945" height="62.5796" filterUnits="userSpaceOnUse" color-interpolation-filters="sRGB">
<feFlood flood-opacity="0" result="BackgroundImageFix"/>
<feColorMatrix in="SourceAlpha" type="matrix" values="0 0 0 0 0 0 0 0 0 0 0 0 0 0 0 0 0 0 127 0" result="hardAlpha"/>
<feOffset dy="4"/>
<feGaussianBlur stdDeviation="2"/>
<feComposite in2="hardAlpha" operator="out"/>
<feColorMatrix type="matrix" values="0 0 0 0 0 0 0 0 0 0 0 0 0 0 0 0 0 0 0.25 0"/>
<feBlend mode="normal" in2="BackgroundImageFix" result="effect1_dropShadow_22_48"/>
<feBlend mode="normal" in="SourceGraphic" in2="effect1_dropShadow_22_48" result="shape"/>
</filter>
</defs>
</svg>
