<svg width="80" height="80" viewBox="0 0 80 80" fill="none" xmlns="http://www.w3.org/2000/svg">
<g clip-path="url(#clip0_22_47)">
<path d="M47.0046 49.7124C47.0253 49.7745 47.0391 49.8297 47.0046 49.7124ZM58.1982 26.5035C56.809 27.892 55.7576 29.5813 55.1253 31.4408C53.8961 31.0265 52.7568 30.7296 52.1491 30.26C51.4378 29.7145 50.9752 29.4314 50.3261 28.5889C49.677 27.7465 49.0555 26.2549 48.9726 26.1859C48.8898 26.1168 48.4202 25.8268 47.5225 26.7107C46.6248 27.5945 46.0379 28.5406 46.1829 28.8651C46.4546 29.4515 46.7733 30.015 47.1358 30.55C47.7849 31.5168 49.0486 36.026 49.6355 38.4497C48.7447 38.1666 47.9714 37.9042 47.5018 37.5451C46.7905 36.9996 46.3279 36.7165 45.6788 35.8741C45.0297 35.0316 44.4082 33.54 44.3253 33.471C44.2425 33.4019 43.7729 33.1119 42.8752 33.9958C41.9775 34.8797 41.3906 35.8257 41.5356 36.1503C41.6806 36.4748 42.1363 37.1239 42.4885 37.8352C42.8407 38.5464 45.4854 45.5139 46.1691 47.33C46.5143 48.2553 46.7767 49.0149 46.9425 49.5397C46.9701 49.6226 46.9839 49.6778 46.9977 49.7193C46.9839 49.664 46.9632 49.6157 46.977 49.6295C47.122 50.0783 47.198 50.3338 47.198 50.3338L47.2049 50.3407C47.3084 50.6791 47.3775 51.0106 47.3153 51.0727C47.2739 51.1141 46.6041 50.6239 45.9619 49.6778C44.6154 47.6822 42.7854 44.3193 42.6888 44.2364C42.6335 44.195 42.3366 43.5942 41.4458 44.0016C40.5895 44.4021 40.7415 45.0098 40.6862 45.0651C40.631 45.1203 40.7276 45.2998 40.7276 45.2998C40.7276 45.2998 38.4972 41.6745 36.4602 43.7116C35.1896 44.9822 34.8167 48.1448 35.2103 50.2786C34.9617 51.121 34.4231 52.9441 33.8637 54.8706C33.6497 55.6095 33.4287 56.3691 33.2215 57.0873C33.1525 57.0873 33.0903 57.0803 33.0213 57.0803C27.9113 56.9146 21.4825 59.6146 18.1334 55.8788C16.9111 54.5185 13.9695 50.6791 18.1127 38.3047C21.5101 28.1677 27.8492 23.6792 30.8323 24.8117C35.1067 26.4068 36.3359 36.1019 30.0934 43.9188C27.7111 46.895 25.2666 47.2679 24.5277 47.2333C23.7543 47.1919 23.6784 47.2264 23.6162 47.4405C23.5126 47.7927 24.0167 48.0067 24.3137 48.1379C25.0663 48.4763 26.8963 48.5799 28.8505 47.5924C30.563 46.7223 33.9397 43.8152 36.2668 38.5464C38.8908 32.6354 37.6341 24.7357 32.8279 21.8769C27.9528 18.9629 20.2188 24.1419 16.2827 32.4145C13.9349 37.3449 12.0291 43.3111 11.8426 48.787C11.6285 55.2988 13.8314 58.5788 15.1986 59.5041C20.0531 62.7842 28.3118 59.8287 32.5172 59.5456C32.4689 59.7182 32.4205 59.877 32.3791 60.0289C31.8129 61.7138 29.7758 68.2256 31.0671 71.6575C32.5379 75.5452 35.8663 76.0562 37.054 75.3933C40.7415 73.3079 42.2537 68.9092 41.4734 64.9524C40.6931 60.9957 37.4062 58.0954 35.2655 57.4187C35.2379 57.4049 35.2103 57.4049 35.1827 57.3911C35.3001 56.9284 35.4243 56.4589 35.5486 55.9893C35.7834 55.0778 36.032 54.2077 36.253 53.4481C36.7226 54.4701 37.42 55.5681 38.6146 56.9699C40.0095 58.6133 42.6059 59.953 44.1941 59.9115C44.8916 59.8908 45.3335 59.4627 45.6028 59.1934C46.5558 58.2404 46.1967 57.0251 45.734 55.6095C45.1747 53.8763 44.3599 52.0256 44.3599 52.0256C44.3599 52.0256 47.3153 56.2793 49.09 54.5047C49.7391 53.8556 49.5527 52.3709 49.4146 51.6528L49.4215 51.6597C49.4215 51.6597 49.4077 51.6182 49.3869 51.5285C49.3524 51.3558 49.3248 51.2591 49.3248 51.2591L49.3041 51.2384C49.1176 50.5272 48.6619 48.9251 47.8263 46.3633C46.7491 43.0487 45.078 39.237 45.078 39.237C45.784 39.7362 46.5222 40.1884 47.2877 40.5904C48.1371 41.0531 49.2626 41.3638 50.2846 41.7367C50.3813 42.3582 50.4297 42.7241 50.4297 42.7241C50.4354 42.729 50.4428 42.7315 50.4504 42.7311C50.5194 43.2144 50.5816 43.7461 50.6299 44.2778C50.7956 46.2113 50.9476 48.4625 51.1547 48.9459C51.3964 49.519 51.7417 49.7814 52.2941 49.6985C52.7084 49.6433 53.1504 49.2566 53.5509 48.787C54.2897 47.9377 54.6557 47.185 54.8007 46.7914C55.1195 46.1167 55.3426 45.4009 55.4636 44.6645C55.6915 43.1661 55.3048 41.7298 54.055 40.5766C53.3644 39.9413 52.4874 39.4924 51.6036 39.1334C51.569 38.9469 51.5345 38.7467 51.4931 38.5533C50.8578 35.1973 49.7253 31.9518 49.7253 31.9518C50.4313 32.4511 51.1695 32.9032 51.935 33.3053C52.6601 33.6989 53.5992 33.9889 54.4969 34.2927C54.2552 36.6198 54.6695 38.6224 55.1874 39.6927C56.1473 41.6745 57.2107 41.9369 58.1153 41.3362C58.5227 41.0669 58.8473 40.4247 59.0544 39.9137C59.4103 39.2026 59.6549 38.441 59.7795 37.6556C60.0074 36.1572 59.9521 34.4308 58.6884 33.2776C58.1222 32.7528 57.4248 32.3592 56.6997 32.0347C57.3281 30.4948 58.4882 28.8375 60.4907 27.2493C64.7859 23.8519 67.9416 25.5022 68.7979 26.6485C69.6541 27.7948 69.4055 29.1621 69.3019 29.5971C69.1984 30.0321 69.1776 30.1771 69.3227 30.2807C69.5367 30.4257 69.6541 30.2945 69.8406 30.0252C70.103 29.6523 71.0421 27.194 69.2605 25.2605C67.0232 22.8022 62.1825 22.4777 58.2051 26.4966L58.1982 26.5035ZM38.5525 66.1332C38.6699 68.7918 37.4131 71.0982 36.2047 71.4227C34.9134 71.7611 33.1939 69.3926 33.2837 66.3473C33.3389 64.4967 33.7394 62.4389 34.0433 61.1131C34.1192 60.8161 34.2228 60.3811 34.354 59.8494C34.3747 59.7596 34.3885 59.7182 34.3885 59.7182C34.4093 59.6146 34.4438 59.511 34.4714 59.4005C37.1438 60.9266 38.442 63.3297 38.5594 66.1263L38.5525 66.1332ZM41.5218 50.541C42.164 52.0671 43.9939 55.7614 43.2826 56.1827C42.675 56.5417 40.2719 54.7325 38.8839 51.9773C38.1865 50.5893 37.6755 48.6144 37.6272 47.696C37.5443 46.2182 38.0622 45.2032 38.5525 45.3344C39.2016 45.5001 41.1213 49.5881 41.5218 50.541ZM52.8465 46.5359C52.7568 46.819 52.6463 47.0538 52.5151 47.0883C52.4184 47.1159 52.4253 46.8466 52.4253 46.8466C52.4253 46.8466 52.3562 44.8579 52.2665 44.0085C52.2112 43.5114 52.1422 42.9313 52.0593 42.296C52.0938 42.3305 52.1353 42.3582 52.1767 42.3996C53.4059 43.6426 53.0537 45.6658 52.8465 46.5359ZM57.411 39.2784C57.1762 39.3198 56.8723 38.9745 56.3268 37.5037C56.1127 36.9306 55.8642 35.8533 55.947 34.4999C56.2689 34.659 56.5646 34.8663 56.824 35.1145C58.3708 36.6751 57.8391 38.3669 57.411 39.2784Z" fill="#FFB858"/>
</g>
<defs>
<clipPath id="clip0_22_47">
<rect width="62.5" height="50" fill="white" transform="translate(0 44.3883) rotate(-45)"/>
</clipPath>
</defs>
</svg>
