<svg width="58" height="39" viewBox="0 0 58 39" fill="none" xmlns="http://www.w3.org/2000/svg">
<g filter="url(#filter0_d_2118_6673)">
<path d="M16.5 10.5C18.1667 3.83333 22.3333 0.5 29 0.5C39 0.5 40.25 8 45.25 9.25C48.5833 10.0833 51.5 8.83333 54 5.5C52.3333 12.1667 48.1667 15.5 41.5 15.5C31.5 15.5 30.25 8 25.25 6.75C21.9167 5.91667 19 7.16667 16.5 10.5ZM4 25.5C5.66667 18.8333 9.83333 15.5 16.5 15.5C26.5 15.5 27.75 23 32.75 24.25C36.0833 25.0833 39 23.8333 41.5 20.5C39.8333 27.1667 35.6667 30.5 29 30.5C19 30.5 17.75 23 12.75 21.75C9.41667 20.9167 6.5 22.1667 4 25.5Z" fill="#F5C07B"/>
<path d="M20.464 6.83271C19.2535 7.35152 18.1219 8.21297 17.067 9.40622C17.9209 6.68745 19.2461 4.62329 21.0312 3.19522C23.0601 1.57211 25.7089 0.75 29 0.75C33.9202 0.75 36.6748 2.58827 38.8299 4.58945C39.3491 5.07154 39.8331 5.56288 40.3072 6.04408L40.3698 6.1076C40.8623 6.60742 41.3459 7.09606 41.8406 7.54129C42.8307 8.4324 43.8824 9.1658 45.1894 9.49253C46.9044 9.92129 48.5232 9.81563 50.036 9.16728C51.2465 8.64848 52.3781 7.78703 53.433 6.59378C52.5791 9.31255 51.2539 11.3767 49.4688 12.8048C47.4399 14.4279 44.7911 15.25 41.5 15.25C36.5798 15.25 33.8252 13.4117 31.6701 11.4106C31.1509 10.9285 30.6669 10.4371 30.1928 9.95593L30.1302 9.8924C29.6377 9.39258 29.1541 8.90394 28.6594 8.45871C27.6693 7.5676 26.6176 6.8342 25.3106 6.50746C23.5956 6.07871 21.9768 6.18437 20.464 6.83271ZM7.96402 21.8327C6.75347 22.3515 5.62191 23.213 4.56697 24.4062C5.42093 21.6875 6.74608 19.6233 8.53117 18.1952C10.5601 16.5721 13.2089 15.75 16.5 15.75C21.4202 15.75 24.1748 17.5883 26.3299 19.5894C26.8491 20.0716 27.3332 20.5629 27.8073 21.0441L27.8698 21.1076C28.3623 21.6074 28.8459 22.0961 29.3406 22.5413C30.3307 23.4324 31.3824 24.1658 32.6894 24.4925C34.4044 24.9213 36.0232 24.8156 37.536 24.1673C38.7465 23.6485 39.8781 22.787 40.933 21.5938C40.0791 24.3125 38.7539 26.3767 36.9688 27.8048C34.9399 29.4279 32.2911 30.25 29 30.25C24.0798 30.25 21.3252 28.4117 19.1701 26.4106C18.651 25.9285 18.1669 25.4372 17.6929 24.956L17.6302 24.8924C17.1377 24.3926 16.6541 23.9039 16.1594 23.4587C15.1693 22.5676 14.1176 21.8342 12.8106 21.5075C11.0956 21.0787 9.47682 21.1844 7.96402 21.8327Z" stroke="black" stroke-width="0.5"/>
</g>
<defs>
<filter id="filter0_d_2118_6673" x="0" y="0.5" width="58" height="38" filterUnits="userSpaceOnUse" color-interpolation-filters="sRGB">
<feFlood flood-opacity="0" result="BackgroundImageFix"/>
<feColorMatrix in="SourceAlpha" type="matrix" values="0 0 0 0 0 0 0 0 0 0 0 0 0 0 0 0 0 0 127 0" result="hardAlpha"/>
<feOffset dy="4"/>
<feGaussianBlur stdDeviation="2"/>
<feComposite in2="hardAlpha" operator="out"/>
<feColorMatrix type="matrix" values="0 0 0 0 0 0 0 0 0 0 0 0 0 0 0 0 0 0 0.25 0"/>
<feBlend mode="normal" in2="BackgroundImageFix" result="effect1_dropShadow_2118_6673"/>
<feBlend mode="normal" in="SourceGraphic" in2="effect1_dropShadow_2118_6673" result="shape"/>
</filter>
</defs>
</svg>
