<svg width="73" height="73" viewBox="0 0 73 73" fill="none" xmlns="http://www.w3.org/2000/svg">
<g filter="url(#filter0_d_277_5)">
<path d="M37.1148 12.8749L37.07 12.6289L37.1148 12.8749L67.0045 7.42699C68.1754 7.21358 69.0661 8.45969 68.4853 9.49848L37.9899 64.0296C37.4553 64.9855 36.0817 64.9912 35.539 64.0398C35.539 64.0398 35.539 64.0398 35.539 64.0398L4.43892 9.50192C3.8477 8.46515 4.73425 7.20933 5.90912 7.41932C5.90912 7.41932 5.90912 7.41932 5.90912 7.41932L36.4371 12.876C36.6613 12.9161 36.8907 12.9157 37.1148 12.8749Z" fill="#FFB858" stroke="black" stroke-width="0.5"/>
<path d="M28.5038 4.68335L28.4565 4.44172L28.5038 4.68335L51.0713 0.261337C51.4962 0.178102 51.8586 0.57363 51.7387 0.989614C51.7387 0.989628 51.7387 0.989641 51.7387 0.989655L47.5175 15.6228C47.2942 16.3969 47.9674 17.1335 48.7584 16.981L48.7584 16.981L55.2258 15.7328C55.6972 15.6419 56.068 16.1312 55.8529 16.5602L56.0764 16.6722L55.8529 16.5602L37.4698 53.2469L37.1445 53.7497L37.3544 53.8855L37.1445 53.7497C36.7966 54.2874 35.9624 53.9454 36.092 53.3182L35.8472 53.2676L36.092 53.3182L39.0585 38.9599C39.2242 38.1583 38.4717 37.4717 37.6887 37.7094L37.6886 37.7094L33.8079 38.8885C33.3884 39.0159 32.985 38.6486 33.0727 38.2189L34.9394 29.078C35.0967 28.3085 34.4052 27.6345 33.64 27.811L33.64 27.811L27.3569 29.261C26.9806 29.3478 26.6264 29.0486 26.6492 28.6629C26.6492 28.6629 26.6492 28.6629 26.6492 28.6629L28.0374 5.21707C28.053 4.95359 28.2448 4.7341 28.5038 4.68335Z" fill="#FFB858" stroke="black" stroke-width="0.5"/>
</g>
<defs>
<filter id="filter0_d_277_5" x="0" y="0" width="72.9183" height="73" filterUnits="userSpaceOnUse" color-interpolation-filters="sRGB">
<feFlood flood-opacity="0" result="BackgroundImageFix"/>
<feColorMatrix in="SourceAlpha" type="matrix" values="0 0 0 0 0 0 0 0 0 0 0 0 0 0 0 0 0 0 127 0" result="hardAlpha"/>
<feOffset dy="4"/>
<feGaussianBlur stdDeviation="2"/>
<feComposite in2="hardAlpha" operator="out"/>
<feColorMatrix type="matrix" values="0 0 0 0 0 0 0 0 0 0 0 0 0 0 0 0 0 0 0.25 0"/>
<feBlend mode="normal" in2="BackgroundImageFix" result="effect1_dropShadow_277_5"/>
<feBlend mode="normal" in="SourceGraphic" in2="effect1_dropShadow_277_5" result="shape"/>
</filter>
</defs>
</svg>
